%TF.GenerationSoftware,KiCad,Pcbnew,8.0.5*%
%TF.CreationDate,2025-01-04T10:19:04+02:00*%
%TF.ProjectId,STM32F103,53544d33-3246-4313-9033-2e6b69636164,rev?*%
%TF.SameCoordinates,Original*%
%TF.FileFunction,Copper,L1,Top*%
%TF.FilePolarity,Positive*%
%FSLAX46Y46*%
G04 Gerber Fmt 4.6, Leading zero omitted, Abs format (unit mm)*
G04 Created by KiCad (PCBNEW 8.0.5) date 2025-01-04 10:19:04*
%MOMM*%
%LPD*%
G01*
G04 APERTURE LIST*
G04 Aperture macros list*
%AMRoundRect*
0 Rectangle with rounded corners*
0 $1 Rounding radius*
0 $2 $3 $4 $5 $6 $7 $8 $9 X,Y pos of 4 corners*
0 Add a 4 corners polygon primitive as box body*
4,1,4,$2,$3,$4,$5,$6,$7,$8,$9,$2,$3,0*
0 Add four circle primitives for the rounded corners*
1,1,$1+$1,$2,$3*
1,1,$1+$1,$4,$5*
1,1,$1+$1,$6,$7*
1,1,$1+$1,$8,$9*
0 Add four rect primitives between the rounded corners*
20,1,$1+$1,$2,$3,$4,$5,0*
20,1,$1+$1,$4,$5,$6,$7,0*
20,1,$1+$1,$6,$7,$8,$9,0*
20,1,$1+$1,$8,$9,$2,$3,0*%
G04 Aperture macros list end*
%TA.AperFunction,ComponentPad*%
%ADD10R,1.700000X1.700000*%
%TD*%
%TA.AperFunction,ComponentPad*%
%ADD11O,1.700000X1.700000*%
%TD*%
%TA.AperFunction,SMDPad,CuDef*%
%ADD12RoundRect,0.150000X-0.512500X-0.150000X0.512500X-0.150000X0.512500X0.150000X-0.512500X0.150000X0*%
%TD*%
%TA.AperFunction,SMDPad,CuDef*%
%ADD13RoundRect,0.200000X-0.275000X0.200000X-0.275000X-0.200000X0.275000X-0.200000X0.275000X0.200000X0*%
%TD*%
%TA.AperFunction,SMDPad,CuDef*%
%ADD14RoundRect,0.200000X0.200000X0.275000X-0.200000X0.275000X-0.200000X-0.275000X0.200000X-0.275000X0*%
%TD*%
%TA.AperFunction,SMDPad,CuDef*%
%ADD15RoundRect,0.225000X0.225000X0.250000X-0.225000X0.250000X-0.225000X-0.250000X0.225000X-0.250000X0*%
%TD*%
%TA.AperFunction,SMDPad,CuDef*%
%ADD16RoundRect,0.075000X-0.662500X-0.075000X0.662500X-0.075000X0.662500X0.075000X-0.662500X0.075000X0*%
%TD*%
%TA.AperFunction,SMDPad,CuDef*%
%ADD17RoundRect,0.075000X-0.075000X-0.662500X0.075000X-0.662500X0.075000X0.662500X-0.075000X0.662500X0*%
%TD*%
%TA.AperFunction,SMDPad,CuDef*%
%ADD18RoundRect,0.135000X-0.135000X-0.185000X0.135000X-0.185000X0.135000X0.185000X-0.135000X0.185000X0*%
%TD*%
%TA.AperFunction,SMDPad,CuDef*%
%ADD19RoundRect,0.140000X0.170000X-0.140000X0.170000X0.140000X-0.170000X0.140000X-0.170000X-0.140000X0*%
%TD*%
%TA.AperFunction,SMDPad,CuDef*%
%ADD20RoundRect,0.140000X-0.170000X0.140000X-0.170000X-0.140000X0.170000X-0.140000X0.170000X0.140000X0*%
%TD*%
%TA.AperFunction,SMDPad,CuDef*%
%ADD21RoundRect,0.140000X0.140000X0.170000X-0.140000X0.170000X-0.140000X-0.170000X0.140000X-0.170000X0*%
%TD*%
%TA.AperFunction,SMDPad,CuDef*%
%ADD22RoundRect,0.218750X-0.381250X0.218750X-0.381250X-0.218750X0.381250X-0.218750X0.381250X0.218750X0*%
%TD*%
%TA.AperFunction,SMDPad,CuDef*%
%ADD23RoundRect,0.218750X0.218750X0.256250X-0.218750X0.256250X-0.218750X-0.256250X0.218750X-0.256250X0*%
%TD*%
%TA.AperFunction,SMDPad,CuDef*%
%ADD24RoundRect,0.140000X-0.140000X-0.170000X0.140000X-0.170000X0.140000X0.170000X-0.140000X0.170000X0*%
%TD*%
%TA.AperFunction,SMDPad,CuDef*%
%ADD25R,1.000000X1.500000*%
%TD*%
%TA.AperFunction,SMDPad,CuDef*%
%ADD26RoundRect,0.147500X0.172500X-0.147500X0.172500X0.147500X-0.172500X0.147500X-0.172500X-0.147500X0*%
%TD*%
%TA.AperFunction,SMDPad,CuDef*%
%ADD27RoundRect,0.135000X-0.185000X0.135000X-0.185000X-0.135000X0.185000X-0.135000X0.185000X0.135000X0*%
%TD*%
%TA.AperFunction,SMDPad,CuDef*%
%ADD28R,1.300000X0.450000*%
%TD*%
%TA.AperFunction,ComponentPad*%
%ADD29O,1.800000X1.150000*%
%TD*%
%TA.AperFunction,ComponentPad*%
%ADD30O,2.000000X1.450000*%
%TD*%
%TA.AperFunction,SMDPad,CuDef*%
%ADD31RoundRect,0.150000X0.512500X0.150000X-0.512500X0.150000X-0.512500X-0.150000X0.512500X-0.150000X0*%
%TD*%
%TA.AperFunction,SMDPad,CuDef*%
%ADD32RoundRect,0.218750X-0.218750X-0.256250X0.218750X-0.256250X0.218750X0.256250X-0.218750X0.256250X0*%
%TD*%
%TA.AperFunction,ViaPad*%
%ADD33C,0.600000*%
%TD*%
%TA.AperFunction,ViaPad*%
%ADD34C,0.700000*%
%TD*%
%TA.AperFunction,Conductor*%
%ADD35C,0.500000*%
%TD*%
%TA.AperFunction,Conductor*%
%ADD36C,0.300000*%
%TD*%
%TA.AperFunction,Conductor*%
%ADD37C,0.200000*%
%TD*%
%TA.AperFunction,Conductor*%
%ADD38C,0.261112*%
%TD*%
G04 APERTURE END LIST*
D10*
%TO.P,J2,1,Pin_1*%
%TO.N,+3V3*%
X111540000Y-45300000D03*
D11*
%TO.P,J2,2,Pin_2*%
%TO.N,GND*%
X109000000Y-45300000D03*
%TO.P,J2,3,Pin_3*%
%TO.N,unconnected-(J2-Pin_3-Pad3)*%
X106460000Y-45300000D03*
%TO.P,J2,4,Pin_4*%
%TO.N,unconnected-(J2-Pin_4-Pad4)*%
X103920000Y-45300000D03*
%TO.P,J2,5,Pin_5*%
%TO.N,PA15*%
X101380000Y-45300000D03*
%TO.P,J2,6,Pin_6*%
%TO.N,PB3*%
X98840000Y-45300000D03*
%TO.P,J2,7,Pin_7*%
%TO.N,PB4*%
X96300000Y-45300000D03*
%TO.P,J2,8,Pin_8*%
%TO.N,PB5*%
X93760000Y-45300000D03*
%TO.P,J2,9,Pin_9*%
%TO.N,PB6*%
X91220000Y-45300000D03*
%TO.P,J2,10,Pin_10*%
%TO.N,PB7*%
X88680000Y-45300000D03*
%TO.P,J2,11,Pin_11*%
%TO.N,PB8*%
X86140000Y-45300000D03*
%TO.P,J2,12,Pin_12*%
%TO.N,PB9*%
X83600000Y-45300000D03*
%TO.P,J2,13,Pin_13*%
%TO.N,PC13*%
X81060000Y-45300000D03*
%TO.P,J2,14,Pin_14*%
%TO.N,PC14*%
X78520000Y-45300000D03*
%TO.P,J2,15,Pin_15*%
%TO.N,PC15*%
X75980000Y-45300000D03*
%TO.P,J2,16*%
%TO.N,N/C*%
X73440000Y-45300000D03*
%TD*%
D12*
%TO.P,U3,1,GND*%
%TO.N,GND*%
X106350000Y-65590000D03*
%TO.P,U3,2,VO*%
%TO.N,+3V3*%
X106350000Y-67490000D03*
%TO.P,U3,3,VI*%
%TO.N,Net-(U3-VI)*%
X108625000Y-66540000D03*
%TD*%
D13*
%TO.P,R4,1*%
%TO.N,Net-(D2-K)*%
X109537500Y-69352500D03*
%TO.P,R4,2*%
%TO.N,GND*%
X109537500Y-71002500D03*
%TD*%
D14*
%TO.P,R3,1*%
%TO.N,Net-(D1-K)*%
X81875000Y-66620000D03*
%TO.P,R3,2*%
%TO.N,GND*%
X80225000Y-66620000D03*
%TD*%
D15*
%TO.P,C1,1*%
%TO.N,+3V3*%
X85150000Y-53050000D03*
%TO.P,C1,2*%
%TO.N,GND*%
X83600000Y-53050000D03*
%TD*%
D16*
%TO.P,U1,1,VBAT*%
%TO.N,+3V3*%
X86480000Y-56440000D03*
%TO.P,U1,2,PC13*%
%TO.N,PC13*%
X86480000Y-56940000D03*
%TO.P,U1,3,PC14*%
%TO.N,PC14*%
X86480000Y-57440000D03*
%TO.P,U1,4,PC15*%
%TO.N,PC15*%
X86480000Y-57940000D03*
%TO.P,U1,5,PD0*%
%TO.N,/HSE_IN*%
X86480000Y-58440000D03*
%TO.P,U1,6,PD1*%
%TO.N,/HSE_OUT*%
X86480000Y-58940000D03*
%TO.P,U1,7,NRST*%
%TO.N,unconnected-(U1-NRST-Pad7)*%
X86480000Y-59440000D03*
%TO.P,U1,8,VSSA*%
%TO.N,GND*%
X86480000Y-59940000D03*
%TO.P,U1,9,VDDA*%
%TO.N,+3.3VA*%
X86480000Y-60440000D03*
%TO.P,U1,10,PA0*%
%TO.N,unconnected-(U1-PA0-Pad10)*%
X86480000Y-60940000D03*
%TO.P,U1,11,PA1*%
%TO.N,/LED_STATUS*%
X86480000Y-61440000D03*
%TO.P,U1,12,PA2*%
%TO.N,unconnected-(U1-PA2-Pad12)*%
X86480000Y-61940000D03*
D17*
%TO.P,U1,13,PA3*%
%TO.N,PA3*%
X87892500Y-63352500D03*
%TO.P,U1,14,PA4*%
%TO.N,PA4*%
X88392500Y-63352500D03*
%TO.P,U1,15,PA5*%
%TO.N,PA5*%
X88892500Y-63352500D03*
%TO.P,U1,16,PA6*%
%TO.N,PA6*%
X89392500Y-63352500D03*
%TO.P,U1,17,PA7*%
%TO.N,PA7*%
X89892500Y-63352500D03*
%TO.P,U1,18,PB0*%
%TO.N,PB0*%
X90392500Y-63352500D03*
%TO.P,U1,19,PB1*%
%TO.N,PB1*%
X90892500Y-63352500D03*
%TO.P,U1,20,PB2*%
%TO.N,PB2*%
X91392500Y-63352500D03*
%TO.P,U1,21,PB10*%
%TO.N,PB10*%
X91892500Y-63352500D03*
%TO.P,U1,22,PB11*%
%TO.N,PB11*%
X92392500Y-63352500D03*
%TO.P,U1,23,VSS*%
%TO.N,GND*%
X92892500Y-63352500D03*
%TO.P,U1,24,VDD*%
%TO.N,+3V3*%
X93392500Y-63352500D03*
D16*
%TO.P,U1,25,PB12*%
%TO.N,unconnected-(U1-PB12-Pad25)*%
X94805000Y-61940000D03*
%TO.P,U1,26,PB13*%
%TO.N,unconnected-(U1-PB13-Pad26)*%
X94805000Y-61440000D03*
%TO.P,U1,27,PB14*%
%TO.N,unconnected-(U1-PB14-Pad27)*%
X94805000Y-60940000D03*
%TO.P,U1,28,PB15*%
%TO.N,unconnected-(U1-PB15-Pad28)*%
X94805000Y-60440000D03*
%TO.P,U1,29,PA8*%
%TO.N,PA8*%
X94805000Y-59940000D03*
%TO.P,U1,30,PA9*%
%TO.N,PA9*%
X94805000Y-59440000D03*
%TO.P,U1,31,PA10*%
%TO.N,PA10*%
X94805000Y-58940000D03*
%TO.P,U1,32,PA11*%
%TO.N,USB_D-*%
X94805000Y-58440000D03*
%TO.P,U1,33,PA12*%
%TO.N,USB_D+*%
X94805000Y-57940000D03*
%TO.P,U1,34,PA13*%
%TO.N,SWDIO*%
X94805000Y-57440000D03*
%TO.P,U1,35,VSS*%
%TO.N,GND*%
X94805000Y-56940000D03*
%TO.P,U1,36,VDD*%
%TO.N,+3V3*%
X94805000Y-56440000D03*
D17*
%TO.P,U1,37,PA14*%
%TO.N,SWCLK*%
X93392500Y-55027500D03*
%TO.P,U1,38,PA15*%
%TO.N,PA15*%
X92892500Y-55027500D03*
%TO.P,U1,39,PB3*%
%TO.N,PB3*%
X92392500Y-55027500D03*
%TO.P,U1,40,PB4*%
%TO.N,PB4*%
X91892500Y-55027500D03*
%TO.P,U1,41,PB5*%
%TO.N,PB5*%
X91392500Y-55027500D03*
%TO.P,U1,42,PB6*%
%TO.N,PB6*%
X90892500Y-55027500D03*
%TO.P,U1,43,PB7*%
%TO.N,PB7*%
X90392500Y-55027500D03*
%TO.P,U1,44,BOOT0*%
%TO.N,+3V3*%
X89892500Y-55027500D03*
%TO.P,U1,45,PB8*%
%TO.N,PB8*%
X89392500Y-55027500D03*
%TO.P,U1,46,PB9*%
%TO.N,PB9*%
X88892500Y-55027500D03*
%TO.P,U1,47,VSS*%
%TO.N,GND*%
X88392500Y-55027500D03*
%TO.P,U1,48,VDD*%
%TO.N,+3V3*%
X87892500Y-55027500D03*
%TD*%
D10*
%TO.P,J4,1,Pin_1*%
%TO.N,+3V3*%
X70700000Y-62705000D03*
D11*
%TO.P,J4,2,Pin_2*%
%TO.N,SWDIO*%
X70700000Y-60165000D03*
%TO.P,J4,3,Pin_3*%
%TO.N,SWCLK*%
X70700000Y-57625000D03*
%TO.P,J4,4,Pin_4*%
%TO.N,GND*%
X70700000Y-55085000D03*
%TD*%
D18*
%TO.P,R1,1*%
%TO.N,Net-(JP1-A)*%
X87015000Y-51575000D03*
%TO.P,R1,2*%
%TO.N,GND*%
X88035000Y-51575000D03*
%TD*%
D13*
%TO.P,R2,1*%
%TO.N,+3V3*%
X100425000Y-55750000D03*
%TO.P,R2,2*%
%TO.N,USB_D+*%
X100425000Y-57400000D03*
%TD*%
D19*
%TO.P,C2,1*%
%TO.N,+3V3*%
X84950000Y-55430000D03*
%TO.P,C2,2*%
%TO.N,GND*%
X84950000Y-54470000D03*
%TD*%
D20*
%TO.P,C3,1*%
%TO.N,+3V3*%
X94460000Y-64650000D03*
%TO.P,C3,2*%
%TO.N,GND*%
X94460000Y-65610000D03*
%TD*%
D21*
%TO.P,C8,1*%
%TO.N,/HSE_IN*%
X81555000Y-57620000D03*
%TO.P,C8,2*%
%TO.N,GND*%
X80595000Y-57620000D03*
%TD*%
D22*
%TO.P,FB1,1*%
%TO.N,+5V*%
X109837500Y-61515000D03*
%TO.P,FB1,2*%
%TO.N,Net-(U3-VI)*%
X109837500Y-63640000D03*
%TD*%
D23*
%TO.P,D2,1,K*%
%TO.N,Net-(D2-K)*%
X107687500Y-69402500D03*
%TO.P,D2,2,A*%
%TO.N,+3V3*%
X106112500Y-69402500D03*
%TD*%
D21*
%TO.P,C9,1*%
%TO.N,/HSE_OUT*%
X81565000Y-60800000D03*
%TO.P,C9,2*%
%TO.N,GND*%
X80605000Y-60800000D03*
%TD*%
D20*
%TO.P,C6,1*%
%TO.N,+3.3VA*%
X83220000Y-62020000D03*
%TO.P,C6,2*%
%TO.N,GND*%
X83220000Y-62980000D03*
%TD*%
D21*
%TO.P,C10,1*%
%TO.N,Net-(U3-VI)*%
X107357500Y-64072500D03*
%TO.P,C10,2*%
%TO.N,GND*%
X106397500Y-64072500D03*
%TD*%
D24*
%TO.P,C5,1*%
%TO.N,+3V3*%
X87345000Y-52975000D03*
%TO.P,C5,2*%
%TO.N,GND*%
X88305000Y-52975000D03*
%TD*%
D20*
%TO.P,C7,1*%
%TO.N,+3.3VA*%
X82020000Y-62045000D03*
%TO.P,C7,2*%
%TO.N,GND*%
X82020000Y-63005000D03*
%TD*%
D25*
%TO.P,JP1,1,A*%
%TO.N,Net-(JP1-A)*%
X84900000Y-50675000D03*
%TO.P,JP1,2,B*%
%TO.N,+3V3*%
X83600000Y-50675000D03*
%TD*%
D26*
%TO.P,L1,1,1*%
%TO.N,+3V3*%
X84420000Y-62985000D03*
%TO.P,L1,2,2*%
%TO.N,+3.3VA*%
X84420000Y-62015000D03*
%TD*%
D20*
%TO.P,C4,1*%
%TO.N,+3V3*%
X96725000Y-55025000D03*
%TO.P,C4,2*%
%TO.N,GND*%
X96725000Y-55985000D03*
%TD*%
D27*
%TO.P,Y1,1,1*%
%TO.N,/HSE_IN*%
X81525000Y-58680000D03*
%TO.P,Y1,2,2*%
%TO.N,/HSE_OUT*%
X81525000Y-59700000D03*
%TD*%
D28*
%TO.P,J1,1,VBUS*%
%TO.N,+5V*%
X113370000Y-59590000D03*
%TO.P,J1,2,D-*%
%TO.N,USB_CONN_D-*%
X113370000Y-58940000D03*
%TO.P,J1,3,D+*%
%TO.N,USB_CONN_D+*%
X113370000Y-58290000D03*
%TO.P,J1,4,ID*%
%TO.N,unconnected-(J1-ID-Pad4)*%
X113370000Y-57640000D03*
%TO.P,J1,5,GND*%
%TO.N,GND*%
X113370000Y-56990000D03*
D29*
%TO.P,J1,6,Shield*%
%TO.N,unconnected-(J1-Shield-Pad6)_3*%
X117220000Y-62165000D03*
D30*
%TO.N,unconnected-(J1-Shield-Pad6)*%
X113420000Y-62015000D03*
%TO.N,unconnected-(J1-Shield-Pad6)_1*%
X113420000Y-54565000D03*
D29*
%TO.N,unconnected-(J1-Shield-Pad6)_2*%
X117220000Y-54415000D03*
%TD*%
D31*
%TO.P,U2,1,I/O1*%
%TO.N,USB_CONN_D-*%
X106635000Y-58810000D03*
%TO.P,U2,2,GND*%
%TO.N,GND*%
X106635000Y-57860000D03*
%TO.P,U2,3,I/O2*%
%TO.N,USB_CONN_D+*%
X106635000Y-56910000D03*
%TO.P,U2,4,I/O2*%
%TO.N,USB_D+*%
X104360000Y-56910000D03*
%TO.P,U2,5,VBUS*%
%TO.N,+5V*%
X104360000Y-57860000D03*
%TO.P,U2,6,I/O1*%
%TO.N,USB_D-*%
X104360000Y-58810000D03*
%TD*%
D10*
%TO.P,J3,1,Pin_1*%
%TO.N,+3V3*%
X111600000Y-74110000D03*
D11*
%TO.P,J3,2,Pin_2*%
%TO.N,GND*%
X109060000Y-74110000D03*
%TO.P,J3,3,Pin_3*%
%TO.N,PA10*%
X106520000Y-74110000D03*
%TO.P,J3,4,Pin_4*%
%TO.N,PA9*%
X103980000Y-74110000D03*
%TO.P,J3,5,Pin_5*%
%TO.N,PA8*%
X101440000Y-74110000D03*
%TO.P,J3,6,Pin_6*%
%TO.N,PB11*%
X98900000Y-74110000D03*
%TO.P,J3,7,Pin_7*%
%TO.N,PB10*%
X96360000Y-74110000D03*
%TO.P,J3,8,Pin_8*%
%TO.N,PB2*%
X93820000Y-74110000D03*
%TO.P,J3,9,Pin_9*%
%TO.N,PB1*%
X91280000Y-74110000D03*
%TO.P,J3,10,Pin_10*%
%TO.N,PB0*%
X88740000Y-74110000D03*
%TO.P,J3,11,Pin_11*%
%TO.N,PA7*%
X86200000Y-74110000D03*
%TO.P,J3,12,Pin_12*%
%TO.N,PA6*%
X83660000Y-74110000D03*
%TO.P,J3,13,Pin_13*%
%TO.N,PA5*%
X81120000Y-74110000D03*
%TO.P,J3,14,Pin_14*%
%TO.N,PA4*%
X78580000Y-74110000D03*
%TO.P,J3,15,Pin_15*%
%TO.N,PA3*%
X76040000Y-74110000D03*
%TO.P,J3,16*%
%TO.N,N/C*%
X73500000Y-74110000D03*
%TD*%
D32*
%TO.P,D1,1,K*%
%TO.N,Net-(D1-K)*%
X83682500Y-66620000D03*
%TO.P,D1,2,A*%
%TO.N,/LED_STATUS*%
X85257500Y-66620000D03*
%TD*%
D19*
%TO.P,C11,1*%
%TO.N,+3V3*%
X104570000Y-66600000D03*
%TO.P,C11,2*%
%TO.N,GND*%
X104570000Y-65640000D03*
%TD*%
D33*
%TO.N,+3V3*%
X78550000Y-56275000D03*
X83525000Y-55425000D03*
D34*
%TO.N,GND*%
X95525000Y-65525000D03*
X80600000Y-63075000D03*
X92900000Y-61950000D03*
D33*
X97350000Y-55850000D03*
D34*
X105375000Y-64100000D03*
X80600000Y-56825000D03*
D33*
X82600000Y-53050000D03*
X87825000Y-59925000D03*
D34*
X80150000Y-64975000D03*
X79375000Y-60825000D03*
X111225000Y-56350000D03*
X105575000Y-55600000D03*
X78775000Y-66625000D03*
D33*
X80075000Y-59900000D03*
D34*
X110900000Y-71025000D03*
D33*
X88025000Y-50700000D03*
X85650000Y-54475000D03*
X73350000Y-55075000D03*
X109000000Y-46975000D03*
%TO.N,/LED_STATUS*%
X85600000Y-64975000D03*
X85600000Y-63675000D03*
%TO.N,SWCLK*%
X74875000Y-57625000D03*
X98512500Y-52487500D03*
%TO.N,SWDIO*%
X97825000Y-56925000D03*
X74975000Y-60175000D03*
%TO.N,PA8*%
X99975000Y-65425000D03*
X99950000Y-67575000D03*
%TO.N,PA10*%
X102800000Y-67650000D03*
X102800000Y-65475000D03*
%TO.N,PA9*%
X101650000Y-67600000D03*
X101625000Y-65475000D03*
%TD*%
D35*
%TO.N,+3V3*%
X109965000Y-72475000D02*
X111600000Y-74110000D01*
D36*
X83975000Y-64325000D02*
X83925000Y-64275000D01*
X84300000Y-52200000D02*
X85100000Y-52200000D01*
X93392500Y-64252500D02*
X93790000Y-64650000D01*
D35*
X83925000Y-64275000D02*
X80581371Y-64275000D01*
D36*
X83600000Y-51500000D02*
X84300000Y-52200000D01*
D35*
X87120000Y-52950000D02*
X87145000Y-52975000D01*
X96775000Y-54975000D02*
X96725000Y-55025000D01*
X106112500Y-69402500D02*
X106112500Y-69987500D01*
D36*
X86480000Y-56440000D02*
X85365000Y-56440000D01*
X85614239Y-55430000D02*
X86475000Y-54569239D01*
X93392500Y-63352500D02*
X93392500Y-64252500D01*
X89975000Y-56440000D02*
X94805000Y-56440000D01*
D35*
X104445000Y-66475000D02*
X98750000Y-66475000D01*
X111600000Y-74110000D02*
X112090000Y-74110000D01*
X96725000Y-55025000D02*
X99700000Y-55025000D01*
D36*
X84950000Y-55430000D02*
X85614239Y-55430000D01*
X95610000Y-56440000D02*
X95925000Y-56125000D01*
D37*
X89892500Y-55027500D02*
X89892500Y-56357500D01*
D35*
X106112500Y-67727500D02*
X106350000Y-67490000D01*
X106350000Y-67490000D02*
X105115000Y-67490000D01*
X115700000Y-49460000D02*
X111540000Y-45300000D01*
X100425000Y-54575000D02*
X100425000Y-55750000D01*
D36*
X85365000Y-56440000D02*
X84950000Y-56025000D01*
D35*
X77900000Y-63175000D02*
X71170000Y-63175000D01*
X84950000Y-55430000D02*
X83530000Y-55430000D01*
X112090000Y-74110000D02*
X115700000Y-70500000D01*
X111540000Y-48010000D02*
X107175000Y-52375000D01*
X85200000Y-52950000D02*
X86475000Y-52950000D01*
X71170000Y-63175000D02*
X70700000Y-62705000D01*
D36*
X84950000Y-56025000D02*
X84950000Y-55430000D01*
D35*
X86475000Y-52950000D02*
X87120000Y-52950000D01*
X99700000Y-55025000D02*
X100425000Y-55750000D01*
D36*
X88464380Y-56440000D02*
X89975000Y-56440000D01*
X95925000Y-56125000D02*
X95925000Y-55225000D01*
X87892500Y-55027500D02*
X87892500Y-53842500D01*
D35*
X111540000Y-45300000D02*
X111540000Y-48010000D01*
X78550000Y-56275000D02*
X77900000Y-56925000D01*
D36*
X95925000Y-55225000D02*
X96280000Y-54870000D01*
D35*
X96925000Y-64650000D02*
X94460000Y-64650000D01*
X108600000Y-72475000D02*
X109965000Y-72475000D01*
X106112500Y-69402500D02*
X106112500Y-67727500D01*
D36*
X87892500Y-55027500D02*
X87892500Y-55868120D01*
X86475000Y-54569239D02*
X86475000Y-52950000D01*
X94805000Y-56440000D02*
X95610000Y-56440000D01*
X83530000Y-55430000D02*
X83525000Y-55425000D01*
X87892500Y-53842500D02*
X87520000Y-53470000D01*
X85150000Y-52250000D02*
X85150000Y-53050000D01*
X87520000Y-53470000D02*
X87520000Y-52975000D01*
D35*
X96780000Y-54975000D02*
X96700000Y-54895000D01*
X104570000Y-66945000D02*
X104570000Y-66600000D01*
X106112500Y-69987500D02*
X108600000Y-72475000D01*
D36*
X93790000Y-64650000D02*
X94460000Y-64650000D01*
D35*
X84420000Y-62985000D02*
X84420000Y-63780000D01*
D36*
X96280000Y-54870000D02*
X96900000Y-54870000D01*
X83600000Y-50675000D02*
X83600000Y-51500000D01*
D37*
X89892500Y-56357500D02*
X89975000Y-56440000D01*
D35*
X77900000Y-56925000D02*
X77900000Y-63175000D01*
D36*
X85100000Y-52200000D02*
X85150000Y-52250000D01*
D35*
X98750000Y-66475000D02*
X96925000Y-64650000D01*
X84420000Y-63780000D02*
X83925000Y-64275000D01*
X102625000Y-52375000D02*
X100425000Y-54575000D01*
X107175000Y-52375000D02*
X102625000Y-52375000D01*
X104570000Y-66600000D02*
X104445000Y-66475000D01*
X80581371Y-64275000D02*
X79481371Y-63175000D01*
X79481371Y-63175000D02*
X77900000Y-63175000D01*
D36*
X87892500Y-55868120D02*
X88464380Y-56440000D01*
D35*
X105115000Y-67490000D02*
X104570000Y-66945000D01*
X115700000Y-70500000D02*
X115700000Y-49460000D01*
%TO.N,GND*%
X83195000Y-63005000D02*
X83220000Y-62980000D01*
X104570000Y-65640000D02*
X106300000Y-65640000D01*
X85645000Y-54470000D02*
X85650000Y-54475000D01*
D36*
X87810000Y-59940000D02*
X87825000Y-59925000D01*
D35*
X80595000Y-56830000D02*
X80600000Y-56825000D01*
X106397500Y-64072500D02*
X106397500Y-65542500D01*
D36*
X96700000Y-55855000D02*
X96700000Y-56450000D01*
X111415000Y-56990000D02*
X111225000Y-56800000D01*
X105575000Y-55600000D02*
X105575000Y-57650000D01*
D35*
X82020000Y-63005000D02*
X80670000Y-63005000D01*
X84345000Y-54470000D02*
X84950000Y-54470000D01*
D36*
X96700000Y-56450000D02*
X96210000Y-56940000D01*
D35*
X80225000Y-66620000D02*
X78780000Y-66620000D01*
D36*
X88305000Y-52975000D02*
X88392500Y-53062500D01*
D35*
X95525000Y-65525000D02*
X95440000Y-65610000D01*
D36*
X113370000Y-56990000D02*
X111415000Y-56990000D01*
X88035000Y-50710000D02*
X88035000Y-51575000D01*
X97345000Y-55855000D02*
X97350000Y-55850000D01*
D35*
X80605000Y-63070000D02*
X80600000Y-63075000D01*
X79375000Y-60825000D02*
X79400000Y-60800000D01*
X83600000Y-54025000D02*
X84025000Y-54450000D01*
X83600000Y-53050000D02*
X83600000Y-54025000D01*
X80150000Y-66545000D02*
X80225000Y-66620000D01*
D36*
X88025000Y-50700000D02*
X88035000Y-50710000D01*
D35*
X106397500Y-64072500D02*
X105652500Y-64072500D01*
X80605000Y-60800000D02*
X79400000Y-60800000D01*
X70700000Y-55085000D02*
X73340000Y-55085000D01*
X80605000Y-60800000D02*
X80605000Y-63070000D01*
X106397500Y-65542500D02*
X106350000Y-65590000D01*
D36*
X88035000Y-52285000D02*
X88035000Y-51575000D01*
X86480000Y-59940000D02*
X87810000Y-59940000D01*
D35*
X84325000Y-54450000D02*
X84345000Y-54470000D01*
X110877500Y-71002500D02*
X110900000Y-71025000D01*
D36*
X88392500Y-53062500D02*
X88392500Y-55027500D01*
D35*
X109537500Y-71002500D02*
X110877500Y-71002500D01*
X105652500Y-64072500D02*
X105650000Y-64075000D01*
D36*
X88305000Y-52975000D02*
X88305000Y-52555000D01*
D35*
X84950000Y-54470000D02*
X85645000Y-54470000D01*
D36*
X105575000Y-57650000D02*
X105785000Y-57860000D01*
X96210000Y-56940000D02*
X94805000Y-56940000D01*
D35*
X109000000Y-46975000D02*
X109000000Y-45300000D01*
X80670000Y-63005000D02*
X80600000Y-63075000D01*
X106412500Y-65527500D02*
X106350000Y-65590000D01*
X80605000Y-60800000D02*
X80605000Y-60430000D01*
X95440000Y-65610000D02*
X94460000Y-65610000D01*
X88335000Y-52945000D02*
X88305000Y-52975000D01*
D36*
X111225000Y-56800000D02*
X111225000Y-56350000D01*
D35*
X73340000Y-55085000D02*
X73350000Y-55075000D01*
X78775000Y-66625000D02*
X78780000Y-66620000D01*
D36*
X105785000Y-57860000D02*
X106635000Y-57860000D01*
D35*
X106300000Y-65640000D02*
X106350000Y-65590000D01*
D36*
X88305000Y-52555000D02*
X88035000Y-52285000D01*
D35*
X82020000Y-63005000D02*
X83195000Y-63005000D01*
X80595000Y-57620000D02*
X80595000Y-56830000D01*
D36*
X92892500Y-63352500D02*
X92892500Y-62242500D01*
D35*
X84025000Y-54450000D02*
X84325000Y-54450000D01*
X80150000Y-64975000D02*
X80150000Y-66545000D01*
D36*
X96700000Y-55855000D02*
X97345000Y-55855000D01*
D35*
X80605000Y-60430000D02*
X80075000Y-59900000D01*
X83600000Y-53050000D02*
X82600000Y-53050000D01*
D36*
%TO.N,+3.3VA*%
X84420000Y-61120000D02*
X84420000Y-62015000D01*
X86480000Y-60440000D02*
X85100000Y-60440000D01*
X85100000Y-60440000D02*
X84420000Y-61120000D01*
D35*
X82020000Y-62045000D02*
X84390000Y-62045000D01*
X84390000Y-62045000D02*
X84420000Y-62015000D01*
D36*
%TO.N,/HSE_IN*%
X84220000Y-58680000D02*
X84460000Y-58440000D01*
X81555000Y-57620000D02*
X81555000Y-58650000D01*
X84460000Y-58440000D02*
X86480000Y-58440000D01*
X81555000Y-58650000D02*
X81525000Y-58680000D01*
X81525000Y-58680000D02*
X84220000Y-58680000D01*
%TO.N,/HSE_OUT*%
X81525000Y-59700000D02*
X81525000Y-60760000D01*
X86480000Y-58940000D02*
X85185000Y-58940000D01*
X81525000Y-60760000D02*
X81565000Y-60800000D01*
X85185000Y-58940000D02*
X83325000Y-60800000D01*
X83325000Y-60800000D02*
X81565000Y-60800000D01*
D35*
%TO.N,Net-(U3-VI)*%
X108277500Y-64072500D02*
X107357500Y-64072500D01*
X108277500Y-64072500D02*
X108277500Y-66192500D01*
X109837500Y-63640000D02*
X108710000Y-63640000D01*
X108277500Y-66192500D02*
X108625000Y-66540000D01*
X108710000Y-63640000D02*
X108277500Y-64072500D01*
D36*
%TO.N,/LED_STATUS*%
X85257500Y-65967500D02*
X85257500Y-66620000D01*
X85600000Y-65625000D02*
X85257500Y-65967500D01*
X85600000Y-62775000D02*
X85225000Y-62400000D01*
X85600000Y-64975000D02*
X85600000Y-65625000D01*
X85225000Y-62400000D02*
X85225000Y-61725000D01*
X85600000Y-63675000D02*
X85600000Y-62775000D01*
X85225000Y-61725000D02*
X85510000Y-61440000D01*
X85510000Y-61440000D02*
X86480000Y-61440000D01*
%TO.N,Net-(D1-K)*%
X81875000Y-66620000D02*
X83682500Y-66620000D01*
D35*
%TO.N,Net-(D2-K)*%
X109487500Y-69402500D02*
X109537500Y-69352500D01*
X107687500Y-69402500D02*
X109487500Y-69402500D01*
D36*
%TO.N,+5V*%
X105375000Y-58350000D02*
X105375000Y-60600000D01*
D37*
X104360000Y-57860000D02*
X104885000Y-57860000D01*
D36*
X112610000Y-59590000D02*
X110685000Y-61515000D01*
X106290000Y-61515000D02*
X109837500Y-61515000D01*
X110685000Y-61515000D02*
X109837500Y-61515000D01*
X104885000Y-57860000D02*
X105375000Y-58350000D01*
X113370000Y-59590000D02*
X112610000Y-59590000D01*
X105375000Y-60600000D02*
X106290000Y-61515000D01*
D38*
%TO.N,USB_CONN_D-*%
X108346595Y-58092156D02*
X110813836Y-58092156D01*
X112394999Y-58940000D02*
X113370000Y-58940000D01*
X110813836Y-58092156D02*
X111568836Y-58847156D01*
X106635000Y-58810000D02*
X107628751Y-58810000D01*
X111568836Y-58847156D02*
X112302155Y-58847156D01*
X107628751Y-58810000D02*
X108346595Y-58092156D01*
X112302155Y-58847156D02*
X112394999Y-58940000D01*
%TO.N,USB_CONN_D+*%
X112394999Y-58290000D02*
X113370000Y-58290000D01*
X107628751Y-56910000D02*
X108346595Y-57627844D01*
X108346595Y-57627844D02*
X111006164Y-57627844D01*
X111761164Y-58382844D02*
X112302155Y-58382844D01*
X111006164Y-57627844D02*
X111761164Y-58382844D01*
X106635000Y-56910000D02*
X107628751Y-56910000D01*
X112302155Y-58382844D02*
X112394999Y-58290000D01*
D36*
%TO.N,PB6*%
X90892500Y-55027500D02*
X90892500Y-45627500D01*
X90892500Y-45627500D02*
X91220000Y-45300000D01*
%TO.N,PC15*%
X86480000Y-57940000D02*
X82881846Y-57940000D01*
X82881846Y-57940000D02*
X75980000Y-51038154D01*
X75980000Y-51038154D02*
X75980000Y-45300000D01*
%TO.N,PC13*%
X83390000Y-56940000D02*
X86480000Y-56940000D01*
X81060000Y-45300000D02*
X81060000Y-54610000D01*
X81060000Y-54610000D02*
X83390000Y-56940000D01*
%TO.N,SWCLK*%
X93392500Y-55027500D02*
X93392500Y-54257500D01*
X93392500Y-54257500D02*
X95175000Y-52475000D01*
X95175000Y-52475000D02*
X98500000Y-52475000D01*
X98512500Y-52487500D02*
X98525000Y-52500000D01*
X98500000Y-52475000D02*
X98512500Y-52487500D01*
D35*
X70700000Y-57625000D02*
X74875000Y-57625000D01*
D36*
%TO.N,PC14*%
X86480000Y-57440000D02*
X83088952Y-57440000D01*
X83088952Y-57440000D02*
X78499476Y-52850524D01*
X78520000Y-52830000D02*
X78520000Y-45300000D01*
X78499476Y-52850524D02*
X78520000Y-52830000D01*
D35*
%TO.N,SWDIO*%
X70700000Y-60165000D02*
X74965000Y-60165000D01*
D36*
X97310000Y-57440000D02*
X97825000Y-56925000D01*
X94805000Y-57440000D02*
X97310000Y-57440000D01*
D35*
X74965000Y-60165000D02*
X74975000Y-60175000D01*
D36*
%TO.N,PB8*%
X87225000Y-47750000D02*
X86350000Y-47750000D01*
X86140000Y-47540000D02*
X86140000Y-45300000D01*
X89392500Y-53989607D02*
X89800000Y-53582107D01*
X89800000Y-50325000D02*
X87225000Y-47750000D01*
X86350000Y-47750000D02*
X86140000Y-47540000D01*
X89800000Y-53582107D02*
X89800000Y-50325000D01*
X89392500Y-55027500D02*
X89392500Y-53989607D01*
%TO.N,PB5*%
X93760000Y-48415000D02*
X93760000Y-45300000D01*
X91392500Y-50782500D02*
X93760000Y-48415000D01*
X91392500Y-55027500D02*
X91392500Y-50782500D01*
%TO.N,PA15*%
X101380000Y-45300000D02*
X92892500Y-53787500D01*
X92892500Y-53787500D02*
X92892500Y-55027500D01*
%TO.N,PB7*%
X90392500Y-55027500D02*
X90392500Y-49692500D01*
X88680000Y-47980000D02*
X88680000Y-45300000D01*
X90392500Y-49692500D02*
X88680000Y-47980000D01*
%TO.N,PB9*%
X89125000Y-50650000D02*
X87400000Y-48925000D01*
X88892500Y-55027500D02*
X88892500Y-53782500D01*
X87400000Y-48925000D02*
X84350000Y-48925000D01*
X83600000Y-48175000D02*
X83600000Y-45300000D01*
X88892500Y-53782500D02*
X89125000Y-53550000D01*
X84350000Y-48925000D02*
X83600000Y-48175000D01*
X89125000Y-53550000D02*
X89125000Y-50650000D01*
%TO.N,PB4*%
X96300000Y-47825000D02*
X96300000Y-45300000D01*
X91892500Y-55027500D02*
X91892500Y-52232500D01*
X91892500Y-52232500D02*
X96300000Y-47825000D01*
%TO.N,PA8*%
X99975000Y-65425000D02*
X99975000Y-64269380D01*
X100000000Y-69175000D02*
X101440000Y-70615000D01*
X101440000Y-70615000D02*
X101440000Y-74110000D01*
X95645620Y-59940000D02*
X94805000Y-59940000D01*
X99975000Y-64269380D02*
X95645620Y-59940000D01*
X99950000Y-67575000D02*
X99950000Y-69150000D01*
%TO.N,PB11*%
X92392500Y-64840000D02*
X98900000Y-71347500D01*
X98900000Y-71347500D02*
X98900000Y-74110000D01*
X92392500Y-63352500D02*
X92392500Y-64840000D01*
%TO.N,PA5*%
X83654212Y-71430000D02*
X81750000Y-71430000D01*
X88892500Y-63352500D02*
X88892500Y-66191712D01*
X81120000Y-72060000D02*
X81120000Y-74110000D01*
X88892500Y-66191712D02*
X83654212Y-71430000D01*
X81750000Y-71430000D02*
X81120000Y-72060000D01*
%TO.N,PA3*%
X77800000Y-69440000D02*
X76040000Y-71200000D01*
X87892500Y-65777500D02*
X84230000Y-69440000D01*
X87892500Y-63352500D02*
X87892500Y-65777500D01*
X84230000Y-69440000D02*
X77800000Y-69440000D01*
X76040000Y-71200000D02*
X76040000Y-74110000D01*
%TO.N,PB2*%
X93820000Y-69790000D02*
X93820000Y-74110000D01*
X91392500Y-63352500D02*
X91392500Y-67362500D01*
X91392500Y-67362500D02*
X93820000Y-69790000D01*
%TO.N,PA7*%
X86200000Y-71050000D02*
X86200000Y-74110000D01*
X89892500Y-63352500D02*
X89892500Y-67357500D01*
X89892500Y-67357500D02*
X86200000Y-71050000D01*
%TO.N,PA4*%
X78580000Y-71810000D02*
X78580000Y-74110000D01*
X88392500Y-65984606D02*
X83837106Y-70540000D01*
X83837106Y-70540000D02*
X79850000Y-70540000D01*
X88392500Y-63352500D02*
X88392500Y-65984606D01*
X79850000Y-70540000D02*
X78580000Y-71810000D01*
%TO.N,PB10*%
X91892500Y-63352500D02*
X91892500Y-66022500D01*
X96360000Y-72175000D02*
X96360000Y-73910000D01*
X91892500Y-66022500D02*
X96360000Y-70490000D01*
X96360000Y-70490000D02*
X96360000Y-72175000D01*
%TO.N,PA10*%
X102800000Y-60825000D02*
X100915000Y-58940000D01*
X102800000Y-68875000D02*
X105325000Y-71400000D01*
X100915000Y-58940000D02*
X94805000Y-58940000D01*
X102800000Y-67650000D02*
X102800000Y-68875000D01*
X105325000Y-72915000D02*
X106520000Y-74110000D01*
X105325000Y-71400000D02*
X105325000Y-72915000D01*
X102800000Y-65475000D02*
X102800000Y-60825000D01*
%TO.N,PA6*%
X89392500Y-63352500D02*
X89392500Y-66547500D01*
X89392500Y-66547500D02*
X83660000Y-72280000D01*
X83660000Y-72280000D02*
X83660000Y-74110000D01*
%TO.N,PB1*%
X90892500Y-63352500D02*
X90892500Y-71942500D01*
X91280000Y-72330000D02*
X91280000Y-74110000D01*
X91670000Y-73650000D02*
X91280000Y-74040000D01*
X90892500Y-71942500D02*
X91280000Y-72330000D01*
%TO.N,PB0*%
X90392500Y-68027500D02*
X88740000Y-69680000D01*
X90392500Y-63352500D02*
X90392500Y-68027500D01*
X88740000Y-69680000D02*
X88740000Y-74110000D01*
%TO.N,PA9*%
X99640000Y-59440000D02*
X94805000Y-59440000D01*
X101625000Y-61425000D02*
X99640000Y-59440000D01*
X101650000Y-67600000D02*
X101650000Y-69125000D01*
X101650000Y-69125000D02*
X103980000Y-71455000D01*
X101625000Y-65475000D02*
X101625000Y-61425000D01*
X103980000Y-71455000D02*
X103980000Y-74110000D01*
D35*
%TO.N,Net-(JP1-A)*%
X86475000Y-51575000D02*
X85575000Y-50675000D01*
X85575000Y-50675000D02*
X84900000Y-50675000D01*
X87015000Y-51575000D02*
X86475000Y-51575000D01*
D38*
%TO.N,USB_D+*%
X94805000Y-57940000D02*
X95911251Y-57940000D01*
X99603836Y-57667844D02*
X99313836Y-57957844D01*
X95911251Y-57940000D02*
X95929095Y-57957844D01*
X104377500Y-56950000D02*
X103383749Y-56950000D01*
D37*
X104024448Y-56950000D02*
X104377500Y-56950000D01*
D38*
X103383749Y-56950000D02*
X102665905Y-57667844D01*
X95929095Y-57957844D02*
X99313836Y-57957844D01*
X102665905Y-57667844D02*
X99603836Y-57667844D01*
%TO.N,USB_D-*%
X104377500Y-58850000D02*
X103383749Y-58850000D01*
D37*
X103810001Y-58850000D02*
X104377500Y-58850000D01*
D38*
X95929095Y-58422156D02*
X99506164Y-58422156D01*
X103383749Y-58850000D02*
X102665905Y-58132156D01*
X99796164Y-58132156D02*
X99506164Y-58422156D01*
X94805000Y-58440000D02*
X95911251Y-58440000D01*
X95911251Y-58440000D02*
X95929095Y-58422156D01*
X102665905Y-58132156D02*
X99796164Y-58132156D01*
D36*
%TO.N,PB3*%
X98840000Y-46585000D02*
X98840000Y-45300000D01*
X92392500Y-55027500D02*
X92392500Y-53032500D01*
X92392500Y-53032500D02*
X98840000Y-46585000D01*
%TD*%
%TA.AperFunction,Conductor*%
%TO.N,+3V3*%
G36*
X104763039Y-66440185D02*
G01*
X104808794Y-66492989D01*
X104820000Y-66544500D01*
X104820000Y-67378789D01*
X104840910Y-67377145D01*
X104996195Y-67332031D01*
X105122614Y-67257268D01*
X105185735Y-67240000D01*
X106476000Y-67240000D01*
X106543039Y-67259685D01*
X106588794Y-67312489D01*
X106600000Y-67364000D01*
X106600000Y-67616000D01*
X106580315Y-67683039D01*
X106527511Y-67728794D01*
X106476000Y-67740000D01*
X105190205Y-67740000D01*
X105190204Y-67740001D01*
X105190399Y-67742488D01*
X105190400Y-67742492D01*
X105193501Y-67753166D01*
X105193298Y-67823036D01*
X105155354Y-67881704D01*
X105091714Y-67910544D01*
X105078929Y-67911674D01*
X104155469Y-67945255D01*
X104087759Y-67928020D01*
X104040115Y-67876913D01*
X104026977Y-67819461D01*
X104032379Y-67462926D01*
X104053077Y-67396196D01*
X104106568Y-67351246D01*
X104175869Y-67342352D01*
X104190959Y-67345731D01*
X104299089Y-67377145D01*
X104320000Y-67378789D01*
X104320000Y-66544500D01*
X104339685Y-66477461D01*
X104392489Y-66431706D01*
X104444000Y-66420500D01*
X104696000Y-66420500D01*
X104763039Y-66440185D01*
G37*
%TD.AperFunction*%
%TD*%
%TA.AperFunction,Conductor*%
%TO.N,GND*%
G36*
X105631207Y-63469685D02*
G01*
X105676962Y-63522489D01*
X105686906Y-63591647D01*
X105670899Y-63637123D01*
X105665467Y-63646306D01*
X105665466Y-63646309D01*
X105620355Y-63801581D01*
X105620354Y-63801587D01*
X105618709Y-63822499D01*
X105618710Y-63822500D01*
X106453000Y-63822500D01*
X106520039Y-63842185D01*
X106565794Y-63894989D01*
X106577000Y-63946500D01*
X106577000Y-64307197D01*
X106579856Y-64343491D01*
X106579857Y-64343497D01*
X106625003Y-64498889D01*
X106625005Y-64498893D01*
X106625006Y-64498895D01*
X106630232Y-64507733D01*
X106647500Y-64570852D01*
X106647500Y-64826638D01*
X106627815Y-64893677D01*
X106611181Y-64914319D01*
X106600000Y-64925500D01*
X106600000Y-65716000D01*
X106580315Y-65783039D01*
X106527511Y-65828794D01*
X106476000Y-65840000D01*
X105423000Y-65840000D01*
X105409319Y-65853681D01*
X105370276Y-65875000D01*
X105013521Y-65875000D01*
X105005233Y-65872732D01*
X104996395Y-65867506D01*
X104996393Y-65867505D01*
X104996389Y-65867503D01*
X104840999Y-65822358D01*
X104834756Y-65821218D01*
X104835085Y-65819416D01*
X104806607Y-65811080D01*
X104806124Y-65812247D01*
X104663917Y-65753343D01*
X104663907Y-65753340D01*
X104518920Y-65724500D01*
X104518918Y-65724500D01*
X104444000Y-65724500D01*
X104376961Y-65704815D01*
X104331206Y-65652011D01*
X104320000Y-65600500D01*
X104320000Y-64861210D01*
X104319999Y-64861209D01*
X104820000Y-64861209D01*
X104820000Y-65390000D01*
X105144500Y-65390000D01*
X105158181Y-65376319D01*
X105219504Y-65342834D01*
X105245862Y-65340000D01*
X106100000Y-65340000D01*
X106100000Y-64845862D01*
X106119685Y-64778823D01*
X106136319Y-64758181D01*
X106147500Y-64747000D01*
X106147500Y-64322500D01*
X105618710Y-64322500D01*
X105620354Y-64343410D01*
X105665468Y-64498695D01*
X105742770Y-64629405D01*
X105759953Y-64697129D01*
X105737793Y-64763391D01*
X105683327Y-64807155D01*
X105670633Y-64811602D01*
X105577306Y-64838716D01*
X105577303Y-64838717D01*
X105435947Y-64922314D01*
X105435938Y-64922321D01*
X105339360Y-65018900D01*
X105278037Y-65052385D01*
X105208345Y-65047401D01*
X105163998Y-65018900D01*
X105135383Y-64990285D01*
X105135374Y-64990278D01*
X104996195Y-64907968D01*
X104996190Y-64907966D01*
X104840918Y-64862855D01*
X104840912Y-64862854D01*
X104820000Y-64861209D01*
X104319999Y-64861209D01*
X104299087Y-64862854D01*
X104299081Y-64862855D01*
X104143809Y-64907966D01*
X104143804Y-64907968D01*
X104004625Y-64990278D01*
X104004616Y-64990285D01*
X103890285Y-65104616D01*
X103890281Y-65104622D01*
X103855732Y-65163041D01*
X103804662Y-65210724D01*
X103735920Y-65223227D01*
X103671331Y-65196581D01*
X103631401Y-65139246D01*
X103625000Y-65099919D01*
X103625000Y-63574000D01*
X103644685Y-63506961D01*
X103697489Y-63461206D01*
X103749000Y-63450000D01*
X105564168Y-63450000D01*
X105631207Y-63469685D01*
G37*
%TD.AperFunction*%
%TD*%
M02*
