M48
; DRILL file {KiCad 8.0.5} date 2025-01-04T10:18:51+0200
; FORMAT={-:-/ absolute / metric / decimal}
; #@! TF.CreationDate,2025-01-04T10:18:51+02:00
; #@! TF.GenerationSoftware,Kicad,Pcbnew,8.0.5
; #@! TF.FileFunction,MixedPlating,1,2
FMAT,2
METRIC
; #@! TA.AperFunction,Plated,PTH,ViaDrill
T1C0.300
; #@! TA.AperFunction,Plated,PTH,ComponentDrill
T2C0.550
; #@! TA.AperFunction,Plated,PTH,ComponentDrill
T3C0.850
; #@! TA.AperFunction,Plated,PTH,ComponentDrill
T4C1.000
; #@! TA.AperFunction,NonPlated,NPTH,ComponentDrill
T5C0.800
; #@! TA.AperFunction,NonPlated,NPTH,ComponentDrill
T6C2.200
%
G90
G05
T1
X73.35Y-55.075
X74.875Y-57.625
X74.975Y-60.175
X78.55Y-56.275
X78.775Y-66.625
X79.375Y-60.825
X80.075Y-59.9
X80.15Y-64.975
X80.6Y-56.825
X80.6Y-63.075
X82.6Y-53.05
X83.525Y-55.425
X85.6Y-63.675
X85.6Y-64.975
X85.65Y-54.475
X87.825Y-59.925
X88.025Y-50.7
X92.9Y-61.95
X95.525Y-65.525
X97.35Y-55.85
X97.825Y-56.925
X98.512Y-52.487
X99.95Y-67.575
X99.975Y-65.425
X101.625Y-65.475
X101.65Y-67.6
X102.8Y-65.475
X102.8Y-67.65
X105.375Y-64.1
X105.575Y-55.6
X109.0Y-46.975
X110.9Y-71.025
X111.225Y-56.35
T4
X70.7Y-55.085
X70.7Y-57.625
X70.7Y-60.165
X70.7Y-62.705
X73.44Y-45.3
X73.5Y-74.11
X75.98Y-45.3
X76.04Y-74.11
X78.52Y-45.3
X78.58Y-74.11
X81.06Y-45.3
X81.12Y-74.11
X83.6Y-45.3
X83.66Y-74.11
X86.14Y-45.3
X86.2Y-74.11
X88.68Y-45.3
X88.74Y-74.11
X91.22Y-45.3
X91.28Y-74.11
X93.76Y-45.3
X93.82Y-74.11
X96.3Y-45.3
X96.36Y-74.11
X98.84Y-45.3
X98.9Y-74.11
X101.38Y-45.3
X101.44Y-74.11
X103.92Y-45.3
X103.98Y-74.11
X106.46Y-45.3
X106.52Y-74.11
X109.0Y-45.3
X109.06Y-74.11
X111.54Y-45.3
X111.6Y-74.11
T5
X114.47Y-55.79
X114.47Y-60.79
T6
X68.625Y-44.85
X68.625Y-74.525
X116.375Y-44.85
X116.375Y-74.525
T2
G00X116.895Y-54.415
M15
G01X117.545Y-54.415
M16
G05
G00X116.895Y-62.165
M15
G01X117.545Y-62.165
M16
G05
T3
G00X113.145Y-54.565
M15
G01X113.695Y-54.565
M16
G05
G00X113.145Y-62.015
M15
G01X113.695Y-62.015
M16
G05
M30
