%TF.GenerationSoftware,KiCad,Pcbnew,8.0.5*%
%TF.CreationDate,2025-01-04T11:00:39+02:00*%
%TF.ProjectId,STM32F103,53544d33-3246-4313-9033-2e6b69636164,rev?*%
%TF.SameCoordinates,Original*%
%TF.FileFunction,Soldermask,Top*%
%TF.FilePolarity,Negative*%
%FSLAX46Y46*%
G04 Gerber Fmt 4.6, Leading zero omitted, Abs format (unit mm)*
G04 Created by KiCad (PCBNEW 8.0.5) date 2025-01-04 11:00:39*
%MOMM*%
%LPD*%
G01*
G04 APERTURE LIST*
G04 Aperture macros list*
%AMRoundRect*
0 Rectangle with rounded corners*
0 $1 Rounding radius*
0 $2 $3 $4 $5 $6 $7 $8 $9 X,Y pos of 4 corners*
0 Add a 4 corners polygon primitive as box body*
4,1,4,$2,$3,$4,$5,$6,$7,$8,$9,$2,$3,0*
0 Add four circle primitives for the rounded corners*
1,1,$1+$1,$2,$3*
1,1,$1+$1,$4,$5*
1,1,$1+$1,$6,$7*
1,1,$1+$1,$8,$9*
0 Add four rect primitives between the rounded corners*
20,1,$1+$1,$2,$3,$4,$5,0*
20,1,$1+$1,$4,$5,$6,$7,0*
20,1,$1+$1,$6,$7,$8,$9,0*
20,1,$1+$1,$8,$9,$2,$3,0*%
G04 Aperture macros list end*
%ADD10C,2.200000*%
%ADD11R,1.700000X1.700000*%
%ADD12O,1.700000X1.700000*%
%ADD13RoundRect,0.150000X-0.512500X-0.150000X0.512500X-0.150000X0.512500X0.150000X-0.512500X0.150000X0*%
%ADD14RoundRect,0.200000X-0.275000X0.200000X-0.275000X-0.200000X0.275000X-0.200000X0.275000X0.200000X0*%
%ADD15RoundRect,0.200000X0.200000X0.275000X-0.200000X0.275000X-0.200000X-0.275000X0.200000X-0.275000X0*%
%ADD16RoundRect,0.225000X0.225000X0.250000X-0.225000X0.250000X-0.225000X-0.250000X0.225000X-0.250000X0*%
%ADD17RoundRect,0.075000X-0.662500X-0.075000X0.662500X-0.075000X0.662500X0.075000X-0.662500X0.075000X0*%
%ADD18RoundRect,0.075000X-0.075000X-0.662500X0.075000X-0.662500X0.075000X0.662500X-0.075000X0.662500X0*%
%ADD19RoundRect,0.135000X-0.135000X-0.185000X0.135000X-0.185000X0.135000X0.185000X-0.135000X0.185000X0*%
%ADD20RoundRect,0.140000X0.170000X-0.140000X0.170000X0.140000X-0.170000X0.140000X-0.170000X-0.140000X0*%
%ADD21RoundRect,0.140000X-0.170000X0.140000X-0.170000X-0.140000X0.170000X-0.140000X0.170000X0.140000X0*%
%ADD22RoundRect,0.140000X0.140000X0.170000X-0.140000X0.170000X-0.140000X-0.170000X0.140000X-0.170000X0*%
%ADD23RoundRect,0.218750X-0.381250X0.218750X-0.381250X-0.218750X0.381250X-0.218750X0.381250X0.218750X0*%
%ADD24RoundRect,0.218750X0.218750X0.256250X-0.218750X0.256250X-0.218750X-0.256250X0.218750X-0.256250X0*%
%ADD25RoundRect,0.140000X-0.140000X-0.170000X0.140000X-0.170000X0.140000X0.170000X-0.140000X0.170000X0*%
%ADD26R,1.000000X1.500000*%
%ADD27RoundRect,0.147500X0.172500X-0.147500X0.172500X0.147500X-0.172500X0.147500X-0.172500X-0.147500X0*%
%ADD28RoundRect,0.135000X-0.185000X0.135000X-0.185000X-0.135000X0.185000X-0.135000X0.185000X0.135000X0*%
%ADD29O,0.800000X0.800000*%
%ADD30R,1.300000X0.450000*%
%ADD31O,1.800000X1.150000*%
%ADD32O,2.000000X1.450000*%
%ADD33RoundRect,0.150000X0.512500X0.150000X-0.512500X0.150000X-0.512500X-0.150000X0.512500X-0.150000X0*%
%ADD34RoundRect,0.218750X-0.218750X-0.256250X0.218750X-0.256250X0.218750X0.256250X-0.218750X0.256250X0*%
G04 APERTURE END LIST*
D10*
%TO.C,H4*%
X116375000Y-74525000D03*
%TD*%
D11*
%TO.C,J2*%
X111540000Y-45300000D03*
D12*
X109000000Y-45300000D03*
X106460000Y-45300000D03*
X103920000Y-45300000D03*
X101380000Y-45300000D03*
X98840000Y-45300000D03*
X96300000Y-45300000D03*
X93760000Y-45300000D03*
X91220000Y-45300000D03*
X88680000Y-45300000D03*
X86140000Y-45300000D03*
X83600000Y-45300000D03*
X81060000Y-45300000D03*
X78520000Y-45300000D03*
X75980000Y-45300000D03*
X73440000Y-45300000D03*
%TD*%
D13*
%TO.C,U3*%
X106350000Y-65590000D03*
X106350000Y-67490000D03*
X108625000Y-66540000D03*
%TD*%
D14*
%TO.C,R4*%
X109537500Y-69352500D03*
X109537500Y-71002500D03*
%TD*%
D15*
%TO.C,R3*%
X81875000Y-66620000D03*
X80225000Y-66620000D03*
%TD*%
D16*
%TO.C,C1*%
X85150000Y-53050000D03*
X83600000Y-53050000D03*
%TD*%
D10*
%TO.C,H1*%
X68625000Y-44850000D03*
%TD*%
D17*
%TO.C,U1*%
X86480000Y-56440000D03*
X86480000Y-56940000D03*
X86480000Y-57440000D03*
X86480000Y-57940000D03*
X86480000Y-58440000D03*
X86480000Y-58940000D03*
X86480000Y-59440000D03*
X86480000Y-59940000D03*
X86480000Y-60440000D03*
X86480000Y-60940000D03*
X86480000Y-61440000D03*
X86480000Y-61940000D03*
D18*
X87892500Y-63352500D03*
X88392500Y-63352500D03*
X88892500Y-63352500D03*
X89392500Y-63352500D03*
X89892500Y-63352500D03*
X90392500Y-63352500D03*
X90892500Y-63352500D03*
X91392500Y-63352500D03*
X91892500Y-63352500D03*
X92392500Y-63352500D03*
X92892500Y-63352500D03*
X93392500Y-63352500D03*
D17*
X94805000Y-61940000D03*
X94805000Y-61440000D03*
X94805000Y-60940000D03*
X94805000Y-60440000D03*
X94805000Y-59940000D03*
X94805000Y-59440000D03*
X94805000Y-58940000D03*
X94805000Y-58440000D03*
X94805000Y-57940000D03*
X94805000Y-57440000D03*
X94805000Y-56940000D03*
X94805000Y-56440000D03*
D18*
X93392500Y-55027500D03*
X92892500Y-55027500D03*
X92392500Y-55027500D03*
X91892500Y-55027500D03*
X91392500Y-55027500D03*
X90892500Y-55027500D03*
X90392500Y-55027500D03*
X89892500Y-55027500D03*
X89392500Y-55027500D03*
X88892500Y-55027500D03*
X88392500Y-55027500D03*
X87892500Y-55027500D03*
%TD*%
D11*
%TO.C,J4*%
X70700000Y-62705000D03*
D12*
X70700000Y-60165000D03*
X70700000Y-57625000D03*
X70700000Y-55085000D03*
%TD*%
D19*
%TO.C,R1*%
X87015000Y-51575000D03*
X88035000Y-51575000D03*
%TD*%
D14*
%TO.C,R2*%
X100425000Y-55750000D03*
X100425000Y-57400000D03*
%TD*%
D20*
%TO.C,C2*%
X84950000Y-55430000D03*
X84950000Y-54470000D03*
%TD*%
D21*
%TO.C,C3*%
X94460000Y-64650000D03*
X94460000Y-65610000D03*
%TD*%
D22*
%TO.C,C8*%
X81555000Y-57620000D03*
X80595000Y-57620000D03*
%TD*%
D23*
%TO.C,FB1*%
X109837500Y-61515000D03*
X109837500Y-63640000D03*
%TD*%
D24*
%TO.C,D2*%
X107687500Y-69402500D03*
X106112500Y-69402500D03*
%TD*%
D22*
%TO.C,C9*%
X81565000Y-60800000D03*
X80605000Y-60800000D03*
%TD*%
D21*
%TO.C,C6*%
X83220000Y-62020000D03*
X83220000Y-62980000D03*
%TD*%
D22*
%TO.C,C10*%
X107357500Y-64072500D03*
X106397500Y-64072500D03*
%TD*%
D25*
%TO.C,C5*%
X87345000Y-52975000D03*
X88305000Y-52975000D03*
%TD*%
D21*
%TO.C,C7*%
X82020000Y-62045000D03*
X82020000Y-63005000D03*
%TD*%
D26*
%TO.C,JP1*%
X84900000Y-50675000D03*
X83600000Y-50675000D03*
%TD*%
D27*
%TO.C,L1*%
X84420000Y-62985000D03*
X84420000Y-62015000D03*
%TD*%
D10*
%TO.C,H2*%
X116375000Y-44850000D03*
%TD*%
D21*
%TO.C,C4*%
X96725000Y-55025000D03*
X96725000Y-55985000D03*
%TD*%
D28*
%TO.C,Y1*%
X81525000Y-58680000D03*
X81525000Y-59700000D03*
%TD*%
D29*
%TO.C,J1*%
X114470000Y-60790000D03*
X114470000Y-55790000D03*
D30*
X113370000Y-59590000D03*
X113370000Y-58940000D03*
X113370000Y-58290000D03*
X113370000Y-57640000D03*
X113370000Y-56990000D03*
D31*
X117220000Y-62165000D03*
D32*
X113420000Y-62015000D03*
X113420000Y-54565000D03*
D31*
X117220000Y-54415000D03*
%TD*%
D10*
%TO.C,H3*%
X68625000Y-74525000D03*
%TD*%
D33*
%TO.C,U2*%
X106635000Y-58810000D03*
X106635000Y-57860000D03*
X106635000Y-56910000D03*
X104360000Y-56910000D03*
X104360000Y-57860000D03*
X104360000Y-58810000D03*
%TD*%
D11*
%TO.C,J3*%
X111600000Y-74110000D03*
D12*
X109060000Y-74110000D03*
X106520000Y-74110000D03*
X103980000Y-74110000D03*
X101440000Y-74110000D03*
X98900000Y-74110000D03*
X96360000Y-74110000D03*
X93820000Y-74110000D03*
X91280000Y-74110000D03*
X88740000Y-74110000D03*
X86200000Y-74110000D03*
X83660000Y-74110000D03*
X81120000Y-74110000D03*
X78580000Y-74110000D03*
X76040000Y-74110000D03*
X73500000Y-74110000D03*
%TD*%
D34*
%TO.C,D1*%
X83682500Y-66620000D03*
X85257500Y-66620000D03*
%TD*%
D20*
%TO.C,C11*%
X104570000Y-66600000D03*
X104570000Y-65640000D03*
%TD*%
M02*
