%TF.GenerationSoftware,KiCad,Pcbnew,8.0.5*%
%TF.CreationDate,2025-01-04T11:00:39+02:00*%
%TF.ProjectId,STM32F103,53544d33-3246-4313-9033-2e6b69636164,rev?*%
%TF.SameCoordinates,Original*%
%TF.FileFunction,Legend,Top*%
%TF.FilePolarity,Positive*%
%FSLAX46Y46*%
G04 Gerber Fmt 4.6, Leading zero omitted, Abs format (unit mm)*
G04 Created by KiCad (PCBNEW 8.0.5) date 2025-01-04 11:00:39*
%MOMM*%
%LPD*%
G01*
G04 APERTURE LIST*
%ADD10C,0.100000*%
%ADD11C,0.075000*%
%ADD12C,0.150000*%
%ADD13C,0.120000*%
G04 APERTURE END LIST*
D10*
X93611503Y-43021704D02*
X93682931Y-43045514D01*
X93682931Y-43045514D02*
X93706741Y-43069323D01*
X93706741Y-43069323D02*
X93730550Y-43116942D01*
X93730550Y-43116942D02*
X93730550Y-43188371D01*
X93730550Y-43188371D02*
X93706741Y-43235990D01*
X93706741Y-43235990D02*
X93682931Y-43259800D01*
X93682931Y-43259800D02*
X93635312Y-43283609D01*
X93635312Y-43283609D02*
X93444836Y-43283609D01*
X93444836Y-43283609D02*
X93444836Y-42783609D01*
X93444836Y-42783609D02*
X93611503Y-42783609D01*
X93611503Y-42783609D02*
X93659122Y-42807419D01*
X93659122Y-42807419D02*
X93682931Y-42831228D01*
X93682931Y-42831228D02*
X93706741Y-42878847D01*
X93706741Y-42878847D02*
X93706741Y-42926466D01*
X93706741Y-42926466D02*
X93682931Y-42974085D01*
X93682931Y-42974085D02*
X93659122Y-42997895D01*
X93659122Y-42997895D02*
X93611503Y-43021704D01*
X93611503Y-43021704D02*
X93444836Y-43021704D01*
X94182931Y-42783609D02*
X93944836Y-42783609D01*
X93944836Y-42783609D02*
X93921027Y-43021704D01*
X93921027Y-43021704D02*
X93944836Y-42997895D01*
X93944836Y-42997895D02*
X93992455Y-42974085D01*
X93992455Y-42974085D02*
X94111503Y-42974085D01*
X94111503Y-42974085D02*
X94159122Y-42997895D01*
X94159122Y-42997895D02*
X94182931Y-43021704D01*
X94182931Y-43021704D02*
X94206741Y-43069323D01*
X94206741Y-43069323D02*
X94206741Y-43188371D01*
X94206741Y-43188371D02*
X94182931Y-43235990D01*
X94182931Y-43235990D02*
X94159122Y-43259800D01*
X94159122Y-43259800D02*
X94111503Y-43283609D01*
X94111503Y-43283609D02*
X93992455Y-43283609D01*
X93992455Y-43283609D02*
X93944836Y-43259800D01*
X93944836Y-43259800D02*
X93921027Y-43235990D01*
X75800550Y-43235990D02*
X75776741Y-43259800D01*
X75776741Y-43259800D02*
X75705312Y-43283609D01*
X75705312Y-43283609D02*
X75657693Y-43283609D01*
X75657693Y-43283609D02*
X75586265Y-43259800D01*
X75586265Y-43259800D02*
X75538646Y-43212180D01*
X75538646Y-43212180D02*
X75514836Y-43164561D01*
X75514836Y-43164561D02*
X75491027Y-43069323D01*
X75491027Y-43069323D02*
X75491027Y-42997895D01*
X75491027Y-42997895D02*
X75514836Y-42902657D01*
X75514836Y-42902657D02*
X75538646Y-42855038D01*
X75538646Y-42855038D02*
X75586265Y-42807419D01*
X75586265Y-42807419D02*
X75657693Y-42783609D01*
X75657693Y-42783609D02*
X75705312Y-42783609D01*
X75705312Y-42783609D02*
X75776741Y-42807419D01*
X75776741Y-42807419D02*
X75800550Y-42831228D01*
X76276741Y-43283609D02*
X75991027Y-43283609D01*
X76133884Y-43283609D02*
X76133884Y-42783609D01*
X76133884Y-42783609D02*
X76086265Y-42855038D01*
X76086265Y-42855038D02*
X76038646Y-42902657D01*
X76038646Y-42902657D02*
X75991027Y-42926466D01*
X76729121Y-42783609D02*
X76491026Y-42783609D01*
X76491026Y-42783609D02*
X76467217Y-43021704D01*
X76467217Y-43021704D02*
X76491026Y-42997895D01*
X76491026Y-42997895D02*
X76538645Y-42974085D01*
X76538645Y-42974085D02*
X76657693Y-42974085D01*
X76657693Y-42974085D02*
X76705312Y-42997895D01*
X76705312Y-42997895D02*
X76729121Y-43021704D01*
X76729121Y-43021704D02*
X76752931Y-43069323D01*
X76752931Y-43069323D02*
X76752931Y-43188371D01*
X76752931Y-43188371D02*
X76729121Y-43235990D01*
X76729121Y-43235990D02*
X76705312Y-43259800D01*
X76705312Y-43259800D02*
X76657693Y-43283609D01*
X76657693Y-43283609D02*
X76538645Y-43283609D01*
X76538645Y-43283609D02*
X76491026Y-43259800D01*
X76491026Y-43259800D02*
X76467217Y-43235990D01*
X101201027Y-76520752D02*
X101439122Y-76520752D01*
X101153408Y-76663609D02*
X101320074Y-76163609D01*
X101320074Y-76163609D02*
X101486741Y-76663609D01*
X101724836Y-76377895D02*
X101677217Y-76354085D01*
X101677217Y-76354085D02*
X101653407Y-76330276D01*
X101653407Y-76330276D02*
X101629598Y-76282657D01*
X101629598Y-76282657D02*
X101629598Y-76258847D01*
X101629598Y-76258847D02*
X101653407Y-76211228D01*
X101653407Y-76211228D02*
X101677217Y-76187419D01*
X101677217Y-76187419D02*
X101724836Y-76163609D01*
X101724836Y-76163609D02*
X101820074Y-76163609D01*
X101820074Y-76163609D02*
X101867693Y-76187419D01*
X101867693Y-76187419D02*
X101891502Y-76211228D01*
X101891502Y-76211228D02*
X101915312Y-76258847D01*
X101915312Y-76258847D02*
X101915312Y-76282657D01*
X101915312Y-76282657D02*
X101891502Y-76330276D01*
X101891502Y-76330276D02*
X101867693Y-76354085D01*
X101867693Y-76354085D02*
X101820074Y-76377895D01*
X101820074Y-76377895D02*
X101724836Y-76377895D01*
X101724836Y-76377895D02*
X101677217Y-76401704D01*
X101677217Y-76401704D02*
X101653407Y-76425514D01*
X101653407Y-76425514D02*
X101629598Y-76473133D01*
X101629598Y-76473133D02*
X101629598Y-76568371D01*
X101629598Y-76568371D02*
X101653407Y-76615990D01*
X101653407Y-76615990D02*
X101677217Y-76639800D01*
X101677217Y-76639800D02*
X101724836Y-76663609D01*
X101724836Y-76663609D02*
X101820074Y-76663609D01*
X101820074Y-76663609D02*
X101867693Y-76639800D01*
X101867693Y-76639800D02*
X101891502Y-76615990D01*
X101891502Y-76615990D02*
X101915312Y-76568371D01*
X101915312Y-76568371D02*
X101915312Y-76473133D01*
X101915312Y-76473133D02*
X101891502Y-76425514D01*
X101891502Y-76425514D02*
X101867693Y-76401704D01*
X101867693Y-76401704D02*
X101820074Y-76377895D01*
X85971503Y-43021704D02*
X86042931Y-43045514D01*
X86042931Y-43045514D02*
X86066741Y-43069323D01*
X86066741Y-43069323D02*
X86090550Y-43116942D01*
X86090550Y-43116942D02*
X86090550Y-43188371D01*
X86090550Y-43188371D02*
X86066741Y-43235990D01*
X86066741Y-43235990D02*
X86042931Y-43259800D01*
X86042931Y-43259800D02*
X85995312Y-43283609D01*
X85995312Y-43283609D02*
X85804836Y-43283609D01*
X85804836Y-43283609D02*
X85804836Y-42783609D01*
X85804836Y-42783609D02*
X85971503Y-42783609D01*
X85971503Y-42783609D02*
X86019122Y-42807419D01*
X86019122Y-42807419D02*
X86042931Y-42831228D01*
X86042931Y-42831228D02*
X86066741Y-42878847D01*
X86066741Y-42878847D02*
X86066741Y-42926466D01*
X86066741Y-42926466D02*
X86042931Y-42974085D01*
X86042931Y-42974085D02*
X86019122Y-42997895D01*
X86019122Y-42997895D02*
X85971503Y-43021704D01*
X85971503Y-43021704D02*
X85804836Y-43021704D01*
X86376265Y-42997895D02*
X86328646Y-42974085D01*
X86328646Y-42974085D02*
X86304836Y-42950276D01*
X86304836Y-42950276D02*
X86281027Y-42902657D01*
X86281027Y-42902657D02*
X86281027Y-42878847D01*
X86281027Y-42878847D02*
X86304836Y-42831228D01*
X86304836Y-42831228D02*
X86328646Y-42807419D01*
X86328646Y-42807419D02*
X86376265Y-42783609D01*
X86376265Y-42783609D02*
X86471503Y-42783609D01*
X86471503Y-42783609D02*
X86519122Y-42807419D01*
X86519122Y-42807419D02*
X86542931Y-42831228D01*
X86542931Y-42831228D02*
X86566741Y-42878847D01*
X86566741Y-42878847D02*
X86566741Y-42902657D01*
X86566741Y-42902657D02*
X86542931Y-42950276D01*
X86542931Y-42950276D02*
X86519122Y-42974085D01*
X86519122Y-42974085D02*
X86471503Y-42997895D01*
X86471503Y-42997895D02*
X86376265Y-42997895D01*
X86376265Y-42997895D02*
X86328646Y-43021704D01*
X86328646Y-43021704D02*
X86304836Y-43045514D01*
X86304836Y-43045514D02*
X86281027Y-43093133D01*
X86281027Y-43093133D02*
X86281027Y-43188371D01*
X86281027Y-43188371D02*
X86304836Y-43235990D01*
X86304836Y-43235990D02*
X86328646Y-43259800D01*
X86328646Y-43259800D02*
X86376265Y-43283609D01*
X86376265Y-43283609D02*
X86471503Y-43283609D01*
X86471503Y-43283609D02*
X86519122Y-43259800D01*
X86519122Y-43259800D02*
X86542931Y-43235990D01*
X86542931Y-43235990D02*
X86566741Y-43188371D01*
X86566741Y-43188371D02*
X86566741Y-43093133D01*
X86566741Y-43093133D02*
X86542931Y-43045514D01*
X86542931Y-43045514D02*
X86519122Y-43021704D01*
X86519122Y-43021704D02*
X86471503Y-42997895D01*
D11*
X115519385Y-68767800D02*
X115519385Y-68582086D01*
X115519385Y-68582086D02*
X115633671Y-68682086D01*
X115633671Y-68682086D02*
X115633671Y-68639229D01*
X115633671Y-68639229D02*
X115647957Y-68610658D01*
X115647957Y-68610658D02*
X115662242Y-68596372D01*
X115662242Y-68596372D02*
X115690814Y-68582086D01*
X115690814Y-68582086D02*
X115762242Y-68582086D01*
X115762242Y-68582086D02*
X115790814Y-68596372D01*
X115790814Y-68596372D02*
X115805100Y-68610658D01*
X115805100Y-68610658D02*
X115819385Y-68639229D01*
X115819385Y-68639229D02*
X115819385Y-68724943D01*
X115819385Y-68724943D02*
X115805100Y-68753515D01*
X115805100Y-68753515D02*
X115790814Y-68767800D01*
X115519385Y-68496372D02*
X115819385Y-68396372D01*
X115819385Y-68396372D02*
X115519385Y-68296372D01*
X115519385Y-68224943D02*
X115519385Y-68039229D01*
X115519385Y-68039229D02*
X115633671Y-68139229D01*
X115633671Y-68139229D02*
X115633671Y-68096372D01*
X115633671Y-68096372D02*
X115647957Y-68067801D01*
X115647957Y-68067801D02*
X115662242Y-68053515D01*
X115662242Y-68053515D02*
X115690814Y-68039229D01*
X115690814Y-68039229D02*
X115762242Y-68039229D01*
X115762242Y-68039229D02*
X115790814Y-68053515D01*
X115790814Y-68053515D02*
X115805100Y-68067801D01*
X115805100Y-68067801D02*
X115819385Y-68096372D01*
X115819385Y-68096372D02*
X115819385Y-68182086D01*
X115819385Y-68182086D02*
X115805100Y-68210658D01*
X115805100Y-68210658D02*
X115790814Y-68224943D01*
D10*
X106051027Y-76520752D02*
X106289122Y-76520752D01*
X106003408Y-76663609D02*
X106170074Y-76163609D01*
X106170074Y-76163609D02*
X106336741Y-76663609D01*
X106765312Y-76663609D02*
X106479598Y-76663609D01*
X106622455Y-76663609D02*
X106622455Y-76163609D01*
X106622455Y-76163609D02*
X106574836Y-76235038D01*
X106574836Y-76235038D02*
X106527217Y-76282657D01*
X106527217Y-76282657D02*
X106479598Y-76306466D01*
X107074835Y-76163609D02*
X107122454Y-76163609D01*
X107122454Y-76163609D02*
X107170073Y-76187419D01*
X107170073Y-76187419D02*
X107193883Y-76211228D01*
X107193883Y-76211228D02*
X107217692Y-76258847D01*
X107217692Y-76258847D02*
X107241502Y-76354085D01*
X107241502Y-76354085D02*
X107241502Y-76473133D01*
X107241502Y-76473133D02*
X107217692Y-76568371D01*
X107217692Y-76568371D02*
X107193883Y-76615990D01*
X107193883Y-76615990D02*
X107170073Y-76639800D01*
X107170073Y-76639800D02*
X107122454Y-76663609D01*
X107122454Y-76663609D02*
X107074835Y-76663609D01*
X107074835Y-76663609D02*
X107027216Y-76639800D01*
X107027216Y-76639800D02*
X107003407Y-76615990D01*
X107003407Y-76615990D02*
X106979597Y-76568371D01*
X106979597Y-76568371D02*
X106955788Y-76473133D01*
X106955788Y-76473133D02*
X106955788Y-76354085D01*
X106955788Y-76354085D02*
X106979597Y-76258847D01*
X106979597Y-76258847D02*
X107003407Y-76211228D01*
X107003407Y-76211228D02*
X107027216Y-76187419D01*
X107027216Y-76187419D02*
X107074835Y-76163609D01*
X93561503Y-76401704D02*
X93632931Y-76425514D01*
X93632931Y-76425514D02*
X93656741Y-76449323D01*
X93656741Y-76449323D02*
X93680550Y-76496942D01*
X93680550Y-76496942D02*
X93680550Y-76568371D01*
X93680550Y-76568371D02*
X93656741Y-76615990D01*
X93656741Y-76615990D02*
X93632931Y-76639800D01*
X93632931Y-76639800D02*
X93585312Y-76663609D01*
X93585312Y-76663609D02*
X93394836Y-76663609D01*
X93394836Y-76663609D02*
X93394836Y-76163609D01*
X93394836Y-76163609D02*
X93561503Y-76163609D01*
X93561503Y-76163609D02*
X93609122Y-76187419D01*
X93609122Y-76187419D02*
X93632931Y-76211228D01*
X93632931Y-76211228D02*
X93656741Y-76258847D01*
X93656741Y-76258847D02*
X93656741Y-76306466D01*
X93656741Y-76306466D02*
X93632931Y-76354085D01*
X93632931Y-76354085D02*
X93609122Y-76377895D01*
X93609122Y-76377895D02*
X93561503Y-76401704D01*
X93561503Y-76401704D02*
X93394836Y-76401704D01*
X93871027Y-76211228D02*
X93894836Y-76187419D01*
X93894836Y-76187419D02*
X93942455Y-76163609D01*
X93942455Y-76163609D02*
X94061503Y-76163609D01*
X94061503Y-76163609D02*
X94109122Y-76187419D01*
X94109122Y-76187419D02*
X94132931Y-76211228D01*
X94132931Y-76211228D02*
X94156741Y-76258847D01*
X94156741Y-76258847D02*
X94156741Y-76306466D01*
X94156741Y-76306466D02*
X94132931Y-76377895D01*
X94132931Y-76377895D02*
X93847217Y-76663609D01*
X93847217Y-76663609D02*
X94156741Y-76663609D01*
X73307217Y-42783609D02*
X73640550Y-43283609D01*
X73640550Y-42783609D02*
X73307217Y-43283609D01*
X95971503Y-76401704D02*
X96042931Y-76425514D01*
X96042931Y-76425514D02*
X96066741Y-76449323D01*
X96066741Y-76449323D02*
X96090550Y-76496942D01*
X96090550Y-76496942D02*
X96090550Y-76568371D01*
X96090550Y-76568371D02*
X96066741Y-76615990D01*
X96066741Y-76615990D02*
X96042931Y-76639800D01*
X96042931Y-76639800D02*
X95995312Y-76663609D01*
X95995312Y-76663609D02*
X95804836Y-76663609D01*
X95804836Y-76663609D02*
X95804836Y-76163609D01*
X95804836Y-76163609D02*
X95971503Y-76163609D01*
X95971503Y-76163609D02*
X96019122Y-76187419D01*
X96019122Y-76187419D02*
X96042931Y-76211228D01*
X96042931Y-76211228D02*
X96066741Y-76258847D01*
X96066741Y-76258847D02*
X96066741Y-76306466D01*
X96066741Y-76306466D02*
X96042931Y-76354085D01*
X96042931Y-76354085D02*
X96019122Y-76377895D01*
X96019122Y-76377895D02*
X95971503Y-76401704D01*
X95971503Y-76401704D02*
X95804836Y-76401704D01*
X96566741Y-76663609D02*
X96281027Y-76663609D01*
X96423884Y-76663609D02*
X96423884Y-76163609D01*
X96423884Y-76163609D02*
X96376265Y-76235038D01*
X96376265Y-76235038D02*
X96328646Y-76282657D01*
X96328646Y-76282657D02*
X96281027Y-76306466D01*
X96876264Y-76163609D02*
X96923883Y-76163609D01*
X96923883Y-76163609D02*
X96971502Y-76187419D01*
X96971502Y-76187419D02*
X96995312Y-76211228D01*
X96995312Y-76211228D02*
X97019121Y-76258847D01*
X97019121Y-76258847D02*
X97042931Y-76354085D01*
X97042931Y-76354085D02*
X97042931Y-76473133D01*
X97042931Y-76473133D02*
X97019121Y-76568371D01*
X97019121Y-76568371D02*
X96995312Y-76615990D01*
X96995312Y-76615990D02*
X96971502Y-76639800D01*
X96971502Y-76639800D02*
X96923883Y-76663609D01*
X96923883Y-76663609D02*
X96876264Y-76663609D01*
X96876264Y-76663609D02*
X96828645Y-76639800D01*
X96828645Y-76639800D02*
X96804836Y-76615990D01*
X96804836Y-76615990D02*
X96781026Y-76568371D01*
X96781026Y-76568371D02*
X96757217Y-76473133D01*
X96757217Y-76473133D02*
X96757217Y-76354085D01*
X96757217Y-76354085D02*
X96781026Y-76258847D01*
X96781026Y-76258847D02*
X96804836Y-76211228D01*
X96804836Y-76211228D02*
X96828645Y-76187419D01*
X96828645Y-76187419D02*
X96876264Y-76163609D01*
D11*
X103482199Y-52219385D02*
X103667913Y-52219385D01*
X103667913Y-52219385D02*
X103567913Y-52333671D01*
X103567913Y-52333671D02*
X103610770Y-52333671D01*
X103610770Y-52333671D02*
X103639342Y-52347957D01*
X103639342Y-52347957D02*
X103653627Y-52362242D01*
X103653627Y-52362242D02*
X103667913Y-52390814D01*
X103667913Y-52390814D02*
X103667913Y-52462242D01*
X103667913Y-52462242D02*
X103653627Y-52490814D01*
X103653627Y-52490814D02*
X103639342Y-52505100D01*
X103639342Y-52505100D02*
X103610770Y-52519385D01*
X103610770Y-52519385D02*
X103525056Y-52519385D01*
X103525056Y-52519385D02*
X103496484Y-52505100D01*
X103496484Y-52505100D02*
X103482199Y-52490814D01*
X103753627Y-52219385D02*
X103853627Y-52519385D01*
X103853627Y-52519385D02*
X103953627Y-52219385D01*
X104025056Y-52219385D02*
X104210770Y-52219385D01*
X104210770Y-52219385D02*
X104110770Y-52333671D01*
X104110770Y-52333671D02*
X104153627Y-52333671D01*
X104153627Y-52333671D02*
X104182199Y-52347957D01*
X104182199Y-52347957D02*
X104196484Y-52362242D01*
X104196484Y-52362242D02*
X104210770Y-52390814D01*
X104210770Y-52390814D02*
X104210770Y-52462242D01*
X104210770Y-52462242D02*
X104196484Y-52490814D01*
X104196484Y-52490814D02*
X104182199Y-52505100D01*
X104182199Y-52505100D02*
X104153627Y-52519385D01*
X104153627Y-52519385D02*
X104067913Y-52519385D01*
X104067913Y-52519385D02*
X104039341Y-52505100D01*
X104039341Y-52505100D02*
X104025056Y-52490814D01*
D10*
X88551503Y-43021704D02*
X88622931Y-43045514D01*
X88622931Y-43045514D02*
X88646741Y-43069323D01*
X88646741Y-43069323D02*
X88670550Y-43116942D01*
X88670550Y-43116942D02*
X88670550Y-43188371D01*
X88670550Y-43188371D02*
X88646741Y-43235990D01*
X88646741Y-43235990D02*
X88622931Y-43259800D01*
X88622931Y-43259800D02*
X88575312Y-43283609D01*
X88575312Y-43283609D02*
X88384836Y-43283609D01*
X88384836Y-43283609D02*
X88384836Y-42783609D01*
X88384836Y-42783609D02*
X88551503Y-42783609D01*
X88551503Y-42783609D02*
X88599122Y-42807419D01*
X88599122Y-42807419D02*
X88622931Y-42831228D01*
X88622931Y-42831228D02*
X88646741Y-42878847D01*
X88646741Y-42878847D02*
X88646741Y-42926466D01*
X88646741Y-42926466D02*
X88622931Y-42974085D01*
X88622931Y-42974085D02*
X88599122Y-42997895D01*
X88599122Y-42997895D02*
X88551503Y-43021704D01*
X88551503Y-43021704D02*
X88384836Y-43021704D01*
X88837217Y-42783609D02*
X89170550Y-42783609D01*
X89170550Y-42783609D02*
X88956265Y-43283609D01*
X80860550Y-43235990D02*
X80836741Y-43259800D01*
X80836741Y-43259800D02*
X80765312Y-43283609D01*
X80765312Y-43283609D02*
X80717693Y-43283609D01*
X80717693Y-43283609D02*
X80646265Y-43259800D01*
X80646265Y-43259800D02*
X80598646Y-43212180D01*
X80598646Y-43212180D02*
X80574836Y-43164561D01*
X80574836Y-43164561D02*
X80551027Y-43069323D01*
X80551027Y-43069323D02*
X80551027Y-42997895D01*
X80551027Y-42997895D02*
X80574836Y-42902657D01*
X80574836Y-42902657D02*
X80598646Y-42855038D01*
X80598646Y-42855038D02*
X80646265Y-42807419D01*
X80646265Y-42807419D02*
X80717693Y-42783609D01*
X80717693Y-42783609D02*
X80765312Y-42783609D01*
X80765312Y-42783609D02*
X80836741Y-42807419D01*
X80836741Y-42807419D02*
X80860550Y-42831228D01*
X81336741Y-43283609D02*
X81051027Y-43283609D01*
X81193884Y-43283609D02*
X81193884Y-42783609D01*
X81193884Y-42783609D02*
X81146265Y-42855038D01*
X81146265Y-42855038D02*
X81098646Y-42902657D01*
X81098646Y-42902657D02*
X81051027Y-42926466D01*
X81503407Y-42783609D02*
X81812931Y-42783609D01*
X81812931Y-42783609D02*
X81646264Y-42974085D01*
X81646264Y-42974085D02*
X81717693Y-42974085D01*
X81717693Y-42974085D02*
X81765312Y-42997895D01*
X81765312Y-42997895D02*
X81789121Y-43021704D01*
X81789121Y-43021704D02*
X81812931Y-43069323D01*
X81812931Y-43069323D02*
X81812931Y-43188371D01*
X81812931Y-43188371D02*
X81789121Y-43235990D01*
X81789121Y-43235990D02*
X81765312Y-43259800D01*
X81765312Y-43259800D02*
X81717693Y-43283609D01*
X81717693Y-43283609D02*
X81574836Y-43283609D01*
X81574836Y-43283609D02*
X81527217Y-43259800D01*
X81527217Y-43259800D02*
X81503407Y-43235990D01*
X78380550Y-43235990D02*
X78356741Y-43259800D01*
X78356741Y-43259800D02*
X78285312Y-43283609D01*
X78285312Y-43283609D02*
X78237693Y-43283609D01*
X78237693Y-43283609D02*
X78166265Y-43259800D01*
X78166265Y-43259800D02*
X78118646Y-43212180D01*
X78118646Y-43212180D02*
X78094836Y-43164561D01*
X78094836Y-43164561D02*
X78071027Y-43069323D01*
X78071027Y-43069323D02*
X78071027Y-42997895D01*
X78071027Y-42997895D02*
X78094836Y-42902657D01*
X78094836Y-42902657D02*
X78118646Y-42855038D01*
X78118646Y-42855038D02*
X78166265Y-42807419D01*
X78166265Y-42807419D02*
X78237693Y-42783609D01*
X78237693Y-42783609D02*
X78285312Y-42783609D01*
X78285312Y-42783609D02*
X78356741Y-42807419D01*
X78356741Y-42807419D02*
X78380550Y-42831228D01*
X78856741Y-43283609D02*
X78571027Y-43283609D01*
X78713884Y-43283609D02*
X78713884Y-42783609D01*
X78713884Y-42783609D02*
X78666265Y-42855038D01*
X78666265Y-42855038D02*
X78618646Y-42902657D01*
X78618646Y-42902657D02*
X78571027Y-42926466D01*
X79285312Y-42950276D02*
X79285312Y-43283609D01*
X79166264Y-42759800D02*
X79047217Y-43116942D01*
X79047217Y-43116942D02*
X79356740Y-43116942D01*
X106217217Y-42783609D02*
X106550550Y-43283609D01*
X106550550Y-42783609D02*
X106217217Y-43283609D01*
X73227217Y-76163609D02*
X73560550Y-76663609D01*
X73560550Y-76163609D02*
X73227217Y-76663609D01*
X83671503Y-43021704D02*
X83742931Y-43045514D01*
X83742931Y-43045514D02*
X83766741Y-43069323D01*
X83766741Y-43069323D02*
X83790550Y-43116942D01*
X83790550Y-43116942D02*
X83790550Y-43188371D01*
X83790550Y-43188371D02*
X83766741Y-43235990D01*
X83766741Y-43235990D02*
X83742931Y-43259800D01*
X83742931Y-43259800D02*
X83695312Y-43283609D01*
X83695312Y-43283609D02*
X83504836Y-43283609D01*
X83504836Y-43283609D02*
X83504836Y-42783609D01*
X83504836Y-42783609D02*
X83671503Y-42783609D01*
X83671503Y-42783609D02*
X83719122Y-42807419D01*
X83719122Y-42807419D02*
X83742931Y-42831228D01*
X83742931Y-42831228D02*
X83766741Y-42878847D01*
X83766741Y-42878847D02*
X83766741Y-42926466D01*
X83766741Y-42926466D02*
X83742931Y-42974085D01*
X83742931Y-42974085D02*
X83719122Y-42997895D01*
X83719122Y-42997895D02*
X83671503Y-43021704D01*
X83671503Y-43021704D02*
X83504836Y-43021704D01*
X84028646Y-43283609D02*
X84123884Y-43283609D01*
X84123884Y-43283609D02*
X84171503Y-43259800D01*
X84171503Y-43259800D02*
X84195312Y-43235990D01*
X84195312Y-43235990D02*
X84242931Y-43164561D01*
X84242931Y-43164561D02*
X84266741Y-43069323D01*
X84266741Y-43069323D02*
X84266741Y-42878847D01*
X84266741Y-42878847D02*
X84242931Y-42831228D01*
X84242931Y-42831228D02*
X84219122Y-42807419D01*
X84219122Y-42807419D02*
X84171503Y-42783609D01*
X84171503Y-42783609D02*
X84076265Y-42783609D01*
X84076265Y-42783609D02*
X84028646Y-42807419D01*
X84028646Y-42807419D02*
X84004836Y-42831228D01*
X84004836Y-42831228D02*
X83981027Y-42878847D01*
X83981027Y-42878847D02*
X83981027Y-42997895D01*
X83981027Y-42997895D02*
X84004836Y-43045514D01*
X84004836Y-43045514D02*
X84028646Y-43069323D01*
X84028646Y-43069323D02*
X84076265Y-43093133D01*
X84076265Y-43093133D02*
X84171503Y-43093133D01*
X84171503Y-43093133D02*
X84219122Y-43069323D01*
X84219122Y-43069323D02*
X84242931Y-43045514D01*
X84242931Y-43045514D02*
X84266741Y-42997895D01*
X103741027Y-76520752D02*
X103979122Y-76520752D01*
X103693408Y-76663609D02*
X103860074Y-76163609D01*
X103860074Y-76163609D02*
X104026741Y-76663609D01*
X104217217Y-76663609D02*
X104312455Y-76663609D01*
X104312455Y-76663609D02*
X104360074Y-76639800D01*
X104360074Y-76639800D02*
X104383883Y-76615990D01*
X104383883Y-76615990D02*
X104431502Y-76544561D01*
X104431502Y-76544561D02*
X104455312Y-76449323D01*
X104455312Y-76449323D02*
X104455312Y-76258847D01*
X104455312Y-76258847D02*
X104431502Y-76211228D01*
X104431502Y-76211228D02*
X104407693Y-76187419D01*
X104407693Y-76187419D02*
X104360074Y-76163609D01*
X104360074Y-76163609D02*
X104264836Y-76163609D01*
X104264836Y-76163609D02*
X104217217Y-76187419D01*
X104217217Y-76187419D02*
X104193407Y-76211228D01*
X104193407Y-76211228D02*
X104169598Y-76258847D01*
X104169598Y-76258847D02*
X104169598Y-76377895D01*
X104169598Y-76377895D02*
X104193407Y-76425514D01*
X104193407Y-76425514D02*
X104217217Y-76449323D01*
X104217217Y-76449323D02*
X104264836Y-76473133D01*
X104264836Y-76473133D02*
X104360074Y-76473133D01*
X104360074Y-76473133D02*
X104407693Y-76449323D01*
X104407693Y-76449323D02*
X104431502Y-76425514D01*
X104431502Y-76425514D02*
X104455312Y-76377895D01*
X88651503Y-76401704D02*
X88722931Y-76425514D01*
X88722931Y-76425514D02*
X88746741Y-76449323D01*
X88746741Y-76449323D02*
X88770550Y-76496942D01*
X88770550Y-76496942D02*
X88770550Y-76568371D01*
X88770550Y-76568371D02*
X88746741Y-76615990D01*
X88746741Y-76615990D02*
X88722931Y-76639800D01*
X88722931Y-76639800D02*
X88675312Y-76663609D01*
X88675312Y-76663609D02*
X88484836Y-76663609D01*
X88484836Y-76663609D02*
X88484836Y-76163609D01*
X88484836Y-76163609D02*
X88651503Y-76163609D01*
X88651503Y-76163609D02*
X88699122Y-76187419D01*
X88699122Y-76187419D02*
X88722931Y-76211228D01*
X88722931Y-76211228D02*
X88746741Y-76258847D01*
X88746741Y-76258847D02*
X88746741Y-76306466D01*
X88746741Y-76306466D02*
X88722931Y-76354085D01*
X88722931Y-76354085D02*
X88699122Y-76377895D01*
X88699122Y-76377895D02*
X88651503Y-76401704D01*
X88651503Y-76401704D02*
X88484836Y-76401704D01*
X89080074Y-76163609D02*
X89127693Y-76163609D01*
X89127693Y-76163609D02*
X89175312Y-76187419D01*
X89175312Y-76187419D02*
X89199122Y-76211228D01*
X89199122Y-76211228D02*
X89222931Y-76258847D01*
X89222931Y-76258847D02*
X89246741Y-76354085D01*
X89246741Y-76354085D02*
X89246741Y-76473133D01*
X89246741Y-76473133D02*
X89222931Y-76568371D01*
X89222931Y-76568371D02*
X89199122Y-76615990D01*
X89199122Y-76615990D02*
X89175312Y-76639800D01*
X89175312Y-76639800D02*
X89127693Y-76663609D01*
X89127693Y-76663609D02*
X89080074Y-76663609D01*
X89080074Y-76663609D02*
X89032455Y-76639800D01*
X89032455Y-76639800D02*
X89008646Y-76615990D01*
X89008646Y-76615990D02*
X88984836Y-76568371D01*
X88984836Y-76568371D02*
X88961027Y-76473133D01*
X88961027Y-76473133D02*
X88961027Y-76354085D01*
X88961027Y-76354085D02*
X88984836Y-76258847D01*
X88984836Y-76258847D02*
X89008646Y-76211228D01*
X89008646Y-76211228D02*
X89032455Y-76187419D01*
X89032455Y-76187419D02*
X89080074Y-76163609D01*
D11*
X115549385Y-52167800D02*
X115549385Y-51982086D01*
X115549385Y-51982086D02*
X115663671Y-52082086D01*
X115663671Y-52082086D02*
X115663671Y-52039229D01*
X115663671Y-52039229D02*
X115677957Y-52010658D01*
X115677957Y-52010658D02*
X115692242Y-51996372D01*
X115692242Y-51996372D02*
X115720814Y-51982086D01*
X115720814Y-51982086D02*
X115792242Y-51982086D01*
X115792242Y-51982086D02*
X115820814Y-51996372D01*
X115820814Y-51996372D02*
X115835100Y-52010658D01*
X115835100Y-52010658D02*
X115849385Y-52039229D01*
X115849385Y-52039229D02*
X115849385Y-52124943D01*
X115849385Y-52124943D02*
X115835100Y-52153515D01*
X115835100Y-52153515D02*
X115820814Y-52167800D01*
X115549385Y-51896372D02*
X115849385Y-51796372D01*
X115849385Y-51796372D02*
X115549385Y-51696372D01*
X115549385Y-51624943D02*
X115549385Y-51439229D01*
X115549385Y-51439229D02*
X115663671Y-51539229D01*
X115663671Y-51539229D02*
X115663671Y-51496372D01*
X115663671Y-51496372D02*
X115677957Y-51467801D01*
X115677957Y-51467801D02*
X115692242Y-51453515D01*
X115692242Y-51453515D02*
X115720814Y-51439229D01*
X115720814Y-51439229D02*
X115792242Y-51439229D01*
X115792242Y-51439229D02*
X115820814Y-51453515D01*
X115820814Y-51453515D02*
X115835100Y-51467801D01*
X115835100Y-51467801D02*
X115849385Y-51496372D01*
X115849385Y-51496372D02*
X115849385Y-51582086D01*
X115849385Y-51582086D02*
X115835100Y-51610658D01*
X115835100Y-51610658D02*
X115820814Y-51624943D01*
D10*
X85921027Y-76520752D02*
X86159122Y-76520752D01*
X85873408Y-76663609D02*
X86040074Y-76163609D01*
X86040074Y-76163609D02*
X86206741Y-76663609D01*
X86325788Y-76163609D02*
X86659121Y-76163609D01*
X86659121Y-76163609D02*
X86444836Y-76663609D01*
X111274836Y-43093133D02*
X111655789Y-43093133D01*
X111465312Y-43283609D02*
X111465312Y-42902657D01*
X98481503Y-76401704D02*
X98552931Y-76425514D01*
X98552931Y-76425514D02*
X98576741Y-76449323D01*
X98576741Y-76449323D02*
X98600550Y-76496942D01*
X98600550Y-76496942D02*
X98600550Y-76568371D01*
X98600550Y-76568371D02*
X98576741Y-76615990D01*
X98576741Y-76615990D02*
X98552931Y-76639800D01*
X98552931Y-76639800D02*
X98505312Y-76663609D01*
X98505312Y-76663609D02*
X98314836Y-76663609D01*
X98314836Y-76663609D02*
X98314836Y-76163609D01*
X98314836Y-76163609D02*
X98481503Y-76163609D01*
X98481503Y-76163609D02*
X98529122Y-76187419D01*
X98529122Y-76187419D02*
X98552931Y-76211228D01*
X98552931Y-76211228D02*
X98576741Y-76258847D01*
X98576741Y-76258847D02*
X98576741Y-76306466D01*
X98576741Y-76306466D02*
X98552931Y-76354085D01*
X98552931Y-76354085D02*
X98529122Y-76377895D01*
X98529122Y-76377895D02*
X98481503Y-76401704D01*
X98481503Y-76401704D02*
X98314836Y-76401704D01*
X99076741Y-76663609D02*
X98791027Y-76663609D01*
X98933884Y-76663609D02*
X98933884Y-76163609D01*
X98933884Y-76163609D02*
X98886265Y-76235038D01*
X98886265Y-76235038D02*
X98838646Y-76282657D01*
X98838646Y-76282657D02*
X98791027Y-76306466D01*
X99552931Y-76663609D02*
X99267217Y-76663609D01*
X99410074Y-76663609D02*
X99410074Y-76163609D01*
X99410074Y-76163609D02*
X99362455Y-76235038D01*
X99362455Y-76235038D02*
X99314836Y-76282657D01*
X99314836Y-76282657D02*
X99267217Y-76306466D01*
X91091503Y-76401704D02*
X91162931Y-76425514D01*
X91162931Y-76425514D02*
X91186741Y-76449323D01*
X91186741Y-76449323D02*
X91210550Y-76496942D01*
X91210550Y-76496942D02*
X91210550Y-76568371D01*
X91210550Y-76568371D02*
X91186741Y-76615990D01*
X91186741Y-76615990D02*
X91162931Y-76639800D01*
X91162931Y-76639800D02*
X91115312Y-76663609D01*
X91115312Y-76663609D02*
X90924836Y-76663609D01*
X90924836Y-76663609D02*
X90924836Y-76163609D01*
X90924836Y-76163609D02*
X91091503Y-76163609D01*
X91091503Y-76163609D02*
X91139122Y-76187419D01*
X91139122Y-76187419D02*
X91162931Y-76211228D01*
X91162931Y-76211228D02*
X91186741Y-76258847D01*
X91186741Y-76258847D02*
X91186741Y-76306466D01*
X91186741Y-76306466D02*
X91162931Y-76354085D01*
X91162931Y-76354085D02*
X91139122Y-76377895D01*
X91139122Y-76377895D02*
X91091503Y-76401704D01*
X91091503Y-76401704D02*
X90924836Y-76401704D01*
X91686741Y-76663609D02*
X91401027Y-76663609D01*
X91543884Y-76663609D02*
X91543884Y-76163609D01*
X91543884Y-76163609D02*
X91496265Y-76235038D01*
X91496265Y-76235038D02*
X91448646Y-76282657D01*
X91448646Y-76282657D02*
X91401027Y-76306466D01*
D11*
X111399385Y-47717800D02*
X111399385Y-47532086D01*
X111399385Y-47532086D02*
X111513671Y-47632086D01*
X111513671Y-47632086D02*
X111513671Y-47589229D01*
X111513671Y-47589229D02*
X111527957Y-47560658D01*
X111527957Y-47560658D02*
X111542242Y-47546372D01*
X111542242Y-47546372D02*
X111570814Y-47532086D01*
X111570814Y-47532086D02*
X111642242Y-47532086D01*
X111642242Y-47532086D02*
X111670814Y-47546372D01*
X111670814Y-47546372D02*
X111685100Y-47560658D01*
X111685100Y-47560658D02*
X111699385Y-47589229D01*
X111699385Y-47589229D02*
X111699385Y-47674943D01*
X111699385Y-47674943D02*
X111685100Y-47703515D01*
X111685100Y-47703515D02*
X111670814Y-47717800D01*
X111399385Y-47446372D02*
X111699385Y-47346372D01*
X111699385Y-47346372D02*
X111399385Y-47246372D01*
X111399385Y-47174943D02*
X111399385Y-46989229D01*
X111399385Y-46989229D02*
X111513671Y-47089229D01*
X111513671Y-47089229D02*
X111513671Y-47046372D01*
X111513671Y-47046372D02*
X111527957Y-47017801D01*
X111527957Y-47017801D02*
X111542242Y-47003515D01*
X111542242Y-47003515D02*
X111570814Y-46989229D01*
X111570814Y-46989229D02*
X111642242Y-46989229D01*
X111642242Y-46989229D02*
X111670814Y-47003515D01*
X111670814Y-47003515D02*
X111685100Y-47017801D01*
X111685100Y-47017801D02*
X111699385Y-47046372D01*
X111699385Y-47046372D02*
X111699385Y-47132086D01*
X111699385Y-47132086D02*
X111685100Y-47160658D01*
X111685100Y-47160658D02*
X111670814Y-47174943D01*
D10*
X108964836Y-76473133D02*
X109345789Y-76473133D01*
G36*
X118723065Y-64169929D02*
G01*
X118756600Y-64203465D01*
X118795312Y-64280888D01*
X118795312Y-64400138D01*
X118756600Y-64477561D01*
X118720454Y-64513708D01*
X118643033Y-64552419D01*
X118323884Y-64552419D01*
X118323884Y-64128609D01*
X118599104Y-64128609D01*
X118723065Y-64169929D01*
G37*
G36*
X118672837Y-63691130D02*
G01*
X118708981Y-63727275D01*
X118747693Y-63804698D01*
X118747693Y-63876329D01*
X118708981Y-63953752D01*
X118672837Y-63989897D01*
X118595414Y-64028609D01*
X118323884Y-64028609D01*
X118323884Y-63652419D01*
X118595414Y-63652419D01*
X118672837Y-63691130D01*
G37*
G36*
X119006423Y-64763530D02*
G01*
X116112773Y-64763530D01*
X116112773Y-63602419D01*
X116223884Y-63602419D01*
X116223884Y-64411942D01*
X116224372Y-64414398D01*
X116224010Y-64415487D01*
X116226126Y-64423214D01*
X116227690Y-64431076D01*
X116228501Y-64431887D01*
X116229163Y-64434303D01*
X116276781Y-64529540D01*
X116281692Y-64535868D01*
X116286147Y-64542535D01*
X116333766Y-64590155D01*
X116340432Y-64594609D01*
X116346761Y-64599521D01*
X116441999Y-64647140D01*
X116444414Y-64647801D01*
X116445226Y-64648613D01*
X116453087Y-64650176D01*
X116460815Y-64652293D01*
X116461903Y-64651930D01*
X116464360Y-64652419D01*
X116654836Y-64652419D01*
X116657292Y-64651930D01*
X116658381Y-64652293D01*
X116666108Y-64650176D01*
X116673970Y-64648613D01*
X116674781Y-64647801D01*
X116677197Y-64647140D01*
X116772434Y-64599522D01*
X116778761Y-64594611D01*
X116785430Y-64590155D01*
X116833049Y-64542535D01*
X116837502Y-64535869D01*
X116842414Y-64529541D01*
X116890033Y-64434303D01*
X116890694Y-64431887D01*
X116891506Y-64431076D01*
X116893069Y-64423214D01*
X116895186Y-64415487D01*
X116894823Y-64414398D01*
X116895312Y-64411942D01*
X116895312Y-63792895D01*
X117223884Y-63792895D01*
X117223884Y-63888133D01*
X117224372Y-63890589D01*
X117224010Y-63891678D01*
X117226126Y-63899405D01*
X117227690Y-63907267D01*
X117228501Y-63908078D01*
X117229163Y-63910494D01*
X117276781Y-64005731D01*
X117281696Y-64012064D01*
X117286148Y-64018726D01*
X117333766Y-64066345D01*
X117340432Y-64070799D01*
X117346761Y-64075711D01*
X117441999Y-64123330D01*
X117447280Y-64124776D01*
X117452233Y-64127116D01*
X117637385Y-64173404D01*
X117720456Y-64214939D01*
X117756600Y-64251084D01*
X117795312Y-64328507D01*
X117795312Y-64400138D01*
X117756600Y-64477561D01*
X117720454Y-64513708D01*
X117643033Y-64552419D01*
X117424854Y-64552419D01*
X117289695Y-64507366D01*
X117270340Y-64504926D01*
X117236111Y-64522040D01*
X117224010Y-64558344D01*
X117241124Y-64592573D01*
X117258073Y-64602234D01*
X117400929Y-64649853D01*
X117408879Y-64650855D01*
X117416741Y-64652419D01*
X117654836Y-64652419D01*
X117657292Y-64651930D01*
X117658381Y-64652293D01*
X117666108Y-64650176D01*
X117673970Y-64648613D01*
X117674781Y-64647801D01*
X117677197Y-64647140D01*
X117772434Y-64599522D01*
X117778761Y-64594611D01*
X117785430Y-64590155D01*
X117833049Y-64542535D01*
X117837502Y-64535869D01*
X117842414Y-64529541D01*
X117890033Y-64434303D01*
X117890694Y-64431887D01*
X117891506Y-64431076D01*
X117893069Y-64423214D01*
X117895186Y-64415487D01*
X117894823Y-64414398D01*
X117895312Y-64411942D01*
X117895312Y-64316704D01*
X117894823Y-64314247D01*
X117895186Y-64313159D01*
X117893069Y-64305431D01*
X117891506Y-64297570D01*
X117890694Y-64296758D01*
X117890033Y-64294343D01*
X117842414Y-64199105D01*
X117837502Y-64192776D01*
X117833048Y-64186110D01*
X117785429Y-64138492D01*
X117778767Y-64134040D01*
X117772434Y-64129125D01*
X117677197Y-64081507D01*
X117671915Y-64080060D01*
X117666963Y-64077721D01*
X117481812Y-64031433D01*
X117398740Y-63989897D01*
X117362595Y-63953753D01*
X117323884Y-63876330D01*
X117323884Y-63804698D01*
X117362595Y-63727274D01*
X117398740Y-63691130D01*
X117476164Y-63652419D01*
X117694342Y-63652419D01*
X117829500Y-63697472D01*
X117848856Y-63699912D01*
X117883084Y-63682798D01*
X117895186Y-63646494D01*
X117878071Y-63612265D01*
X117861123Y-63602604D01*
X117860568Y-63602419D01*
X118223884Y-63602419D01*
X118223884Y-64602419D01*
X118227690Y-64621553D01*
X118254750Y-64648613D01*
X118273884Y-64652419D01*
X118654836Y-64652419D01*
X118657292Y-64651930D01*
X118658381Y-64652293D01*
X118666108Y-64650176D01*
X118673970Y-64648613D01*
X118674781Y-64647801D01*
X118677197Y-64647140D01*
X118772434Y-64599522D01*
X118778761Y-64594611D01*
X118785430Y-64590155D01*
X118833049Y-64542535D01*
X118837502Y-64535869D01*
X118842414Y-64529541D01*
X118890033Y-64434303D01*
X118890694Y-64431887D01*
X118891506Y-64431076D01*
X118893069Y-64423214D01*
X118895186Y-64415487D01*
X118894823Y-64414398D01*
X118895312Y-64411942D01*
X118895312Y-64269085D01*
X118894823Y-64266628D01*
X118895186Y-64265540D01*
X118893069Y-64257812D01*
X118891506Y-64249951D01*
X118890694Y-64249139D01*
X118890033Y-64246724D01*
X118842414Y-64151486D01*
X118837502Y-64145157D01*
X118833048Y-64138491D01*
X118785429Y-64090873D01*
X118783346Y-64089481D01*
X118782833Y-64088455D01*
X118775872Y-64084487D01*
X118769208Y-64080034D01*
X118768060Y-64080034D01*
X118765885Y-64078794D01*
X118734724Y-64068407D01*
X118737810Y-64066345D01*
X118785429Y-64018727D01*
X118789883Y-64012060D01*
X118794795Y-64005732D01*
X118842414Y-63910494D01*
X118843075Y-63908078D01*
X118843887Y-63907267D01*
X118845450Y-63899405D01*
X118847567Y-63891678D01*
X118847204Y-63890589D01*
X118847693Y-63888133D01*
X118847693Y-63792895D01*
X118847204Y-63790438D01*
X118847567Y-63789350D01*
X118845450Y-63781622D01*
X118843887Y-63773761D01*
X118843075Y-63772949D01*
X118842414Y-63770534D01*
X118794795Y-63675296D01*
X118789883Y-63668967D01*
X118785429Y-63662301D01*
X118737810Y-63614683D01*
X118731148Y-63610231D01*
X118724815Y-63605316D01*
X118629578Y-63557698D01*
X118627162Y-63557036D01*
X118626351Y-63556225D01*
X118618489Y-63554661D01*
X118610762Y-63552545D01*
X118609673Y-63552907D01*
X118607217Y-63552419D01*
X118273884Y-63552419D01*
X118254750Y-63556225D01*
X118227690Y-63583285D01*
X118223884Y-63602419D01*
X117860568Y-63602419D01*
X117718266Y-63554985D01*
X117710317Y-63553982D01*
X117702455Y-63552419D01*
X117464360Y-63552419D01*
X117461903Y-63552907D01*
X117460815Y-63552545D01*
X117453087Y-63554661D01*
X117445226Y-63556225D01*
X117444414Y-63557036D01*
X117441999Y-63557698D01*
X117346761Y-63605317D01*
X117340432Y-63610228D01*
X117333766Y-63614683D01*
X117286148Y-63662302D01*
X117281696Y-63668963D01*
X117276781Y-63675297D01*
X117229163Y-63770534D01*
X117228501Y-63772949D01*
X117227690Y-63773761D01*
X117226126Y-63781622D01*
X117224010Y-63789350D01*
X117224372Y-63790438D01*
X117223884Y-63792895D01*
X116895312Y-63792895D01*
X116895312Y-63602419D01*
X116891506Y-63583285D01*
X116864446Y-63556225D01*
X116826178Y-63556225D01*
X116799118Y-63583285D01*
X116795312Y-63602419D01*
X116795312Y-64400138D01*
X116756600Y-64477561D01*
X116720454Y-64513708D01*
X116643033Y-64552419D01*
X116476164Y-64552419D01*
X116398741Y-64513708D01*
X116362595Y-64477561D01*
X116323884Y-64400139D01*
X116323884Y-63602419D01*
X116320078Y-63583285D01*
X116293018Y-63556225D01*
X116254750Y-63556225D01*
X116227690Y-63583285D01*
X116223884Y-63602419D01*
X116112773Y-63602419D01*
X116112773Y-63441308D01*
X119006423Y-63441308D01*
X119006423Y-64763530D01*
G37*
X83411027Y-76520752D02*
X83649122Y-76520752D01*
X83363408Y-76663609D02*
X83530074Y-76163609D01*
X83530074Y-76163609D02*
X83696741Y-76663609D01*
X84077693Y-76163609D02*
X83982455Y-76163609D01*
X83982455Y-76163609D02*
X83934836Y-76187419D01*
X83934836Y-76187419D02*
X83911026Y-76211228D01*
X83911026Y-76211228D02*
X83863407Y-76282657D01*
X83863407Y-76282657D02*
X83839598Y-76377895D01*
X83839598Y-76377895D02*
X83839598Y-76568371D01*
X83839598Y-76568371D02*
X83863407Y-76615990D01*
X83863407Y-76615990D02*
X83887217Y-76639800D01*
X83887217Y-76639800D02*
X83934836Y-76663609D01*
X83934836Y-76663609D02*
X84030074Y-76663609D01*
X84030074Y-76663609D02*
X84077693Y-76639800D01*
X84077693Y-76639800D02*
X84101502Y-76615990D01*
X84101502Y-76615990D02*
X84125312Y-76568371D01*
X84125312Y-76568371D02*
X84125312Y-76449323D01*
X84125312Y-76449323D02*
X84101502Y-76401704D01*
X84101502Y-76401704D02*
X84077693Y-76377895D01*
X84077693Y-76377895D02*
X84030074Y-76354085D01*
X84030074Y-76354085D02*
X83934836Y-76354085D01*
X83934836Y-76354085D02*
X83887217Y-76377895D01*
X83887217Y-76377895D02*
X83863407Y-76401704D01*
X83863407Y-76401704D02*
X83839598Y-76449323D01*
X111524836Y-76473133D02*
X111905789Y-76473133D01*
X111715312Y-76663609D02*
X111715312Y-76282657D01*
X103797217Y-42783609D02*
X104130550Y-43283609D01*
X104130550Y-42783609D02*
X103797217Y-43283609D01*
G36*
X79133065Y-50449929D02*
G01*
X79166600Y-50483465D01*
X79205312Y-50560888D01*
X79205312Y-50680138D01*
X79166600Y-50757561D01*
X79130454Y-50793708D01*
X79053033Y-50832419D01*
X78733884Y-50832419D01*
X78733884Y-50408609D01*
X79009104Y-50408609D01*
X79133065Y-50449929D01*
G37*
G36*
X79082837Y-49971130D02*
G01*
X79118981Y-50007275D01*
X79157693Y-50084698D01*
X79157693Y-50156329D01*
X79118981Y-50233752D01*
X79082837Y-50269897D01*
X79005414Y-50308609D01*
X78733884Y-50308609D01*
X78733884Y-49932419D01*
X79005414Y-49932419D01*
X79082837Y-49971130D01*
G37*
G36*
X80130457Y-49971131D02*
G01*
X80210163Y-50050837D01*
X80252931Y-50221907D01*
X80252931Y-50542930D01*
X80210163Y-50713999D01*
X80130455Y-50793708D01*
X80053033Y-50832419D01*
X79886164Y-50832419D01*
X79808741Y-50793707D01*
X79729032Y-50713998D01*
X79686265Y-50542930D01*
X79686265Y-50221907D01*
X79729032Y-50050837D01*
X79808738Y-49971131D01*
X79886164Y-49932419D01*
X80053033Y-49932419D01*
X80130457Y-49971131D01*
G37*
G36*
X81178076Y-49971131D02*
G01*
X81257782Y-50050837D01*
X81300550Y-50221907D01*
X81300550Y-50542930D01*
X81257782Y-50713999D01*
X81178074Y-50793708D01*
X81100652Y-50832419D01*
X80933783Y-50832419D01*
X80856360Y-50793707D01*
X80776651Y-50713998D01*
X80733884Y-50542930D01*
X80733884Y-50221907D01*
X80776651Y-50050837D01*
X80856357Y-49971131D01*
X80933783Y-49932419D01*
X81100652Y-49932419D01*
X81178076Y-49971131D01*
G37*
G36*
X82364998Y-51043530D02*
G01*
X78522773Y-51043530D01*
X78522773Y-49882419D01*
X78633884Y-49882419D01*
X78633884Y-50882419D01*
X78637690Y-50901553D01*
X78664750Y-50928613D01*
X78683884Y-50932419D01*
X79064836Y-50932419D01*
X79067292Y-50931930D01*
X79068381Y-50932293D01*
X79076108Y-50930176D01*
X79083970Y-50928613D01*
X79084781Y-50927801D01*
X79087197Y-50927140D01*
X79182434Y-50879522D01*
X79188761Y-50874611D01*
X79195430Y-50870155D01*
X79243049Y-50822535D01*
X79247502Y-50815869D01*
X79252414Y-50809541D01*
X79300033Y-50714303D01*
X79300694Y-50711887D01*
X79301506Y-50711076D01*
X79303069Y-50703214D01*
X79305186Y-50695487D01*
X79304823Y-50694398D01*
X79305312Y-50691942D01*
X79305312Y-50549085D01*
X79304823Y-50546628D01*
X79305186Y-50545540D01*
X79303069Y-50537812D01*
X79301506Y-50529951D01*
X79300694Y-50529139D01*
X79300033Y-50526724D01*
X79252414Y-50431486D01*
X79247502Y-50425157D01*
X79243048Y-50418491D01*
X79195429Y-50370873D01*
X79193346Y-50369481D01*
X79192833Y-50368455D01*
X79185872Y-50364487D01*
X79179208Y-50360034D01*
X79178060Y-50360034D01*
X79175885Y-50358794D01*
X79144724Y-50348407D01*
X79147810Y-50346345D01*
X79195429Y-50298727D01*
X79199883Y-50292060D01*
X79204795Y-50285732D01*
X79239785Y-50215752D01*
X79586265Y-50215752D01*
X79586265Y-50549085D01*
X79587460Y-50555094D01*
X79587758Y-50561212D01*
X79635377Y-50751688D01*
X79637690Y-50756584D01*
X79637690Y-50758695D01*
X79641094Y-50763790D01*
X79643710Y-50769327D01*
X79645518Y-50770412D01*
X79648528Y-50774916D01*
X79743767Y-50870155D01*
X79750426Y-50874605D01*
X79756761Y-50879521D01*
X79851999Y-50927140D01*
X79854414Y-50927801D01*
X79855226Y-50928613D01*
X79863087Y-50930176D01*
X79870815Y-50932293D01*
X79871903Y-50931930D01*
X79874360Y-50932419D01*
X80064836Y-50932419D01*
X80067292Y-50931930D01*
X80068381Y-50932293D01*
X80076108Y-50930176D01*
X80083970Y-50928613D01*
X80084781Y-50927801D01*
X80087197Y-50927140D01*
X80182434Y-50879522D01*
X80188761Y-50874611D01*
X80195430Y-50870155D01*
X80290668Y-50774916D01*
X80293677Y-50770412D01*
X80295486Y-50769327D01*
X80298101Y-50763790D01*
X80301506Y-50758695D01*
X80301506Y-50756584D01*
X80303819Y-50751688D01*
X80351438Y-50561212D01*
X80351735Y-50555094D01*
X80352931Y-50549085D01*
X80352931Y-50215752D01*
X80633884Y-50215752D01*
X80633884Y-50549085D01*
X80635079Y-50555094D01*
X80635377Y-50561212D01*
X80682996Y-50751688D01*
X80685309Y-50756584D01*
X80685309Y-50758695D01*
X80688713Y-50763790D01*
X80691329Y-50769327D01*
X80693137Y-50770412D01*
X80696147Y-50774916D01*
X80791386Y-50870155D01*
X80798045Y-50874605D01*
X80804380Y-50879521D01*
X80899618Y-50927140D01*
X80902033Y-50927801D01*
X80902845Y-50928613D01*
X80910706Y-50930176D01*
X80918434Y-50932293D01*
X80919522Y-50931930D01*
X80921979Y-50932419D01*
X81112455Y-50932419D01*
X81114911Y-50931930D01*
X81116000Y-50932293D01*
X81123727Y-50930176D01*
X81131589Y-50928613D01*
X81132400Y-50927801D01*
X81134816Y-50927140D01*
X81230053Y-50879522D01*
X81236380Y-50874611D01*
X81243049Y-50870155D01*
X81338287Y-50774916D01*
X81341296Y-50770412D01*
X81343105Y-50769327D01*
X81345720Y-50763790D01*
X81349125Y-50758695D01*
X81349125Y-50756584D01*
X81351438Y-50751688D01*
X81399057Y-50561212D01*
X81399354Y-50555094D01*
X81400550Y-50549085D01*
X81400550Y-50215752D01*
X81399354Y-50209742D01*
X81399057Y-50203625D01*
X81351438Y-50013149D01*
X81349125Y-50008252D01*
X81349125Y-50006142D01*
X81345721Y-50001048D01*
X81343105Y-49995510D01*
X81341294Y-49994423D01*
X81338286Y-49989921D01*
X81243048Y-49894683D01*
X81236386Y-49890231D01*
X81230053Y-49885316D01*
X81185991Y-49863285D01*
X81590071Y-49863285D01*
X81590071Y-49901553D01*
X81617131Y-49928613D01*
X81636265Y-49932419D01*
X81871979Y-49932419D01*
X81871979Y-50882419D01*
X81875785Y-50901553D01*
X81902845Y-50928613D01*
X81941113Y-50928613D01*
X81968173Y-50901553D01*
X81971979Y-50882419D01*
X81971979Y-49932419D01*
X82207693Y-49932419D01*
X82226827Y-49928613D01*
X82253887Y-49901553D01*
X82253887Y-49863285D01*
X82226827Y-49836225D01*
X82207693Y-49832419D01*
X81636265Y-49832419D01*
X81617131Y-49836225D01*
X81590071Y-49863285D01*
X81185991Y-49863285D01*
X81134816Y-49837698D01*
X81132400Y-49837036D01*
X81131589Y-49836225D01*
X81123727Y-49834661D01*
X81116000Y-49832545D01*
X81114911Y-49832907D01*
X81112455Y-49832419D01*
X80921979Y-49832419D01*
X80919522Y-49832907D01*
X80918434Y-49832545D01*
X80910706Y-49834661D01*
X80902845Y-49836225D01*
X80902033Y-49837036D01*
X80899618Y-49837698D01*
X80804380Y-49885317D01*
X80798045Y-49890232D01*
X80791386Y-49894683D01*
X80696148Y-49989921D01*
X80693139Y-49994423D01*
X80691329Y-49995510D01*
X80688712Y-50001048D01*
X80685309Y-50006142D01*
X80685309Y-50008252D01*
X80682996Y-50013149D01*
X80635377Y-50203625D01*
X80635079Y-50209742D01*
X80633884Y-50215752D01*
X80352931Y-50215752D01*
X80351735Y-50209742D01*
X80351438Y-50203625D01*
X80303819Y-50013149D01*
X80301506Y-50008252D01*
X80301506Y-50006142D01*
X80298102Y-50001048D01*
X80295486Y-49995510D01*
X80293675Y-49994423D01*
X80290667Y-49989921D01*
X80195429Y-49894683D01*
X80188767Y-49890231D01*
X80182434Y-49885316D01*
X80087197Y-49837698D01*
X80084781Y-49837036D01*
X80083970Y-49836225D01*
X80076108Y-49834661D01*
X80068381Y-49832545D01*
X80067292Y-49832907D01*
X80064836Y-49832419D01*
X79874360Y-49832419D01*
X79871903Y-49832907D01*
X79870815Y-49832545D01*
X79863087Y-49834661D01*
X79855226Y-49836225D01*
X79854414Y-49837036D01*
X79851999Y-49837698D01*
X79756761Y-49885317D01*
X79750426Y-49890232D01*
X79743767Y-49894683D01*
X79648529Y-49989921D01*
X79645520Y-49994423D01*
X79643710Y-49995510D01*
X79641093Y-50001048D01*
X79637690Y-50006142D01*
X79637690Y-50008252D01*
X79635377Y-50013149D01*
X79587758Y-50203625D01*
X79587460Y-50209742D01*
X79586265Y-50215752D01*
X79239785Y-50215752D01*
X79252414Y-50190494D01*
X79253075Y-50188078D01*
X79253887Y-50187267D01*
X79255450Y-50179405D01*
X79257567Y-50171678D01*
X79257204Y-50170589D01*
X79257693Y-50168133D01*
X79257693Y-50072895D01*
X79257204Y-50070438D01*
X79257567Y-50069350D01*
X79255450Y-50061622D01*
X79253887Y-50053761D01*
X79253075Y-50052949D01*
X79252414Y-50050534D01*
X79204795Y-49955296D01*
X79199883Y-49948967D01*
X79195429Y-49942301D01*
X79147810Y-49894683D01*
X79141148Y-49890231D01*
X79134815Y-49885316D01*
X79039578Y-49837698D01*
X79037162Y-49837036D01*
X79036351Y-49836225D01*
X79028489Y-49834661D01*
X79020762Y-49832545D01*
X79019673Y-49832907D01*
X79017217Y-49832419D01*
X78683884Y-49832419D01*
X78664750Y-49836225D01*
X78637690Y-49863285D01*
X78633884Y-49882419D01*
X78522773Y-49882419D01*
X78522773Y-49721308D01*
X82364998Y-49721308D01*
X82364998Y-51043530D01*
G37*
X80711027Y-76520752D02*
X80949122Y-76520752D01*
X80663408Y-76663609D02*
X80830074Y-76163609D01*
X80830074Y-76163609D02*
X80996741Y-76663609D01*
X81401502Y-76163609D02*
X81163407Y-76163609D01*
X81163407Y-76163609D02*
X81139598Y-76401704D01*
X81139598Y-76401704D02*
X81163407Y-76377895D01*
X81163407Y-76377895D02*
X81211026Y-76354085D01*
X81211026Y-76354085D02*
X81330074Y-76354085D01*
X81330074Y-76354085D02*
X81377693Y-76377895D01*
X81377693Y-76377895D02*
X81401502Y-76401704D01*
X81401502Y-76401704D02*
X81425312Y-76449323D01*
X81425312Y-76449323D02*
X81425312Y-76568371D01*
X81425312Y-76568371D02*
X81401502Y-76615990D01*
X81401502Y-76615990D02*
X81377693Y-76639800D01*
X81377693Y-76639800D02*
X81330074Y-76663609D01*
X81330074Y-76663609D02*
X81211026Y-76663609D01*
X81211026Y-76663609D02*
X81163407Y-76639800D01*
X81163407Y-76639800D02*
X81139598Y-76615990D01*
X75721027Y-76520752D02*
X75959122Y-76520752D01*
X75673408Y-76663609D02*
X75840074Y-76163609D01*
X75840074Y-76163609D02*
X76006741Y-76663609D01*
X76125788Y-76163609D02*
X76435312Y-76163609D01*
X76435312Y-76163609D02*
X76268645Y-76354085D01*
X76268645Y-76354085D02*
X76340074Y-76354085D01*
X76340074Y-76354085D02*
X76387693Y-76377895D01*
X76387693Y-76377895D02*
X76411502Y-76401704D01*
X76411502Y-76401704D02*
X76435312Y-76449323D01*
X76435312Y-76449323D02*
X76435312Y-76568371D01*
X76435312Y-76568371D02*
X76411502Y-76615990D01*
X76411502Y-76615990D02*
X76387693Y-76639800D01*
X76387693Y-76639800D02*
X76340074Y-76663609D01*
X76340074Y-76663609D02*
X76197217Y-76663609D01*
X76197217Y-76663609D02*
X76149598Y-76639800D01*
X76149598Y-76639800D02*
X76125788Y-76615990D01*
X109667217Y-42783609D02*
X109976741Y-42783609D01*
X109976741Y-42783609D02*
X109810074Y-42974085D01*
X109810074Y-42974085D02*
X109881503Y-42974085D01*
X109881503Y-42974085D02*
X109929122Y-42997895D01*
X109929122Y-42997895D02*
X109952931Y-43021704D01*
X109952931Y-43021704D02*
X109976741Y-43069323D01*
X109976741Y-43069323D02*
X109976741Y-43188371D01*
X109976741Y-43188371D02*
X109952931Y-43235990D01*
X109952931Y-43235990D02*
X109929122Y-43259800D01*
X109929122Y-43259800D02*
X109881503Y-43283609D01*
X109881503Y-43283609D02*
X109738646Y-43283609D01*
X109738646Y-43283609D02*
X109691027Y-43259800D01*
X109691027Y-43259800D02*
X109667217Y-43235990D01*
X110119598Y-42783609D02*
X110286264Y-43283609D01*
X110286264Y-43283609D02*
X110452931Y-42783609D01*
X110571978Y-42783609D02*
X110881502Y-42783609D01*
X110881502Y-42783609D02*
X110714835Y-42974085D01*
X110714835Y-42974085D02*
X110786264Y-42974085D01*
X110786264Y-42974085D02*
X110833883Y-42997895D01*
X110833883Y-42997895D02*
X110857692Y-43021704D01*
X110857692Y-43021704D02*
X110881502Y-43069323D01*
X110881502Y-43069323D02*
X110881502Y-43188371D01*
X110881502Y-43188371D02*
X110857692Y-43235990D01*
X110857692Y-43235990D02*
X110833883Y-43259800D01*
X110833883Y-43259800D02*
X110786264Y-43283609D01*
X110786264Y-43283609D02*
X110643407Y-43283609D01*
X110643407Y-43283609D02*
X110595788Y-43259800D01*
X110595788Y-43259800D02*
X110571978Y-43235990D01*
X78211027Y-76520752D02*
X78449122Y-76520752D01*
X78163408Y-76663609D02*
X78330074Y-76163609D01*
X78330074Y-76163609D02*
X78496741Y-76663609D01*
X78877693Y-76330276D02*
X78877693Y-76663609D01*
X78758645Y-76139800D02*
X78639598Y-76496942D01*
X78639598Y-76496942D02*
X78949121Y-76496942D01*
G36*
X68251751Y-56184958D02*
G01*
X68358635Y-56238399D01*
X68463598Y-56343363D01*
X68516823Y-56503037D01*
X68516823Y-56742544D01*
X67366823Y-56742544D01*
X67366823Y-56503038D01*
X67420048Y-56343362D01*
X67525013Y-56238398D01*
X67631894Y-56184958D01*
X67858693Y-56128259D01*
X68024954Y-56128259D01*
X68251751Y-56184958D01*
G37*
G36*
X68755712Y-59660004D02*
G01*
X67127934Y-59660004D01*
X67127934Y-58935401D01*
X67266823Y-58935401D01*
X67266823Y-59233020D01*
X67267311Y-59235476D01*
X67266949Y-59236565D01*
X67269065Y-59244292D01*
X67270629Y-59252154D01*
X67271440Y-59252965D01*
X67272102Y-59255381D01*
X67331626Y-59374429D01*
X67336537Y-59380757D01*
X67340992Y-59387424D01*
X67400516Y-59446947D01*
X67407181Y-59451400D01*
X67413510Y-59456312D01*
X67532559Y-59515836D01*
X67534973Y-59516497D01*
X67535785Y-59517309D01*
X67543650Y-59518873D01*
X67551375Y-59520989D01*
X67552462Y-59520626D01*
X67554919Y-59521115D01*
X67673966Y-59521115D01*
X67676422Y-59520626D01*
X67677511Y-59520989D01*
X67685238Y-59518872D01*
X67693100Y-59517309D01*
X67693911Y-59516497D01*
X67696327Y-59515836D01*
X67815375Y-59456312D01*
X67821703Y-59451400D01*
X67828369Y-59446947D01*
X67887893Y-59387424D01*
X67892349Y-59380755D01*
X67897260Y-59374428D01*
X67956782Y-59255381D01*
X67958228Y-59250099D01*
X67960568Y-59245147D01*
X68018761Y-59012375D01*
X68072200Y-58905495D01*
X68120251Y-58857445D01*
X68221484Y-58806830D01*
X68316924Y-58806830D01*
X68418158Y-58857446D01*
X68466206Y-58905494D01*
X68516823Y-59006728D01*
X68516823Y-59284431D01*
X68459866Y-59455304D01*
X68457426Y-59474659D01*
X68474540Y-59508888D01*
X68510844Y-59520989D01*
X68545073Y-59503875D01*
X68554734Y-59486926D01*
X68614257Y-59308355D01*
X68615259Y-59300406D01*
X68616823Y-59292544D01*
X68616823Y-58994925D01*
X68616334Y-58992468D01*
X68616697Y-58991380D01*
X68614580Y-58983652D01*
X68613017Y-58975791D01*
X68612205Y-58974979D01*
X68611544Y-58972564D01*
X68552022Y-58853517D01*
X68547110Y-58847188D01*
X68542656Y-58840522D01*
X68483131Y-58780998D01*
X68476473Y-58776549D01*
X68470136Y-58771631D01*
X68351088Y-58712108D01*
X68348672Y-58711446D01*
X68347862Y-58710636D01*
X68340001Y-58709072D01*
X68332272Y-58706956D01*
X68331184Y-58707318D01*
X68328728Y-58706830D01*
X68209680Y-58706830D01*
X68207223Y-58707318D01*
X68206135Y-58706956D01*
X68198407Y-58709072D01*
X68190546Y-58710636D01*
X68189734Y-58711447D01*
X68187319Y-58712109D01*
X68068272Y-58771632D01*
X68061946Y-58776541D01*
X68055278Y-58780997D01*
X67995754Y-58840522D01*
X67991303Y-58847181D01*
X67986388Y-58853516D01*
X67926864Y-58972564D01*
X67925417Y-58977845D01*
X67923078Y-58982798D01*
X67864885Y-59215567D01*
X67811444Y-59322449D01*
X67763394Y-59370499D01*
X67662163Y-59421115D01*
X67566722Y-59421115D01*
X67465489Y-59370498D01*
X67417437Y-59322447D01*
X67366823Y-59221217D01*
X67366823Y-58943514D01*
X67423781Y-58772642D01*
X67426221Y-58753286D01*
X67409107Y-58719058D01*
X67372803Y-58706956D01*
X67338574Y-58724070D01*
X67328913Y-58741019D01*
X67269389Y-58919590D01*
X67268386Y-58927538D01*
X67266823Y-58935401D01*
X67127934Y-58935401D01*
X67127934Y-57276649D01*
X67267453Y-57276649D01*
X67287510Y-57309241D01*
X67305242Y-57317375D01*
X68362479Y-57569098D01*
X67661083Y-57756137D01*
X67643576Y-57764745D01*
X67640160Y-57770643D01*
X67634262Y-57774059D01*
X67630913Y-57786617D01*
X67624402Y-57797864D01*
X67626158Y-57804449D01*
X67624402Y-57811034D01*
X67630913Y-57822280D01*
X67634262Y-57834839D01*
X67640160Y-57838254D01*
X67643576Y-57844153D01*
X67661083Y-57852761D01*
X68362479Y-58039799D01*
X67305242Y-58291523D01*
X67287510Y-58299657D01*
X67267453Y-58332249D01*
X67276317Y-58369476D01*
X67308909Y-58389533D01*
X67328404Y-58388803D01*
X68578404Y-58091184D01*
X68596136Y-58083050D01*
X68600055Y-58076680D01*
X68606527Y-58072934D01*
X68609713Y-58060985D01*
X68616192Y-58050458D01*
X68614460Y-58043185D01*
X68616388Y-58035959D01*
X68610192Y-58025256D01*
X68607329Y-58013231D01*
X68600961Y-58009312D01*
X68597214Y-58002840D01*
X68579706Y-57994232D01*
X67868019Y-57804449D01*
X68579706Y-57614666D01*
X68597214Y-57606058D01*
X68600961Y-57599585D01*
X68607329Y-57595667D01*
X68610192Y-57583641D01*
X68616388Y-57572939D01*
X68614460Y-57565712D01*
X68616192Y-57558440D01*
X68609713Y-57547912D01*
X68606527Y-57535964D01*
X68600055Y-57532217D01*
X68596136Y-57525848D01*
X68578404Y-57517714D01*
X67328404Y-57220095D01*
X67308909Y-57219365D01*
X67276317Y-57239422D01*
X67267453Y-57276649D01*
X67127934Y-57276649D01*
X67127934Y-56494925D01*
X67266823Y-56494925D01*
X67266823Y-56792544D01*
X67270629Y-56811678D01*
X67297689Y-56838738D01*
X67316823Y-56842544D01*
X68566823Y-56842544D01*
X68585957Y-56838738D01*
X68613017Y-56811678D01*
X68616823Y-56792544D01*
X68616823Y-56494925D01*
X68615259Y-56487062D01*
X68614257Y-56479114D01*
X68554734Y-56300543D01*
X68553494Y-56298367D01*
X68553494Y-56297219D01*
X68549039Y-56290552D01*
X68545073Y-56283594D01*
X68544046Y-56283080D01*
X68542655Y-56280998D01*
X68423607Y-56161951D01*
X68416949Y-56157502D01*
X68410612Y-56152584D01*
X68291564Y-56093061D01*
X68286281Y-56091614D01*
X68281331Y-56089276D01*
X68043236Y-56029752D01*
X68037118Y-56029454D01*
X68031109Y-56028259D01*
X67852538Y-56028259D01*
X67846530Y-56029453D01*
X67840411Y-56029752D01*
X67602315Y-56089276D01*
X67597362Y-56091615D01*
X67592081Y-56093062D01*
X67473034Y-56152585D01*
X67466708Y-56157494D01*
X67460039Y-56161951D01*
X67340992Y-56280999D01*
X67339601Y-56283080D01*
X67338574Y-56283594D01*
X67334603Y-56290559D01*
X67330153Y-56297220D01*
X67330153Y-56298367D01*
X67328913Y-56300543D01*
X67269389Y-56479114D01*
X67268386Y-56487062D01*
X67266823Y-56494925D01*
X67127934Y-56494925D01*
X67127934Y-55889370D01*
X68755712Y-55889370D01*
X68755712Y-59660004D01*
G37*
X96241503Y-43021704D02*
X96312931Y-43045514D01*
X96312931Y-43045514D02*
X96336741Y-43069323D01*
X96336741Y-43069323D02*
X96360550Y-43116942D01*
X96360550Y-43116942D02*
X96360550Y-43188371D01*
X96360550Y-43188371D02*
X96336741Y-43235990D01*
X96336741Y-43235990D02*
X96312931Y-43259800D01*
X96312931Y-43259800D02*
X96265312Y-43283609D01*
X96265312Y-43283609D02*
X96074836Y-43283609D01*
X96074836Y-43283609D02*
X96074836Y-42783609D01*
X96074836Y-42783609D02*
X96241503Y-42783609D01*
X96241503Y-42783609D02*
X96289122Y-42807419D01*
X96289122Y-42807419D02*
X96312931Y-42831228D01*
X96312931Y-42831228D02*
X96336741Y-42878847D01*
X96336741Y-42878847D02*
X96336741Y-42926466D01*
X96336741Y-42926466D02*
X96312931Y-42974085D01*
X96312931Y-42974085D02*
X96289122Y-42997895D01*
X96289122Y-42997895D02*
X96241503Y-43021704D01*
X96241503Y-43021704D02*
X96074836Y-43021704D01*
X96789122Y-42950276D02*
X96789122Y-43283609D01*
X96670074Y-42759800D02*
X96551027Y-43116942D01*
X96551027Y-43116942D02*
X96860550Y-43116942D01*
X109907217Y-76163609D02*
X110216741Y-76163609D01*
X110216741Y-76163609D02*
X110050074Y-76354085D01*
X110050074Y-76354085D02*
X110121503Y-76354085D01*
X110121503Y-76354085D02*
X110169122Y-76377895D01*
X110169122Y-76377895D02*
X110192931Y-76401704D01*
X110192931Y-76401704D02*
X110216741Y-76449323D01*
X110216741Y-76449323D02*
X110216741Y-76568371D01*
X110216741Y-76568371D02*
X110192931Y-76615990D01*
X110192931Y-76615990D02*
X110169122Y-76639800D01*
X110169122Y-76639800D02*
X110121503Y-76663609D01*
X110121503Y-76663609D02*
X109978646Y-76663609D01*
X109978646Y-76663609D02*
X109931027Y-76639800D01*
X109931027Y-76639800D02*
X109907217Y-76615990D01*
X110359598Y-76163609D02*
X110526264Y-76663609D01*
X110526264Y-76663609D02*
X110692931Y-76163609D01*
X110811978Y-76163609D02*
X111121502Y-76163609D01*
X111121502Y-76163609D02*
X110954835Y-76354085D01*
X110954835Y-76354085D02*
X111026264Y-76354085D01*
X111026264Y-76354085D02*
X111073883Y-76377895D01*
X111073883Y-76377895D02*
X111097692Y-76401704D01*
X111097692Y-76401704D02*
X111121502Y-76449323D01*
X111121502Y-76449323D02*
X111121502Y-76568371D01*
X111121502Y-76568371D02*
X111097692Y-76615990D01*
X111097692Y-76615990D02*
X111073883Y-76639800D01*
X111073883Y-76639800D02*
X111026264Y-76663609D01*
X111026264Y-76663609D02*
X110883407Y-76663609D01*
X110883407Y-76663609D02*
X110835788Y-76639800D01*
X110835788Y-76639800D02*
X110811978Y-76615990D01*
X100751027Y-43140752D02*
X100989122Y-43140752D01*
X100703408Y-43283609D02*
X100870074Y-42783609D01*
X100870074Y-42783609D02*
X101036741Y-43283609D01*
X101465312Y-43283609D02*
X101179598Y-43283609D01*
X101322455Y-43283609D02*
X101322455Y-42783609D01*
X101322455Y-42783609D02*
X101274836Y-42855038D01*
X101274836Y-42855038D02*
X101227217Y-42902657D01*
X101227217Y-42902657D02*
X101179598Y-42926466D01*
X101917692Y-42783609D02*
X101679597Y-42783609D01*
X101679597Y-42783609D02*
X101655788Y-43021704D01*
X101655788Y-43021704D02*
X101679597Y-42997895D01*
X101679597Y-42997895D02*
X101727216Y-42974085D01*
X101727216Y-42974085D02*
X101846264Y-42974085D01*
X101846264Y-42974085D02*
X101893883Y-42997895D01*
X101893883Y-42997895D02*
X101917692Y-43021704D01*
X101917692Y-43021704D02*
X101941502Y-43069323D01*
X101941502Y-43069323D02*
X101941502Y-43188371D01*
X101941502Y-43188371D02*
X101917692Y-43235990D01*
X101917692Y-43235990D02*
X101893883Y-43259800D01*
X101893883Y-43259800D02*
X101846264Y-43283609D01*
X101846264Y-43283609D02*
X101727216Y-43283609D01*
X101727216Y-43283609D02*
X101679597Y-43259800D01*
X101679597Y-43259800D02*
X101655788Y-43235990D01*
X98761503Y-43021704D02*
X98832931Y-43045514D01*
X98832931Y-43045514D02*
X98856741Y-43069323D01*
X98856741Y-43069323D02*
X98880550Y-43116942D01*
X98880550Y-43116942D02*
X98880550Y-43188371D01*
X98880550Y-43188371D02*
X98856741Y-43235990D01*
X98856741Y-43235990D02*
X98832931Y-43259800D01*
X98832931Y-43259800D02*
X98785312Y-43283609D01*
X98785312Y-43283609D02*
X98594836Y-43283609D01*
X98594836Y-43283609D02*
X98594836Y-42783609D01*
X98594836Y-42783609D02*
X98761503Y-42783609D01*
X98761503Y-42783609D02*
X98809122Y-42807419D01*
X98809122Y-42807419D02*
X98832931Y-42831228D01*
X98832931Y-42831228D02*
X98856741Y-42878847D01*
X98856741Y-42878847D02*
X98856741Y-42926466D01*
X98856741Y-42926466D02*
X98832931Y-42974085D01*
X98832931Y-42974085D02*
X98809122Y-42997895D01*
X98809122Y-42997895D02*
X98761503Y-43021704D01*
X98761503Y-43021704D02*
X98594836Y-43021704D01*
X99047217Y-42783609D02*
X99356741Y-42783609D01*
X99356741Y-42783609D02*
X99190074Y-42974085D01*
X99190074Y-42974085D02*
X99261503Y-42974085D01*
X99261503Y-42974085D02*
X99309122Y-42997895D01*
X99309122Y-42997895D02*
X99332931Y-43021704D01*
X99332931Y-43021704D02*
X99356741Y-43069323D01*
X99356741Y-43069323D02*
X99356741Y-43188371D01*
X99356741Y-43188371D02*
X99332931Y-43235990D01*
X99332931Y-43235990D02*
X99309122Y-43259800D01*
X99309122Y-43259800D02*
X99261503Y-43283609D01*
X99261503Y-43283609D02*
X99118646Y-43283609D01*
X99118646Y-43283609D02*
X99071027Y-43259800D01*
X99071027Y-43259800D02*
X99047217Y-43235990D01*
X90771503Y-43021704D02*
X90842931Y-43045514D01*
X90842931Y-43045514D02*
X90866741Y-43069323D01*
X90866741Y-43069323D02*
X90890550Y-43116942D01*
X90890550Y-43116942D02*
X90890550Y-43188371D01*
X90890550Y-43188371D02*
X90866741Y-43235990D01*
X90866741Y-43235990D02*
X90842931Y-43259800D01*
X90842931Y-43259800D02*
X90795312Y-43283609D01*
X90795312Y-43283609D02*
X90604836Y-43283609D01*
X90604836Y-43283609D02*
X90604836Y-42783609D01*
X90604836Y-42783609D02*
X90771503Y-42783609D01*
X90771503Y-42783609D02*
X90819122Y-42807419D01*
X90819122Y-42807419D02*
X90842931Y-42831228D01*
X90842931Y-42831228D02*
X90866741Y-42878847D01*
X90866741Y-42878847D02*
X90866741Y-42926466D01*
X90866741Y-42926466D02*
X90842931Y-42974085D01*
X90842931Y-42974085D02*
X90819122Y-42997895D01*
X90819122Y-42997895D02*
X90771503Y-43021704D01*
X90771503Y-43021704D02*
X90604836Y-43021704D01*
X91319122Y-42783609D02*
X91223884Y-42783609D01*
X91223884Y-42783609D02*
X91176265Y-42807419D01*
X91176265Y-42807419D02*
X91152455Y-42831228D01*
X91152455Y-42831228D02*
X91104836Y-42902657D01*
X91104836Y-42902657D02*
X91081027Y-42997895D01*
X91081027Y-42997895D02*
X91081027Y-43188371D01*
X91081027Y-43188371D02*
X91104836Y-43235990D01*
X91104836Y-43235990D02*
X91128646Y-43259800D01*
X91128646Y-43259800D02*
X91176265Y-43283609D01*
X91176265Y-43283609D02*
X91271503Y-43283609D01*
X91271503Y-43283609D02*
X91319122Y-43259800D01*
X91319122Y-43259800D02*
X91342931Y-43235990D01*
X91342931Y-43235990D02*
X91366741Y-43188371D01*
X91366741Y-43188371D02*
X91366741Y-43069323D01*
X91366741Y-43069323D02*
X91342931Y-43021704D01*
X91342931Y-43021704D02*
X91319122Y-42997895D01*
X91319122Y-42997895D02*
X91271503Y-42974085D01*
X91271503Y-42974085D02*
X91176265Y-42974085D01*
X91176265Y-42974085D02*
X91128646Y-42997895D01*
X91128646Y-42997895D02*
X91104836Y-43021704D01*
X91104836Y-43021704D02*
X91081027Y-43069323D01*
D11*
X107543627Y-61409385D02*
X107400770Y-61409385D01*
X107400770Y-61409385D02*
X107386484Y-61552242D01*
X107386484Y-61552242D02*
X107400770Y-61537957D01*
X107400770Y-61537957D02*
X107429342Y-61523671D01*
X107429342Y-61523671D02*
X107500770Y-61523671D01*
X107500770Y-61523671D02*
X107529342Y-61537957D01*
X107529342Y-61537957D02*
X107543627Y-61552242D01*
X107543627Y-61552242D02*
X107557913Y-61580814D01*
X107557913Y-61580814D02*
X107557913Y-61652242D01*
X107557913Y-61652242D02*
X107543627Y-61680814D01*
X107543627Y-61680814D02*
X107529342Y-61695100D01*
X107529342Y-61695100D02*
X107500770Y-61709385D01*
X107500770Y-61709385D02*
X107429342Y-61709385D01*
X107429342Y-61709385D02*
X107400770Y-61695100D01*
X107400770Y-61695100D02*
X107386484Y-61680814D01*
X107643627Y-61409385D02*
X107743627Y-61709385D01*
X107743627Y-61709385D02*
X107843627Y-61409385D01*
D10*
X108634836Y-43093133D02*
X109015789Y-43093133D01*
D12*
X109738095Y-64879819D02*
X109738095Y-65689342D01*
X109738095Y-65689342D02*
X109785714Y-65784580D01*
X109785714Y-65784580D02*
X109833333Y-65832200D01*
X109833333Y-65832200D02*
X109928571Y-65879819D01*
X109928571Y-65879819D02*
X110119047Y-65879819D01*
X110119047Y-65879819D02*
X110214285Y-65832200D01*
X110214285Y-65832200D02*
X110261904Y-65784580D01*
X110261904Y-65784580D02*
X110309523Y-65689342D01*
X110309523Y-65689342D02*
X110309523Y-64879819D01*
X110690476Y-64879819D02*
X111309523Y-64879819D01*
X111309523Y-64879819D02*
X110976190Y-65260771D01*
X110976190Y-65260771D02*
X111119047Y-65260771D01*
X111119047Y-65260771D02*
X111214285Y-65308390D01*
X111214285Y-65308390D02*
X111261904Y-65356009D01*
X111261904Y-65356009D02*
X111309523Y-65451247D01*
X111309523Y-65451247D02*
X111309523Y-65689342D01*
X111309523Y-65689342D02*
X111261904Y-65784580D01*
X111261904Y-65784580D02*
X111214285Y-65832200D01*
X111214285Y-65832200D02*
X111119047Y-65879819D01*
X111119047Y-65879819D02*
X110833333Y-65879819D01*
X110833333Y-65879819D02*
X110738095Y-65832200D01*
X110738095Y-65832200D02*
X110690476Y-65784580D01*
X111120833Y-69957319D02*
X110787500Y-69481128D01*
X110549405Y-69957319D02*
X110549405Y-68957319D01*
X110549405Y-68957319D02*
X110930357Y-68957319D01*
X110930357Y-68957319D02*
X111025595Y-69004938D01*
X111025595Y-69004938D02*
X111073214Y-69052557D01*
X111073214Y-69052557D02*
X111120833Y-69147795D01*
X111120833Y-69147795D02*
X111120833Y-69290652D01*
X111120833Y-69290652D02*
X111073214Y-69385890D01*
X111073214Y-69385890D02*
X111025595Y-69433509D01*
X111025595Y-69433509D02*
X110930357Y-69481128D01*
X110930357Y-69481128D02*
X110549405Y-69481128D01*
X111977976Y-69290652D02*
X111977976Y-69957319D01*
X111739881Y-68909700D02*
X111501786Y-69623985D01*
X111501786Y-69623985D02*
X112120833Y-69623985D01*
X80383333Y-68579819D02*
X80050000Y-68103628D01*
X79811905Y-68579819D02*
X79811905Y-67579819D01*
X79811905Y-67579819D02*
X80192857Y-67579819D01*
X80192857Y-67579819D02*
X80288095Y-67627438D01*
X80288095Y-67627438D02*
X80335714Y-67675057D01*
X80335714Y-67675057D02*
X80383333Y-67770295D01*
X80383333Y-67770295D02*
X80383333Y-67913152D01*
X80383333Y-67913152D02*
X80335714Y-68008390D01*
X80335714Y-68008390D02*
X80288095Y-68056009D01*
X80288095Y-68056009D02*
X80192857Y-68103628D01*
X80192857Y-68103628D02*
X79811905Y-68103628D01*
X80716667Y-67579819D02*
X81335714Y-67579819D01*
X81335714Y-67579819D02*
X81002381Y-67960771D01*
X81002381Y-67960771D02*
X81145238Y-67960771D01*
X81145238Y-67960771D02*
X81240476Y-68008390D01*
X81240476Y-68008390D02*
X81288095Y-68056009D01*
X81288095Y-68056009D02*
X81335714Y-68151247D01*
X81335714Y-68151247D02*
X81335714Y-68389342D01*
X81335714Y-68389342D02*
X81288095Y-68484580D01*
X81288095Y-68484580D02*
X81240476Y-68532200D01*
X81240476Y-68532200D02*
X81145238Y-68579819D01*
X81145238Y-68579819D02*
X80859524Y-68579819D01*
X80859524Y-68579819D02*
X80764286Y-68532200D01*
X80764286Y-68532200D02*
X80716667Y-68484580D01*
X81658333Y-52459580D02*
X81610714Y-52507200D01*
X81610714Y-52507200D02*
X81467857Y-52554819D01*
X81467857Y-52554819D02*
X81372619Y-52554819D01*
X81372619Y-52554819D02*
X81229762Y-52507200D01*
X81229762Y-52507200D02*
X81134524Y-52411961D01*
X81134524Y-52411961D02*
X81086905Y-52316723D01*
X81086905Y-52316723D02*
X81039286Y-52126247D01*
X81039286Y-52126247D02*
X81039286Y-51983390D01*
X81039286Y-51983390D02*
X81086905Y-51792914D01*
X81086905Y-51792914D02*
X81134524Y-51697676D01*
X81134524Y-51697676D02*
X81229762Y-51602438D01*
X81229762Y-51602438D02*
X81372619Y-51554819D01*
X81372619Y-51554819D02*
X81467857Y-51554819D01*
X81467857Y-51554819D02*
X81610714Y-51602438D01*
X81610714Y-51602438D02*
X81658333Y-51650057D01*
X82610714Y-52554819D02*
X82039286Y-52554819D01*
X82325000Y-52554819D02*
X82325000Y-51554819D01*
X82325000Y-51554819D02*
X82229762Y-51697676D01*
X82229762Y-51697676D02*
X82134524Y-51792914D01*
X82134524Y-51792914D02*
X82039286Y-51840533D01*
X93988095Y-54154819D02*
X93988095Y-54964342D01*
X93988095Y-54964342D02*
X94035714Y-55059580D01*
X94035714Y-55059580D02*
X94083333Y-55107200D01*
X94083333Y-55107200D02*
X94178571Y-55154819D01*
X94178571Y-55154819D02*
X94369047Y-55154819D01*
X94369047Y-55154819D02*
X94464285Y-55107200D01*
X94464285Y-55107200D02*
X94511904Y-55059580D01*
X94511904Y-55059580D02*
X94559523Y-54964342D01*
X94559523Y-54964342D02*
X94559523Y-54154819D01*
X95559523Y-55154819D02*
X94988095Y-55154819D01*
X95273809Y-55154819D02*
X95273809Y-54154819D01*
X95273809Y-54154819D02*
X95178571Y-54297676D01*
X95178571Y-54297676D02*
X95083333Y-54392914D01*
X95083333Y-54392914D02*
X94988095Y-54440533D01*
X89158333Y-52154819D02*
X88825000Y-51678628D01*
X88586905Y-52154819D02*
X88586905Y-51154819D01*
X88586905Y-51154819D02*
X88967857Y-51154819D01*
X88967857Y-51154819D02*
X89063095Y-51202438D01*
X89063095Y-51202438D02*
X89110714Y-51250057D01*
X89110714Y-51250057D02*
X89158333Y-51345295D01*
X89158333Y-51345295D02*
X89158333Y-51488152D01*
X89158333Y-51488152D02*
X89110714Y-51583390D01*
X89110714Y-51583390D02*
X89063095Y-51631009D01*
X89063095Y-51631009D02*
X88967857Y-51678628D01*
X88967857Y-51678628D02*
X88586905Y-51678628D01*
X90110714Y-52154819D02*
X89539286Y-52154819D01*
X89825000Y-52154819D02*
X89825000Y-51154819D01*
X89825000Y-51154819D02*
X89729762Y-51297676D01*
X89729762Y-51297676D02*
X89634524Y-51392914D01*
X89634524Y-51392914D02*
X89539286Y-51440533D01*
X100208333Y-54779819D02*
X99875000Y-54303628D01*
X99636905Y-54779819D02*
X99636905Y-53779819D01*
X99636905Y-53779819D02*
X100017857Y-53779819D01*
X100017857Y-53779819D02*
X100113095Y-53827438D01*
X100113095Y-53827438D02*
X100160714Y-53875057D01*
X100160714Y-53875057D02*
X100208333Y-53970295D01*
X100208333Y-53970295D02*
X100208333Y-54113152D01*
X100208333Y-54113152D02*
X100160714Y-54208390D01*
X100160714Y-54208390D02*
X100113095Y-54256009D01*
X100113095Y-54256009D02*
X100017857Y-54303628D01*
X100017857Y-54303628D02*
X99636905Y-54303628D01*
X100589286Y-53875057D02*
X100636905Y-53827438D01*
X100636905Y-53827438D02*
X100732143Y-53779819D01*
X100732143Y-53779819D02*
X100970238Y-53779819D01*
X100970238Y-53779819D02*
X101065476Y-53827438D01*
X101065476Y-53827438D02*
X101113095Y-53875057D01*
X101113095Y-53875057D02*
X101160714Y-53970295D01*
X101160714Y-53970295D02*
X101160714Y-54065533D01*
X101160714Y-54065533D02*
X101113095Y-54208390D01*
X101113095Y-54208390D02*
X100541667Y-54779819D01*
X100541667Y-54779819D02*
X101160714Y-54779819D01*
X83333333Y-55334580D02*
X83285714Y-55382200D01*
X83285714Y-55382200D02*
X83142857Y-55429819D01*
X83142857Y-55429819D02*
X83047619Y-55429819D01*
X83047619Y-55429819D02*
X82904762Y-55382200D01*
X82904762Y-55382200D02*
X82809524Y-55286961D01*
X82809524Y-55286961D02*
X82761905Y-55191723D01*
X82761905Y-55191723D02*
X82714286Y-55001247D01*
X82714286Y-55001247D02*
X82714286Y-54858390D01*
X82714286Y-54858390D02*
X82761905Y-54667914D01*
X82761905Y-54667914D02*
X82809524Y-54572676D01*
X82809524Y-54572676D02*
X82904762Y-54477438D01*
X82904762Y-54477438D02*
X83047619Y-54429819D01*
X83047619Y-54429819D02*
X83142857Y-54429819D01*
X83142857Y-54429819D02*
X83285714Y-54477438D01*
X83285714Y-54477438D02*
X83333333Y-54525057D01*
X83714286Y-54525057D02*
X83761905Y-54477438D01*
X83761905Y-54477438D02*
X83857143Y-54429819D01*
X83857143Y-54429819D02*
X84095238Y-54429819D01*
X84095238Y-54429819D02*
X84190476Y-54477438D01*
X84190476Y-54477438D02*
X84238095Y-54525057D01*
X84238095Y-54525057D02*
X84285714Y-54620295D01*
X84285714Y-54620295D02*
X84285714Y-54715533D01*
X84285714Y-54715533D02*
X84238095Y-54858390D01*
X84238095Y-54858390D02*
X83666667Y-55429819D01*
X83666667Y-55429819D02*
X84285714Y-55429819D01*
X94993333Y-64039580D02*
X94945714Y-64087200D01*
X94945714Y-64087200D02*
X94802857Y-64134819D01*
X94802857Y-64134819D02*
X94707619Y-64134819D01*
X94707619Y-64134819D02*
X94564762Y-64087200D01*
X94564762Y-64087200D02*
X94469524Y-63991961D01*
X94469524Y-63991961D02*
X94421905Y-63896723D01*
X94421905Y-63896723D02*
X94374286Y-63706247D01*
X94374286Y-63706247D02*
X94374286Y-63563390D01*
X94374286Y-63563390D02*
X94421905Y-63372914D01*
X94421905Y-63372914D02*
X94469524Y-63277676D01*
X94469524Y-63277676D02*
X94564762Y-63182438D01*
X94564762Y-63182438D02*
X94707619Y-63134819D01*
X94707619Y-63134819D02*
X94802857Y-63134819D01*
X94802857Y-63134819D02*
X94945714Y-63182438D01*
X94945714Y-63182438D02*
X94993333Y-63230057D01*
X95326667Y-63134819D02*
X95945714Y-63134819D01*
X95945714Y-63134819D02*
X95612381Y-63515771D01*
X95612381Y-63515771D02*
X95755238Y-63515771D01*
X95755238Y-63515771D02*
X95850476Y-63563390D01*
X95850476Y-63563390D02*
X95898095Y-63611009D01*
X95898095Y-63611009D02*
X95945714Y-63706247D01*
X95945714Y-63706247D02*
X95945714Y-63944342D01*
X95945714Y-63944342D02*
X95898095Y-64039580D01*
X95898095Y-64039580D02*
X95850476Y-64087200D01*
X95850476Y-64087200D02*
X95755238Y-64134819D01*
X95755238Y-64134819D02*
X95469524Y-64134819D01*
X95469524Y-64134819D02*
X95374286Y-64087200D01*
X95374286Y-64087200D02*
X95326667Y-64039580D01*
X82708333Y-57534580D02*
X82660714Y-57582200D01*
X82660714Y-57582200D02*
X82517857Y-57629819D01*
X82517857Y-57629819D02*
X82422619Y-57629819D01*
X82422619Y-57629819D02*
X82279762Y-57582200D01*
X82279762Y-57582200D02*
X82184524Y-57486961D01*
X82184524Y-57486961D02*
X82136905Y-57391723D01*
X82136905Y-57391723D02*
X82089286Y-57201247D01*
X82089286Y-57201247D02*
X82089286Y-57058390D01*
X82089286Y-57058390D02*
X82136905Y-56867914D01*
X82136905Y-56867914D02*
X82184524Y-56772676D01*
X82184524Y-56772676D02*
X82279762Y-56677438D01*
X82279762Y-56677438D02*
X82422619Y-56629819D01*
X82422619Y-56629819D02*
X82517857Y-56629819D01*
X82517857Y-56629819D02*
X82660714Y-56677438D01*
X82660714Y-56677438D02*
X82708333Y-56725057D01*
X83279762Y-57058390D02*
X83184524Y-57010771D01*
X83184524Y-57010771D02*
X83136905Y-56963152D01*
X83136905Y-56963152D02*
X83089286Y-56867914D01*
X83089286Y-56867914D02*
X83089286Y-56820295D01*
X83089286Y-56820295D02*
X83136905Y-56725057D01*
X83136905Y-56725057D02*
X83184524Y-56677438D01*
X83184524Y-56677438D02*
X83279762Y-56629819D01*
X83279762Y-56629819D02*
X83470238Y-56629819D01*
X83470238Y-56629819D02*
X83565476Y-56677438D01*
X83565476Y-56677438D02*
X83613095Y-56725057D01*
X83613095Y-56725057D02*
X83660714Y-56820295D01*
X83660714Y-56820295D02*
X83660714Y-56867914D01*
X83660714Y-56867914D02*
X83613095Y-56963152D01*
X83613095Y-56963152D02*
X83565476Y-57010771D01*
X83565476Y-57010771D02*
X83470238Y-57058390D01*
X83470238Y-57058390D02*
X83279762Y-57058390D01*
X83279762Y-57058390D02*
X83184524Y-57106009D01*
X83184524Y-57106009D02*
X83136905Y-57153628D01*
X83136905Y-57153628D02*
X83089286Y-57248866D01*
X83089286Y-57248866D02*
X83089286Y-57439342D01*
X83089286Y-57439342D02*
X83136905Y-57534580D01*
X83136905Y-57534580D02*
X83184524Y-57582200D01*
X83184524Y-57582200D02*
X83279762Y-57629819D01*
X83279762Y-57629819D02*
X83470238Y-57629819D01*
X83470238Y-57629819D02*
X83565476Y-57582200D01*
X83565476Y-57582200D02*
X83613095Y-57534580D01*
X83613095Y-57534580D02*
X83660714Y-57439342D01*
X83660714Y-57439342D02*
X83660714Y-57248866D01*
X83660714Y-57248866D02*
X83613095Y-57153628D01*
X83613095Y-57153628D02*
X83565476Y-57106009D01*
X83565476Y-57106009D02*
X83470238Y-57058390D01*
X109091666Y-60031009D02*
X108758333Y-60031009D01*
X108758333Y-60554819D02*
X108758333Y-59554819D01*
X108758333Y-59554819D02*
X109234523Y-59554819D01*
X109948809Y-60031009D02*
X110091666Y-60078628D01*
X110091666Y-60078628D02*
X110139285Y-60126247D01*
X110139285Y-60126247D02*
X110186904Y-60221485D01*
X110186904Y-60221485D02*
X110186904Y-60364342D01*
X110186904Y-60364342D02*
X110139285Y-60459580D01*
X110139285Y-60459580D02*
X110091666Y-60507200D01*
X110091666Y-60507200D02*
X109996428Y-60554819D01*
X109996428Y-60554819D02*
X109615476Y-60554819D01*
X109615476Y-60554819D02*
X109615476Y-59554819D01*
X109615476Y-59554819D02*
X109948809Y-59554819D01*
X109948809Y-59554819D02*
X110044047Y-59602438D01*
X110044047Y-59602438D02*
X110091666Y-59650057D01*
X110091666Y-59650057D02*
X110139285Y-59745295D01*
X110139285Y-59745295D02*
X110139285Y-59840533D01*
X110139285Y-59840533D02*
X110091666Y-59935771D01*
X110091666Y-59935771D02*
X110044047Y-59983390D01*
X110044047Y-59983390D02*
X109948809Y-60031009D01*
X109948809Y-60031009D02*
X109615476Y-60031009D01*
X111139285Y-60554819D02*
X110567857Y-60554819D01*
X110853571Y-60554819D02*
X110853571Y-59554819D01*
X110853571Y-59554819D02*
X110758333Y-59697676D01*
X110758333Y-59697676D02*
X110663095Y-59792914D01*
X110663095Y-59792914D02*
X110567857Y-59840533D01*
X106161905Y-71287319D02*
X106161905Y-70287319D01*
X106161905Y-70287319D02*
X106400000Y-70287319D01*
X106400000Y-70287319D02*
X106542857Y-70334938D01*
X106542857Y-70334938D02*
X106638095Y-70430176D01*
X106638095Y-70430176D02*
X106685714Y-70525414D01*
X106685714Y-70525414D02*
X106733333Y-70715890D01*
X106733333Y-70715890D02*
X106733333Y-70858747D01*
X106733333Y-70858747D02*
X106685714Y-71049223D01*
X106685714Y-71049223D02*
X106638095Y-71144461D01*
X106638095Y-71144461D02*
X106542857Y-71239700D01*
X106542857Y-71239700D02*
X106400000Y-71287319D01*
X106400000Y-71287319D02*
X106161905Y-71287319D01*
X107114286Y-70382557D02*
X107161905Y-70334938D01*
X107161905Y-70334938D02*
X107257143Y-70287319D01*
X107257143Y-70287319D02*
X107495238Y-70287319D01*
X107495238Y-70287319D02*
X107590476Y-70334938D01*
X107590476Y-70334938D02*
X107638095Y-70382557D01*
X107638095Y-70382557D02*
X107685714Y-70477795D01*
X107685714Y-70477795D02*
X107685714Y-70573033D01*
X107685714Y-70573033D02*
X107638095Y-70715890D01*
X107638095Y-70715890D02*
X107066667Y-71287319D01*
X107066667Y-71287319D02*
X107685714Y-71287319D01*
X82658333Y-61159580D02*
X82610714Y-61207200D01*
X82610714Y-61207200D02*
X82467857Y-61254819D01*
X82467857Y-61254819D02*
X82372619Y-61254819D01*
X82372619Y-61254819D02*
X82229762Y-61207200D01*
X82229762Y-61207200D02*
X82134524Y-61111961D01*
X82134524Y-61111961D02*
X82086905Y-61016723D01*
X82086905Y-61016723D02*
X82039286Y-60826247D01*
X82039286Y-60826247D02*
X82039286Y-60683390D01*
X82039286Y-60683390D02*
X82086905Y-60492914D01*
X82086905Y-60492914D02*
X82134524Y-60397676D01*
X82134524Y-60397676D02*
X82229762Y-60302438D01*
X82229762Y-60302438D02*
X82372619Y-60254819D01*
X82372619Y-60254819D02*
X82467857Y-60254819D01*
X82467857Y-60254819D02*
X82610714Y-60302438D01*
X82610714Y-60302438D02*
X82658333Y-60350057D01*
X83134524Y-61254819D02*
X83325000Y-61254819D01*
X83325000Y-61254819D02*
X83420238Y-61207200D01*
X83420238Y-61207200D02*
X83467857Y-61159580D01*
X83467857Y-61159580D02*
X83563095Y-61016723D01*
X83563095Y-61016723D02*
X83610714Y-60826247D01*
X83610714Y-60826247D02*
X83610714Y-60445295D01*
X83610714Y-60445295D02*
X83563095Y-60350057D01*
X83563095Y-60350057D02*
X83515476Y-60302438D01*
X83515476Y-60302438D02*
X83420238Y-60254819D01*
X83420238Y-60254819D02*
X83229762Y-60254819D01*
X83229762Y-60254819D02*
X83134524Y-60302438D01*
X83134524Y-60302438D02*
X83086905Y-60350057D01*
X83086905Y-60350057D02*
X83039286Y-60445295D01*
X83039286Y-60445295D02*
X83039286Y-60683390D01*
X83039286Y-60683390D02*
X83086905Y-60778628D01*
X83086905Y-60778628D02*
X83134524Y-60826247D01*
X83134524Y-60826247D02*
X83229762Y-60873866D01*
X83229762Y-60873866D02*
X83420238Y-60873866D01*
X83420238Y-60873866D02*
X83515476Y-60826247D01*
X83515476Y-60826247D02*
X83563095Y-60778628D01*
X83563095Y-60778628D02*
X83610714Y-60683390D01*
X83408333Y-64709580D02*
X83360714Y-64757200D01*
X83360714Y-64757200D02*
X83217857Y-64804819D01*
X83217857Y-64804819D02*
X83122619Y-64804819D01*
X83122619Y-64804819D02*
X82979762Y-64757200D01*
X82979762Y-64757200D02*
X82884524Y-64661961D01*
X82884524Y-64661961D02*
X82836905Y-64566723D01*
X82836905Y-64566723D02*
X82789286Y-64376247D01*
X82789286Y-64376247D02*
X82789286Y-64233390D01*
X82789286Y-64233390D02*
X82836905Y-64042914D01*
X82836905Y-64042914D02*
X82884524Y-63947676D01*
X82884524Y-63947676D02*
X82979762Y-63852438D01*
X82979762Y-63852438D02*
X83122619Y-63804819D01*
X83122619Y-63804819D02*
X83217857Y-63804819D01*
X83217857Y-63804819D02*
X83360714Y-63852438D01*
X83360714Y-63852438D02*
X83408333Y-63900057D01*
X84265476Y-63804819D02*
X84075000Y-63804819D01*
X84075000Y-63804819D02*
X83979762Y-63852438D01*
X83979762Y-63852438D02*
X83932143Y-63900057D01*
X83932143Y-63900057D02*
X83836905Y-64042914D01*
X83836905Y-64042914D02*
X83789286Y-64233390D01*
X83789286Y-64233390D02*
X83789286Y-64614342D01*
X83789286Y-64614342D02*
X83836905Y-64709580D01*
X83836905Y-64709580D02*
X83884524Y-64757200D01*
X83884524Y-64757200D02*
X83979762Y-64804819D01*
X83979762Y-64804819D02*
X84170238Y-64804819D01*
X84170238Y-64804819D02*
X84265476Y-64757200D01*
X84265476Y-64757200D02*
X84313095Y-64709580D01*
X84313095Y-64709580D02*
X84360714Y-64614342D01*
X84360714Y-64614342D02*
X84360714Y-64376247D01*
X84360714Y-64376247D02*
X84313095Y-64281009D01*
X84313095Y-64281009D02*
X84265476Y-64233390D01*
X84265476Y-64233390D02*
X84170238Y-64185771D01*
X84170238Y-64185771D02*
X83979762Y-64185771D01*
X83979762Y-64185771D02*
X83884524Y-64233390D01*
X83884524Y-64233390D02*
X83836905Y-64281009D01*
X83836905Y-64281009D02*
X83789286Y-64376247D01*
X106479642Y-63182080D02*
X106432023Y-63229700D01*
X106432023Y-63229700D02*
X106289166Y-63277319D01*
X106289166Y-63277319D02*
X106193928Y-63277319D01*
X106193928Y-63277319D02*
X106051071Y-63229700D01*
X106051071Y-63229700D02*
X105955833Y-63134461D01*
X105955833Y-63134461D02*
X105908214Y-63039223D01*
X105908214Y-63039223D02*
X105860595Y-62848747D01*
X105860595Y-62848747D02*
X105860595Y-62705890D01*
X105860595Y-62705890D02*
X105908214Y-62515414D01*
X105908214Y-62515414D02*
X105955833Y-62420176D01*
X105955833Y-62420176D02*
X106051071Y-62324938D01*
X106051071Y-62324938D02*
X106193928Y-62277319D01*
X106193928Y-62277319D02*
X106289166Y-62277319D01*
X106289166Y-62277319D02*
X106432023Y-62324938D01*
X106432023Y-62324938D02*
X106479642Y-62372557D01*
X107432023Y-63277319D02*
X106860595Y-63277319D01*
X107146309Y-63277319D02*
X107146309Y-62277319D01*
X107146309Y-62277319D02*
X107051071Y-62420176D01*
X107051071Y-62420176D02*
X106955833Y-62515414D01*
X106955833Y-62515414D02*
X106860595Y-62563033D01*
X108051071Y-62277319D02*
X108146309Y-62277319D01*
X108146309Y-62277319D02*
X108241547Y-62324938D01*
X108241547Y-62324938D02*
X108289166Y-62372557D01*
X108289166Y-62372557D02*
X108336785Y-62467795D01*
X108336785Y-62467795D02*
X108384404Y-62658271D01*
X108384404Y-62658271D02*
X108384404Y-62896366D01*
X108384404Y-62896366D02*
X108336785Y-63086842D01*
X108336785Y-63086842D02*
X108289166Y-63182080D01*
X108289166Y-63182080D02*
X108241547Y-63229700D01*
X108241547Y-63229700D02*
X108146309Y-63277319D01*
X108146309Y-63277319D02*
X108051071Y-63277319D01*
X108051071Y-63277319D02*
X107955833Y-63229700D01*
X107955833Y-63229700D02*
X107908214Y-63182080D01*
X107908214Y-63182080D02*
X107860595Y-63086842D01*
X107860595Y-63086842D02*
X107812976Y-62896366D01*
X107812976Y-62896366D02*
X107812976Y-62658271D01*
X107812976Y-62658271D02*
X107860595Y-62467795D01*
X107860595Y-62467795D02*
X107908214Y-62372557D01*
X107908214Y-62372557D02*
X107955833Y-62324938D01*
X107955833Y-62324938D02*
X108051071Y-62277319D01*
X89583333Y-53334580D02*
X89535714Y-53382200D01*
X89535714Y-53382200D02*
X89392857Y-53429819D01*
X89392857Y-53429819D02*
X89297619Y-53429819D01*
X89297619Y-53429819D02*
X89154762Y-53382200D01*
X89154762Y-53382200D02*
X89059524Y-53286961D01*
X89059524Y-53286961D02*
X89011905Y-53191723D01*
X89011905Y-53191723D02*
X88964286Y-53001247D01*
X88964286Y-53001247D02*
X88964286Y-52858390D01*
X88964286Y-52858390D02*
X89011905Y-52667914D01*
X89011905Y-52667914D02*
X89059524Y-52572676D01*
X89059524Y-52572676D02*
X89154762Y-52477438D01*
X89154762Y-52477438D02*
X89297619Y-52429819D01*
X89297619Y-52429819D02*
X89392857Y-52429819D01*
X89392857Y-52429819D02*
X89535714Y-52477438D01*
X89535714Y-52477438D02*
X89583333Y-52525057D01*
X90488095Y-52429819D02*
X90011905Y-52429819D01*
X90011905Y-52429819D02*
X89964286Y-52906009D01*
X89964286Y-52906009D02*
X90011905Y-52858390D01*
X90011905Y-52858390D02*
X90107143Y-52810771D01*
X90107143Y-52810771D02*
X90345238Y-52810771D01*
X90345238Y-52810771D02*
X90440476Y-52858390D01*
X90440476Y-52858390D02*
X90488095Y-52906009D01*
X90488095Y-52906009D02*
X90535714Y-53001247D01*
X90535714Y-53001247D02*
X90535714Y-53239342D01*
X90535714Y-53239342D02*
X90488095Y-53334580D01*
X90488095Y-53334580D02*
X90440476Y-53382200D01*
X90440476Y-53382200D02*
X90345238Y-53429819D01*
X90345238Y-53429819D02*
X90107143Y-53429819D01*
X90107143Y-53429819D02*
X90011905Y-53382200D01*
X90011905Y-53382200D02*
X89964286Y-53334580D01*
X81558333Y-64684580D02*
X81510714Y-64732200D01*
X81510714Y-64732200D02*
X81367857Y-64779819D01*
X81367857Y-64779819D02*
X81272619Y-64779819D01*
X81272619Y-64779819D02*
X81129762Y-64732200D01*
X81129762Y-64732200D02*
X81034524Y-64636961D01*
X81034524Y-64636961D02*
X80986905Y-64541723D01*
X80986905Y-64541723D02*
X80939286Y-64351247D01*
X80939286Y-64351247D02*
X80939286Y-64208390D01*
X80939286Y-64208390D02*
X80986905Y-64017914D01*
X80986905Y-64017914D02*
X81034524Y-63922676D01*
X81034524Y-63922676D02*
X81129762Y-63827438D01*
X81129762Y-63827438D02*
X81272619Y-63779819D01*
X81272619Y-63779819D02*
X81367857Y-63779819D01*
X81367857Y-63779819D02*
X81510714Y-63827438D01*
X81510714Y-63827438D02*
X81558333Y-63875057D01*
X81891667Y-63779819D02*
X82558333Y-63779819D01*
X82558333Y-63779819D02*
X82129762Y-64779819D01*
X83191666Y-48229819D02*
X83191666Y-48944104D01*
X83191666Y-48944104D02*
X83144047Y-49086961D01*
X83144047Y-49086961D02*
X83048809Y-49182200D01*
X83048809Y-49182200D02*
X82905952Y-49229819D01*
X82905952Y-49229819D02*
X82810714Y-49229819D01*
X83667857Y-49229819D02*
X83667857Y-48229819D01*
X83667857Y-48229819D02*
X84048809Y-48229819D01*
X84048809Y-48229819D02*
X84144047Y-48277438D01*
X84144047Y-48277438D02*
X84191666Y-48325057D01*
X84191666Y-48325057D02*
X84239285Y-48420295D01*
X84239285Y-48420295D02*
X84239285Y-48563152D01*
X84239285Y-48563152D02*
X84191666Y-48658390D01*
X84191666Y-48658390D02*
X84144047Y-48706009D01*
X84144047Y-48706009D02*
X84048809Y-48753628D01*
X84048809Y-48753628D02*
X83667857Y-48753628D01*
X85191666Y-49229819D02*
X84620238Y-49229819D01*
X84905952Y-49229819D02*
X84905952Y-48229819D01*
X84905952Y-48229819D02*
X84810714Y-48372676D01*
X84810714Y-48372676D02*
X84715476Y-48467914D01*
X84715476Y-48467914D02*
X84620238Y-48515533D01*
X84383333Y-61254819D02*
X83907143Y-61254819D01*
X83907143Y-61254819D02*
X83907143Y-60254819D01*
X85240476Y-61254819D02*
X84669048Y-61254819D01*
X84954762Y-61254819D02*
X84954762Y-60254819D01*
X84954762Y-60254819D02*
X84859524Y-60397676D01*
X84859524Y-60397676D02*
X84764286Y-60492914D01*
X84764286Y-60492914D02*
X84669048Y-60540533D01*
X96633333Y-54309580D02*
X96585714Y-54357200D01*
X96585714Y-54357200D02*
X96442857Y-54404819D01*
X96442857Y-54404819D02*
X96347619Y-54404819D01*
X96347619Y-54404819D02*
X96204762Y-54357200D01*
X96204762Y-54357200D02*
X96109524Y-54261961D01*
X96109524Y-54261961D02*
X96061905Y-54166723D01*
X96061905Y-54166723D02*
X96014286Y-53976247D01*
X96014286Y-53976247D02*
X96014286Y-53833390D01*
X96014286Y-53833390D02*
X96061905Y-53642914D01*
X96061905Y-53642914D02*
X96109524Y-53547676D01*
X96109524Y-53547676D02*
X96204762Y-53452438D01*
X96204762Y-53452438D02*
X96347619Y-53404819D01*
X96347619Y-53404819D02*
X96442857Y-53404819D01*
X96442857Y-53404819D02*
X96585714Y-53452438D01*
X96585714Y-53452438D02*
X96633333Y-53500057D01*
X97490476Y-53738152D02*
X97490476Y-54404819D01*
X97252381Y-53357200D02*
X97014286Y-54071485D01*
X97014286Y-54071485D02*
X97633333Y-54071485D01*
X82498809Y-59028628D02*
X82498809Y-59504819D01*
X82165476Y-58504819D02*
X82498809Y-59028628D01*
X82498809Y-59028628D02*
X82832142Y-58504819D01*
X83689285Y-59504819D02*
X83117857Y-59504819D01*
X83403571Y-59504819D02*
X83403571Y-58504819D01*
X83403571Y-58504819D02*
X83308333Y-58647676D01*
X83308333Y-58647676D02*
X83213095Y-58742914D01*
X83213095Y-58742914D02*
X83117857Y-58790533D01*
X102563095Y-54954819D02*
X102563095Y-55764342D01*
X102563095Y-55764342D02*
X102610714Y-55859580D01*
X102610714Y-55859580D02*
X102658333Y-55907200D01*
X102658333Y-55907200D02*
X102753571Y-55954819D01*
X102753571Y-55954819D02*
X102944047Y-55954819D01*
X102944047Y-55954819D02*
X103039285Y-55907200D01*
X103039285Y-55907200D02*
X103086904Y-55859580D01*
X103086904Y-55859580D02*
X103134523Y-55764342D01*
X103134523Y-55764342D02*
X103134523Y-54954819D01*
X103563095Y-55050057D02*
X103610714Y-55002438D01*
X103610714Y-55002438D02*
X103705952Y-54954819D01*
X103705952Y-54954819D02*
X103944047Y-54954819D01*
X103944047Y-54954819D02*
X104039285Y-55002438D01*
X104039285Y-55002438D02*
X104086904Y-55050057D01*
X104086904Y-55050057D02*
X104134523Y-55145295D01*
X104134523Y-55145295D02*
X104134523Y-55240533D01*
X104134523Y-55240533D02*
X104086904Y-55383390D01*
X104086904Y-55383390D02*
X103515476Y-55954819D01*
X103515476Y-55954819D02*
X104134523Y-55954819D01*
X83186905Y-68654819D02*
X83186905Y-67654819D01*
X83186905Y-67654819D02*
X83425000Y-67654819D01*
X83425000Y-67654819D02*
X83567857Y-67702438D01*
X83567857Y-67702438D02*
X83663095Y-67797676D01*
X83663095Y-67797676D02*
X83710714Y-67892914D01*
X83710714Y-67892914D02*
X83758333Y-68083390D01*
X83758333Y-68083390D02*
X83758333Y-68226247D01*
X83758333Y-68226247D02*
X83710714Y-68416723D01*
X83710714Y-68416723D02*
X83663095Y-68511961D01*
X83663095Y-68511961D02*
X83567857Y-68607200D01*
X83567857Y-68607200D02*
X83425000Y-68654819D01*
X83425000Y-68654819D02*
X83186905Y-68654819D01*
X84710714Y-68654819D02*
X84139286Y-68654819D01*
X84425000Y-68654819D02*
X84425000Y-67654819D01*
X84425000Y-67654819D02*
X84329762Y-67797676D01*
X84329762Y-67797676D02*
X84234524Y-67892914D01*
X84234524Y-67892914D02*
X84139286Y-67940533D01*
X103732142Y-68084580D02*
X103684523Y-68132200D01*
X103684523Y-68132200D02*
X103541666Y-68179819D01*
X103541666Y-68179819D02*
X103446428Y-68179819D01*
X103446428Y-68179819D02*
X103303571Y-68132200D01*
X103303571Y-68132200D02*
X103208333Y-68036961D01*
X103208333Y-68036961D02*
X103160714Y-67941723D01*
X103160714Y-67941723D02*
X103113095Y-67751247D01*
X103113095Y-67751247D02*
X103113095Y-67608390D01*
X103113095Y-67608390D02*
X103160714Y-67417914D01*
X103160714Y-67417914D02*
X103208333Y-67322676D01*
X103208333Y-67322676D02*
X103303571Y-67227438D01*
X103303571Y-67227438D02*
X103446428Y-67179819D01*
X103446428Y-67179819D02*
X103541666Y-67179819D01*
X103541666Y-67179819D02*
X103684523Y-67227438D01*
X103684523Y-67227438D02*
X103732142Y-67275057D01*
X104684523Y-68179819D02*
X104113095Y-68179819D01*
X104398809Y-68179819D02*
X104398809Y-67179819D01*
X104398809Y-67179819D02*
X104303571Y-67322676D01*
X104303571Y-67322676D02*
X104208333Y-67417914D01*
X104208333Y-67417914D02*
X104113095Y-67465533D01*
X105636904Y-68179819D02*
X105065476Y-68179819D01*
X105351190Y-68179819D02*
X105351190Y-67179819D01*
X105351190Y-67179819D02*
X105255952Y-67322676D01*
X105255952Y-67322676D02*
X105160714Y-67417914D01*
X105160714Y-67417914D02*
X105065476Y-67465533D01*
D13*
%TO.C,J2*%
X72110000Y-43970000D02*
X72110000Y-46630000D01*
X110270000Y-43970000D02*
X72110000Y-43970000D01*
X110270000Y-43970000D02*
X110270000Y-46630000D01*
X110270000Y-46630000D02*
X72110000Y-46630000D01*
X111540000Y-43970000D02*
X112870000Y-43970000D01*
X112870000Y-43970000D02*
X112870000Y-45300000D01*
%TO.C,U3*%
X107487500Y-64980000D02*
X106687500Y-64980000D01*
X107487500Y-64980000D02*
X108287500Y-64980000D01*
X107487500Y-68100000D02*
X106687500Y-68100000D01*
X107487500Y-68100000D02*
X108287500Y-68100000D01*
X106187500Y-65030000D02*
X105947500Y-64700000D01*
X106427500Y-64700000D01*
X106187500Y-65030000D01*
G36*
X106187500Y-65030000D02*
G01*
X105947500Y-64700000D01*
X106427500Y-64700000D01*
X106187500Y-65030000D01*
G37*
%TO.C,R4*%
X109015000Y-69940242D02*
X109015000Y-70414758D01*
X110060000Y-69940242D02*
X110060000Y-70414758D01*
%TO.C,R3*%
X81287258Y-66097500D02*
X80812742Y-66097500D01*
X81287258Y-67142500D02*
X80812742Y-67142500D01*
%TO.C,C1*%
X84515580Y-52540000D02*
X84234420Y-52540000D01*
X84515580Y-53560000D02*
X84234420Y-53560000D01*
%TO.C,U1*%
X87032500Y-55580000D02*
X87032500Y-56030000D01*
X87032500Y-62800000D02*
X87032500Y-62350000D01*
X87482500Y-55580000D02*
X87032500Y-55580000D01*
X87482500Y-62800000D02*
X87032500Y-62800000D01*
X93802500Y-55580000D02*
X94252500Y-55580000D01*
X93802500Y-62800000D02*
X94252500Y-62800000D01*
X94252500Y-55580000D02*
X94252500Y-56030000D01*
X94252500Y-62800000D02*
X94252500Y-62350000D01*
X86442500Y-56030000D02*
X86102500Y-55560000D01*
X86782500Y-55560000D01*
X86442500Y-56030000D01*
G36*
X86442500Y-56030000D02*
G01*
X86102500Y-55560000D01*
X86782500Y-55560000D01*
X86442500Y-56030000D01*
G37*
%TO.C,J4*%
X69370000Y-61435000D02*
X69370000Y-53755000D01*
X72030000Y-53755000D02*
X69370000Y-53755000D01*
X72030000Y-61435000D02*
X69370000Y-61435000D01*
X72030000Y-61435000D02*
X72030000Y-53755000D01*
X72030000Y-62705000D02*
X72030000Y-64035000D01*
X72030000Y-64035000D02*
X70700000Y-64035000D01*
%TO.C,R1*%
X87371359Y-51195000D02*
X87678641Y-51195000D01*
X87371359Y-51955000D02*
X87678641Y-51955000D01*
%TO.C,R2*%
X99902500Y-56337742D02*
X99902500Y-56812258D01*
X100947500Y-56337742D02*
X100947500Y-56812258D01*
%TO.C,C2*%
X84590000Y-55057836D02*
X84590000Y-54842164D01*
X85310000Y-55057836D02*
X85310000Y-54842164D01*
%TO.C,C3*%
X94100000Y-65022164D02*
X94100000Y-65237836D01*
X94820000Y-65022164D02*
X94820000Y-65237836D01*
%TO.C,C8*%
X81182836Y-57260000D02*
X80967164Y-57260000D01*
X81182836Y-57980000D02*
X80967164Y-57980000D01*
%TO.C,FB1*%
X109277500Y-62177878D02*
X109277500Y-62977122D01*
X110397500Y-62177878D02*
X110397500Y-62977122D01*
%TO.C,D2*%
X106100000Y-70137500D02*
X108385000Y-70137500D01*
X108385000Y-68667500D02*
X106100000Y-68667500D01*
X108385000Y-70137500D02*
X108385000Y-68667500D01*
%TO.C,C9*%
X81192836Y-60440000D02*
X80977164Y-60440000D01*
X81192836Y-61160000D02*
X80977164Y-61160000D01*
%TO.C,C6*%
X82860000Y-62392164D02*
X82860000Y-62607836D01*
X83580000Y-62392164D02*
X83580000Y-62607836D01*
%TO.C,C10*%
X106985336Y-63712500D02*
X106769664Y-63712500D01*
X106985336Y-64432500D02*
X106769664Y-64432500D01*
%TO.C,C5*%
X87717164Y-52615000D02*
X87932836Y-52615000D01*
X87717164Y-53335000D02*
X87932836Y-53335000D01*
%TO.C,C7*%
X81660000Y-62417164D02*
X81660000Y-62632836D01*
X82380000Y-62417164D02*
X82380000Y-62632836D01*
%TO.C,JP1*%
X82850000Y-49675000D02*
X85650000Y-49675000D01*
X82850000Y-51675000D02*
X82850000Y-49675000D01*
X85650000Y-49675000D02*
X85650000Y-51675000D01*
X85650000Y-51675000D02*
X82850000Y-51675000D01*
%TO.C,C4*%
X96365000Y-55397164D02*
X96365000Y-55612836D01*
X97085000Y-55397164D02*
X97085000Y-55612836D01*
%TO.C,Y1*%
X81145000Y-59036359D02*
X81145000Y-59343641D01*
X81905000Y-59036359D02*
X81905000Y-59343641D01*
D12*
%TO.C,J1*%
X112445000Y-59365000D02*
X112445000Y-60090000D01*
X112445000Y-60090000D02*
X112870000Y-60090000D01*
X112870000Y-56490000D02*
X112870000Y-55490000D01*
X112870000Y-60090000D02*
X112870000Y-61090000D01*
X114620000Y-62440000D02*
X116020000Y-62440000D01*
X116020000Y-54140000D02*
X114620000Y-54140000D01*
X118420000Y-62440000D02*
X118570000Y-62440000D01*
X118570000Y-54140000D02*
X118420000Y-54140000D01*
X118570000Y-54440000D02*
X118570000Y-54140000D01*
X118570000Y-62140000D02*
X119020000Y-62140000D01*
X118570000Y-62440000D02*
X118570000Y-62140000D01*
X119020000Y-54440000D02*
X118570000Y-54440000D01*
D13*
%TO.C,U2*%
X105497500Y-56300000D02*
X104697500Y-56300000D01*
X105497500Y-56300000D02*
X106297500Y-56300000D01*
X105497500Y-59420000D02*
X104697500Y-59420000D01*
X105497500Y-59420000D02*
X106297500Y-59420000D01*
X107037500Y-59700000D02*
X106557500Y-59700000D01*
X106797500Y-59370000D01*
X107037500Y-59700000D01*
G36*
X107037500Y-59700000D02*
G01*
X106557500Y-59700000D01*
X106797500Y-59370000D01*
X107037500Y-59700000D01*
G37*
%TO.C,J3*%
X72170000Y-72780000D02*
X72170000Y-75440000D01*
X110330000Y-72780000D02*
X72170000Y-72780000D01*
X110330000Y-72780000D02*
X110330000Y-75440000D01*
X110330000Y-75440000D02*
X72170000Y-75440000D01*
X111600000Y-72780000D02*
X112930000Y-72780000D01*
X112930000Y-72780000D02*
X112930000Y-74110000D01*
%TO.C,D1*%
X82985000Y-65885000D02*
X82985000Y-67355000D01*
X82985000Y-67355000D02*
X85270000Y-67355000D01*
X85270000Y-65885000D02*
X82985000Y-65885000D01*
%TO.C,C11*%
X104210000Y-66227836D02*
X104210000Y-66012164D01*
X104930000Y-66227836D02*
X104930000Y-66012164D01*
%TD*%
M02*
