%TF.GenerationSoftware,KiCad,Pcbnew,8.0.5*%
%TF.CreationDate,2025-01-04T11:00:39+02:00*%
%TF.ProjectId,STM32F103,53544d33-3246-4313-9033-2e6b69636164,rev?*%
%TF.SameCoordinates,Original*%
%TF.FileFunction,Legend,Bot*%
%TF.FilePolarity,Positive*%
%FSLAX46Y46*%
G04 Gerber Fmt 4.6, Leading zero omitted, Abs format (unit mm)*
G04 Created by KiCad (PCBNEW 8.0.5) date 2025-01-04 11:00:39*
%MOMM*%
%LPD*%
G01*
G04 APERTURE LIST*
%ADD10C,0.100000*%
G04 APERTURE END LIST*
D10*
X118625163Y-71733609D02*
X118625163Y-71233609D01*
X118410877Y-71733609D02*
X118410877Y-71471704D01*
X118410877Y-71471704D02*
X118434687Y-71424085D01*
X118434687Y-71424085D02*
X118482306Y-71400276D01*
X118482306Y-71400276D02*
X118553734Y-71400276D01*
X118553734Y-71400276D02*
X118601353Y-71424085D01*
X118601353Y-71424085D02*
X118625163Y-71447895D01*
X118244210Y-71400276D02*
X118053734Y-71400276D01*
X118172782Y-71233609D02*
X118172782Y-71662180D01*
X118172782Y-71662180D02*
X118148972Y-71709800D01*
X118148972Y-71709800D02*
X118101353Y-71733609D01*
X118101353Y-71733609D02*
X118053734Y-71733609D01*
X117958496Y-71400276D02*
X117768020Y-71400276D01*
X117887068Y-71233609D02*
X117887068Y-71662180D01*
X117887068Y-71662180D02*
X117863258Y-71709800D01*
X117863258Y-71709800D02*
X117815639Y-71733609D01*
X117815639Y-71733609D02*
X117768020Y-71733609D01*
X117601354Y-71400276D02*
X117601354Y-71900276D01*
X117601354Y-71424085D02*
X117553735Y-71400276D01*
X117553735Y-71400276D02*
X117458497Y-71400276D01*
X117458497Y-71400276D02*
X117410878Y-71424085D01*
X117410878Y-71424085D02*
X117387068Y-71447895D01*
X117387068Y-71447895D02*
X117363259Y-71495514D01*
X117363259Y-71495514D02*
X117363259Y-71638371D01*
X117363259Y-71638371D02*
X117387068Y-71685990D01*
X117387068Y-71685990D02*
X117410878Y-71709800D01*
X117410878Y-71709800D02*
X117458497Y-71733609D01*
X117458497Y-71733609D02*
X117553735Y-71733609D01*
X117553735Y-71733609D02*
X117601354Y-71709800D01*
X117172782Y-71709800D02*
X117125163Y-71733609D01*
X117125163Y-71733609D02*
X117029925Y-71733609D01*
X117029925Y-71733609D02*
X116982306Y-71709800D01*
X116982306Y-71709800D02*
X116958497Y-71662180D01*
X116958497Y-71662180D02*
X116958497Y-71638371D01*
X116958497Y-71638371D02*
X116982306Y-71590752D01*
X116982306Y-71590752D02*
X117029925Y-71566942D01*
X117029925Y-71566942D02*
X117101354Y-71566942D01*
X117101354Y-71566942D02*
X117148973Y-71543133D01*
X117148973Y-71543133D02*
X117172782Y-71495514D01*
X117172782Y-71495514D02*
X117172782Y-71471704D01*
X117172782Y-71471704D02*
X117148973Y-71424085D01*
X117148973Y-71424085D02*
X117101354Y-71400276D01*
X117101354Y-71400276D02*
X117029925Y-71400276D01*
X117029925Y-71400276D02*
X116982306Y-71424085D01*
X116744211Y-71685990D02*
X116720401Y-71709800D01*
X116720401Y-71709800D02*
X116744211Y-71733609D01*
X116744211Y-71733609D02*
X116768020Y-71709800D01*
X116768020Y-71709800D02*
X116744211Y-71685990D01*
X116744211Y-71685990D02*
X116744211Y-71733609D01*
X116744211Y-71424085D02*
X116720401Y-71447895D01*
X116720401Y-71447895D02*
X116744211Y-71471704D01*
X116744211Y-71471704D02*
X116768020Y-71447895D01*
X116768020Y-71447895D02*
X116744211Y-71424085D01*
X116744211Y-71424085D02*
X116744211Y-71471704D01*
X116148973Y-71209800D02*
X116577544Y-71852657D01*
X115625163Y-71209800D02*
X116053734Y-71852657D01*
X115244210Y-71400276D02*
X115244210Y-71805038D01*
X115244210Y-71805038D02*
X115268020Y-71852657D01*
X115268020Y-71852657D02*
X115291829Y-71876466D01*
X115291829Y-71876466D02*
X115339448Y-71900276D01*
X115339448Y-71900276D02*
X115410877Y-71900276D01*
X115410877Y-71900276D02*
X115458496Y-71876466D01*
X115244210Y-71709800D02*
X115291829Y-71733609D01*
X115291829Y-71733609D02*
X115387067Y-71733609D01*
X115387067Y-71733609D02*
X115434686Y-71709800D01*
X115434686Y-71709800D02*
X115458496Y-71685990D01*
X115458496Y-71685990D02*
X115482305Y-71638371D01*
X115482305Y-71638371D02*
X115482305Y-71495514D01*
X115482305Y-71495514D02*
X115458496Y-71447895D01*
X115458496Y-71447895D02*
X115434686Y-71424085D01*
X115434686Y-71424085D02*
X115387067Y-71400276D01*
X115387067Y-71400276D02*
X115291829Y-71400276D01*
X115291829Y-71400276D02*
X115244210Y-71424085D01*
X115006115Y-71733609D02*
X115006115Y-71400276D01*
X115006115Y-71233609D02*
X115029924Y-71257419D01*
X115029924Y-71257419D02*
X115006115Y-71281228D01*
X115006115Y-71281228D02*
X114982305Y-71257419D01*
X114982305Y-71257419D02*
X115006115Y-71233609D01*
X115006115Y-71233609D02*
X115006115Y-71281228D01*
X114839448Y-71400276D02*
X114648972Y-71400276D01*
X114768020Y-71233609D02*
X114768020Y-71662180D01*
X114768020Y-71662180D02*
X114744210Y-71709800D01*
X114744210Y-71709800D02*
X114696591Y-71733609D01*
X114696591Y-71733609D02*
X114648972Y-71733609D01*
X114482306Y-71733609D02*
X114482306Y-71233609D01*
X114268020Y-71733609D02*
X114268020Y-71471704D01*
X114268020Y-71471704D02*
X114291830Y-71424085D01*
X114291830Y-71424085D02*
X114339449Y-71400276D01*
X114339449Y-71400276D02*
X114410877Y-71400276D01*
X114410877Y-71400276D02*
X114458496Y-71424085D01*
X114458496Y-71424085D02*
X114482306Y-71447895D01*
X113815639Y-71400276D02*
X113815639Y-71733609D01*
X114029925Y-71400276D02*
X114029925Y-71662180D01*
X114029925Y-71662180D02*
X114006115Y-71709800D01*
X114006115Y-71709800D02*
X113958496Y-71733609D01*
X113958496Y-71733609D02*
X113887068Y-71733609D01*
X113887068Y-71733609D02*
X113839449Y-71709800D01*
X113839449Y-71709800D02*
X113815639Y-71685990D01*
X113577544Y-71733609D02*
X113577544Y-71233609D01*
X113577544Y-71424085D02*
X113529925Y-71400276D01*
X113529925Y-71400276D02*
X113434687Y-71400276D01*
X113434687Y-71400276D02*
X113387068Y-71424085D01*
X113387068Y-71424085D02*
X113363258Y-71447895D01*
X113363258Y-71447895D02*
X113339449Y-71495514D01*
X113339449Y-71495514D02*
X113339449Y-71638371D01*
X113339449Y-71638371D02*
X113363258Y-71685990D01*
X113363258Y-71685990D02*
X113387068Y-71709800D01*
X113387068Y-71709800D02*
X113434687Y-71733609D01*
X113434687Y-71733609D02*
X113529925Y-71733609D01*
X113529925Y-71733609D02*
X113577544Y-71709800D01*
X113125163Y-71685990D02*
X113101353Y-71709800D01*
X113101353Y-71709800D02*
X113125163Y-71733609D01*
X113125163Y-71733609D02*
X113148972Y-71709800D01*
X113148972Y-71709800D02*
X113125163Y-71685990D01*
X113125163Y-71685990D02*
X113125163Y-71733609D01*
X112672782Y-71709800D02*
X112720401Y-71733609D01*
X112720401Y-71733609D02*
X112815639Y-71733609D01*
X112815639Y-71733609D02*
X112863258Y-71709800D01*
X112863258Y-71709800D02*
X112887068Y-71685990D01*
X112887068Y-71685990D02*
X112910877Y-71638371D01*
X112910877Y-71638371D02*
X112910877Y-71495514D01*
X112910877Y-71495514D02*
X112887068Y-71447895D01*
X112887068Y-71447895D02*
X112863258Y-71424085D01*
X112863258Y-71424085D02*
X112815639Y-71400276D01*
X112815639Y-71400276D02*
X112720401Y-71400276D01*
X112720401Y-71400276D02*
X112672782Y-71424085D01*
X112387068Y-71733609D02*
X112434687Y-71709800D01*
X112434687Y-71709800D02*
X112458497Y-71685990D01*
X112458497Y-71685990D02*
X112482306Y-71638371D01*
X112482306Y-71638371D02*
X112482306Y-71495514D01*
X112482306Y-71495514D02*
X112458497Y-71447895D01*
X112458497Y-71447895D02*
X112434687Y-71424085D01*
X112434687Y-71424085D02*
X112387068Y-71400276D01*
X112387068Y-71400276D02*
X112315640Y-71400276D01*
X112315640Y-71400276D02*
X112268021Y-71424085D01*
X112268021Y-71424085D02*
X112244211Y-71447895D01*
X112244211Y-71447895D02*
X112220402Y-71495514D01*
X112220402Y-71495514D02*
X112220402Y-71638371D01*
X112220402Y-71638371D02*
X112244211Y-71685990D01*
X112244211Y-71685990D02*
X112268021Y-71709800D01*
X112268021Y-71709800D02*
X112315640Y-71733609D01*
X112315640Y-71733609D02*
X112387068Y-71733609D01*
X112006116Y-71733609D02*
X112006116Y-71400276D01*
X112006116Y-71447895D02*
X111982306Y-71424085D01*
X111982306Y-71424085D02*
X111934687Y-71400276D01*
X111934687Y-71400276D02*
X111863259Y-71400276D01*
X111863259Y-71400276D02*
X111815640Y-71424085D01*
X111815640Y-71424085D02*
X111791830Y-71471704D01*
X111791830Y-71471704D02*
X111791830Y-71733609D01*
X111791830Y-71471704D02*
X111768021Y-71424085D01*
X111768021Y-71424085D02*
X111720402Y-71400276D01*
X111720402Y-71400276D02*
X111648973Y-71400276D01*
X111648973Y-71400276D02*
X111601354Y-71424085D01*
X111601354Y-71424085D02*
X111577544Y-71471704D01*
X111577544Y-71471704D02*
X111577544Y-71733609D01*
X110982306Y-71209800D02*
X111410877Y-71852657D01*
X110887067Y-71400276D02*
X110696591Y-71400276D01*
X110815639Y-71233609D02*
X110815639Y-71662180D01*
X110815639Y-71662180D02*
X110791829Y-71709800D01*
X110791829Y-71709800D02*
X110744210Y-71733609D01*
X110744210Y-71733609D02*
X110696591Y-71733609D01*
X110553734Y-71709800D02*
X110506115Y-71733609D01*
X110506115Y-71733609D02*
X110410877Y-71733609D01*
X110410877Y-71733609D02*
X110363258Y-71709800D01*
X110363258Y-71709800D02*
X110339449Y-71662180D01*
X110339449Y-71662180D02*
X110339449Y-71638371D01*
X110339449Y-71638371D02*
X110363258Y-71590752D01*
X110363258Y-71590752D02*
X110410877Y-71566942D01*
X110410877Y-71566942D02*
X110482306Y-71566942D01*
X110482306Y-71566942D02*
X110529925Y-71543133D01*
X110529925Y-71543133D02*
X110553734Y-71495514D01*
X110553734Y-71495514D02*
X110553734Y-71471704D01*
X110553734Y-71471704D02*
X110529925Y-71424085D01*
X110529925Y-71424085D02*
X110482306Y-71400276D01*
X110482306Y-71400276D02*
X110410877Y-71400276D01*
X110410877Y-71400276D02*
X110363258Y-71424085D01*
X110053734Y-71733609D02*
X110101353Y-71709800D01*
X110101353Y-71709800D02*
X110125163Y-71685990D01*
X110125163Y-71685990D02*
X110148972Y-71638371D01*
X110148972Y-71638371D02*
X110148972Y-71495514D01*
X110148972Y-71495514D02*
X110125163Y-71447895D01*
X110125163Y-71447895D02*
X110101353Y-71424085D01*
X110101353Y-71424085D02*
X110053734Y-71400276D01*
X110053734Y-71400276D02*
X109982306Y-71400276D01*
X109982306Y-71400276D02*
X109934687Y-71424085D01*
X109934687Y-71424085D02*
X109910877Y-71447895D01*
X109910877Y-71447895D02*
X109887068Y-71495514D01*
X109887068Y-71495514D02*
X109887068Y-71638371D01*
X109887068Y-71638371D02*
X109910877Y-71685990D01*
X109910877Y-71685990D02*
X109934687Y-71709800D01*
X109934687Y-71709800D02*
X109982306Y-71733609D01*
X109982306Y-71733609D02*
X110053734Y-71733609D01*
X109672782Y-71733609D02*
X109672782Y-71233609D01*
X109625163Y-71543133D02*
X109482306Y-71733609D01*
X109482306Y-71400276D02*
X109672782Y-71590752D01*
X109196591Y-71733609D02*
X109244210Y-71709800D01*
X109244210Y-71709800D02*
X109268020Y-71685990D01*
X109268020Y-71685990D02*
X109291829Y-71638371D01*
X109291829Y-71638371D02*
X109291829Y-71495514D01*
X109291829Y-71495514D02*
X109268020Y-71447895D01*
X109268020Y-71447895D02*
X109244210Y-71424085D01*
X109244210Y-71424085D02*
X109196591Y-71400276D01*
X109196591Y-71400276D02*
X109125163Y-71400276D01*
X109125163Y-71400276D02*
X109077544Y-71424085D01*
X109077544Y-71424085D02*
X109053734Y-71447895D01*
X109053734Y-71447895D02*
X109029925Y-71495514D01*
X109029925Y-71495514D02*
X109029925Y-71638371D01*
X109029925Y-71638371D02*
X109053734Y-71685990D01*
X109053734Y-71685990D02*
X109077544Y-71709800D01*
X109077544Y-71709800D02*
X109125163Y-71733609D01*
X109125163Y-71733609D02*
X109196591Y-71733609D01*
X108815639Y-71733609D02*
X108815639Y-71400276D01*
X108815639Y-71447895D02*
X108791829Y-71424085D01*
X108791829Y-71424085D02*
X108744210Y-71400276D01*
X108744210Y-71400276D02*
X108672782Y-71400276D01*
X108672782Y-71400276D02*
X108625163Y-71424085D01*
X108625163Y-71424085D02*
X108601353Y-71471704D01*
X108601353Y-71471704D02*
X108601353Y-71733609D01*
X108601353Y-71471704D02*
X108577544Y-71424085D01*
X108577544Y-71424085D02*
X108529925Y-71400276D01*
X108529925Y-71400276D02*
X108458496Y-71400276D01*
X108458496Y-71400276D02*
X108410877Y-71424085D01*
X108410877Y-71424085D02*
X108387067Y-71471704D01*
X108387067Y-71471704D02*
X108387067Y-71733609D01*
X107934686Y-71733609D02*
X107934686Y-71471704D01*
X107934686Y-71471704D02*
X107958496Y-71424085D01*
X107958496Y-71424085D02*
X108006115Y-71400276D01*
X108006115Y-71400276D02*
X108101353Y-71400276D01*
X108101353Y-71400276D02*
X108148972Y-71424085D01*
X107934686Y-71709800D02*
X107982305Y-71733609D01*
X107982305Y-71733609D02*
X108101353Y-71733609D01*
X108101353Y-71733609D02*
X108148972Y-71709800D01*
X108148972Y-71709800D02*
X108172781Y-71662180D01*
X108172781Y-71662180D02*
X108172781Y-71614561D01*
X108172781Y-71614561D02*
X108148972Y-71566942D01*
X108148972Y-71566942D02*
X108101353Y-71543133D01*
X108101353Y-71543133D02*
X107982305Y-71543133D01*
X107982305Y-71543133D02*
X107934686Y-71519323D01*
X107625162Y-71733609D02*
X107672781Y-71709800D01*
X107672781Y-71709800D02*
X107696591Y-71662180D01*
X107696591Y-71662180D02*
X107696591Y-71233609D01*
X107220400Y-71400276D02*
X107220400Y-71733609D01*
X107434686Y-71400276D02*
X107434686Y-71662180D01*
X107434686Y-71662180D02*
X107410876Y-71709800D01*
X107410876Y-71709800D02*
X107363257Y-71733609D01*
X107363257Y-71733609D02*
X107291829Y-71733609D01*
X107291829Y-71733609D02*
X107244210Y-71709800D01*
X107244210Y-71709800D02*
X107220400Y-71685990D01*
X107006114Y-71709800D02*
X106958495Y-71733609D01*
X106958495Y-71733609D02*
X106863257Y-71733609D01*
X106863257Y-71733609D02*
X106815638Y-71709800D01*
X106815638Y-71709800D02*
X106791829Y-71662180D01*
X106791829Y-71662180D02*
X106791829Y-71638371D01*
X106791829Y-71638371D02*
X106815638Y-71590752D01*
X106815638Y-71590752D02*
X106863257Y-71566942D01*
X106863257Y-71566942D02*
X106934686Y-71566942D01*
X106934686Y-71566942D02*
X106982305Y-71543133D01*
X106982305Y-71543133D02*
X107006114Y-71495514D01*
X107006114Y-71495514D02*
X107006114Y-71471704D01*
X107006114Y-71471704D02*
X106982305Y-71424085D01*
X106982305Y-71424085D02*
X106934686Y-71400276D01*
X106934686Y-71400276D02*
X106863257Y-71400276D01*
X106863257Y-71400276D02*
X106815638Y-71424085D01*
X106577543Y-71733609D02*
X106577543Y-71400276D01*
X106577543Y-71233609D02*
X106601352Y-71257419D01*
X106601352Y-71257419D02*
X106577543Y-71281228D01*
X106577543Y-71281228D02*
X106553733Y-71257419D01*
X106553733Y-71257419D02*
X106577543Y-71233609D01*
X106577543Y-71233609D02*
X106577543Y-71281228D01*
X118696591Y-69608637D02*
X118529925Y-70108637D01*
X118529925Y-70108637D02*
X118363258Y-69608637D01*
X117934687Y-70108637D02*
X118220401Y-70108637D01*
X118077544Y-70108637D02*
X118077544Y-69608637D01*
X118077544Y-69608637D02*
X118125163Y-69680066D01*
X118125163Y-69680066D02*
X118172782Y-69727685D01*
X118172782Y-69727685D02*
X118220401Y-69751494D01*
X117720402Y-70061018D02*
X117696592Y-70084828D01*
X117696592Y-70084828D02*
X117720402Y-70108637D01*
X117720402Y-70108637D02*
X117744211Y-70084828D01*
X117744211Y-70084828D02*
X117720402Y-70061018D01*
X117720402Y-70061018D02*
X117720402Y-70108637D01*
X117387069Y-69608637D02*
X117339450Y-69608637D01*
X117339450Y-69608637D02*
X117291831Y-69632447D01*
X117291831Y-69632447D02*
X117268021Y-69656256D01*
X117268021Y-69656256D02*
X117244212Y-69703875D01*
X117244212Y-69703875D02*
X117220402Y-69799113D01*
X117220402Y-69799113D02*
X117220402Y-69918161D01*
X117220402Y-69918161D02*
X117244212Y-70013399D01*
X117244212Y-70013399D02*
X117268021Y-70061018D01*
X117268021Y-70061018D02*
X117291831Y-70084828D01*
X117291831Y-70084828D02*
X117339450Y-70108637D01*
X117339450Y-70108637D02*
X117387069Y-70108637D01*
X117387069Y-70108637D02*
X117434688Y-70084828D01*
X117434688Y-70084828D02*
X117458497Y-70061018D01*
X117458497Y-70061018D02*
X117482307Y-70013399D01*
X117482307Y-70013399D02*
X117506116Y-69918161D01*
X117506116Y-69918161D02*
X117506116Y-69799113D01*
X117506116Y-69799113D02*
X117482307Y-69703875D01*
X117482307Y-69703875D02*
X117458497Y-69656256D01*
X117458497Y-69656256D02*
X117434688Y-69632447D01*
X117434688Y-69632447D02*
X117387069Y-69608637D01*
X118529925Y-70413609D02*
X118482306Y-70413609D01*
X118482306Y-70413609D02*
X118434687Y-70437419D01*
X118434687Y-70437419D02*
X118410877Y-70461228D01*
X118410877Y-70461228D02*
X118387068Y-70508847D01*
X118387068Y-70508847D02*
X118363258Y-70604085D01*
X118363258Y-70604085D02*
X118363258Y-70723133D01*
X118363258Y-70723133D02*
X118387068Y-70818371D01*
X118387068Y-70818371D02*
X118410877Y-70865990D01*
X118410877Y-70865990D02*
X118434687Y-70889800D01*
X118434687Y-70889800D02*
X118482306Y-70913609D01*
X118482306Y-70913609D02*
X118529925Y-70913609D01*
X118529925Y-70913609D02*
X118577544Y-70889800D01*
X118577544Y-70889800D02*
X118601353Y-70865990D01*
X118601353Y-70865990D02*
X118625163Y-70818371D01*
X118625163Y-70818371D02*
X118648972Y-70723133D01*
X118648972Y-70723133D02*
X118648972Y-70604085D01*
X118648972Y-70604085D02*
X118625163Y-70508847D01*
X118625163Y-70508847D02*
X118601353Y-70461228D01*
X118601353Y-70461228D02*
X118577544Y-70437419D01*
X118577544Y-70437419D02*
X118529925Y-70413609D01*
X117887068Y-70913609D02*
X118172782Y-70913609D01*
X118029925Y-70913609D02*
X118029925Y-70413609D01*
X118029925Y-70413609D02*
X118077544Y-70485038D01*
X118077544Y-70485038D02*
X118125163Y-70532657D01*
X118125163Y-70532657D02*
X118172782Y-70556466D01*
X117315640Y-70389800D02*
X117744211Y-71032657D01*
X117172782Y-70461228D02*
X117148973Y-70437419D01*
X117148973Y-70437419D02*
X117101354Y-70413609D01*
X117101354Y-70413609D02*
X116982306Y-70413609D01*
X116982306Y-70413609D02*
X116934687Y-70437419D01*
X116934687Y-70437419D02*
X116910878Y-70461228D01*
X116910878Y-70461228D02*
X116887068Y-70508847D01*
X116887068Y-70508847D02*
X116887068Y-70556466D01*
X116887068Y-70556466D02*
X116910878Y-70627895D01*
X116910878Y-70627895D02*
X117196592Y-70913609D01*
X117196592Y-70913609D02*
X116887068Y-70913609D01*
X116577545Y-70413609D02*
X116529926Y-70413609D01*
X116529926Y-70413609D02*
X116482307Y-70437419D01*
X116482307Y-70437419D02*
X116458497Y-70461228D01*
X116458497Y-70461228D02*
X116434688Y-70508847D01*
X116434688Y-70508847D02*
X116410878Y-70604085D01*
X116410878Y-70604085D02*
X116410878Y-70723133D01*
X116410878Y-70723133D02*
X116434688Y-70818371D01*
X116434688Y-70818371D02*
X116458497Y-70865990D01*
X116458497Y-70865990D02*
X116482307Y-70889800D01*
X116482307Y-70889800D02*
X116529926Y-70913609D01*
X116529926Y-70913609D02*
X116577545Y-70913609D01*
X116577545Y-70913609D02*
X116625164Y-70889800D01*
X116625164Y-70889800D02*
X116648973Y-70865990D01*
X116648973Y-70865990D02*
X116672783Y-70818371D01*
X116672783Y-70818371D02*
X116696592Y-70723133D01*
X116696592Y-70723133D02*
X116696592Y-70604085D01*
X116696592Y-70604085D02*
X116672783Y-70508847D01*
X116672783Y-70508847D02*
X116648973Y-70461228D01*
X116648973Y-70461228D02*
X116625164Y-70437419D01*
X116625164Y-70437419D02*
X116577545Y-70413609D01*
X116220402Y-70461228D02*
X116196593Y-70437419D01*
X116196593Y-70437419D02*
X116148974Y-70413609D01*
X116148974Y-70413609D02*
X116029926Y-70413609D01*
X116029926Y-70413609D02*
X115982307Y-70437419D01*
X115982307Y-70437419D02*
X115958498Y-70461228D01*
X115958498Y-70461228D02*
X115934688Y-70508847D01*
X115934688Y-70508847D02*
X115934688Y-70556466D01*
X115934688Y-70556466D02*
X115958498Y-70627895D01*
X115958498Y-70627895D02*
X116244212Y-70913609D01*
X116244212Y-70913609D02*
X115934688Y-70913609D01*
X115482308Y-70413609D02*
X115720403Y-70413609D01*
X115720403Y-70413609D02*
X115744212Y-70651704D01*
X115744212Y-70651704D02*
X115720403Y-70627895D01*
X115720403Y-70627895D02*
X115672784Y-70604085D01*
X115672784Y-70604085D02*
X115553736Y-70604085D01*
X115553736Y-70604085D02*
X115506117Y-70627895D01*
X115506117Y-70627895D02*
X115482308Y-70651704D01*
X115482308Y-70651704D02*
X115458498Y-70699323D01*
X115458498Y-70699323D02*
X115458498Y-70818371D01*
X115458498Y-70818371D02*
X115482308Y-70865990D01*
X115482308Y-70865990D02*
X115506117Y-70889800D01*
X115506117Y-70889800D02*
X115553736Y-70913609D01*
X115553736Y-70913609D02*
X115672784Y-70913609D01*
X115672784Y-70913609D02*
X115720403Y-70889800D01*
X115720403Y-70889800D02*
X115744212Y-70865990D01*
M02*
